<svg width="24" height="24" viewBox="0 0 24 24" fill="none" xmlns="http://www.w3.org/2000/svg">
<rect width="24" height="24" fill="white" fill-opacity="0.4"/>
<path d="M-2380 -987C-2380 -988.105 -2379.1 -989 -2378 -989H2129C2130.1 -989 2131 -988.105 2131 -987V1191C2131 1192.1 2130.1 1193 2129 1193H-2378C-2379.1 1193 -2380 1192.1 -2380 1191V-987Z" fill="#444444"/>
<path d="M-2378 -988H2129V-990H-2378V-988ZM2130 -987V1191H2132V-987H2130ZM2129 1192H-2378V1194H2129V1192ZM-2379 1191V-987H-2381V1191H-2379ZM-2378 1192C-2378.55 1192 -2379 1191.55 -2379 1191H-2381C-2381 1192.66 -2379.66 1194 -2378 1194V1192ZM2130 1191C2130 1191.55 2129.55 1192 2129 1192V1194C2130.66 1194 2132 1192.66 2132 1191H2130ZM2129 -988C2129.55 -988 2130 -987.552 2130 -987H2132C2132 -988.657 2130.66 -990 2129 -990V-988ZM-2378 -990C-2379.66 -990 -2381 -988.657 -2381 -987H-2379C-2379 -987.552 -2378.55 -988 -2378 -988V-990Z" fill="white" fill-opacity="0.1"/>
<rect width="1280" height="1745" transform="translate(-853 -740)" fill="white"/>
<path d="M-117.6 -48C-117.6 -51.7587 -117.599 -54.5455 -117.364 -56.7224C-117.129 -58.8918 -116.664 -60.408 -115.767 -61.6427C-115.174 -62.4577 -114.458 -63.1744 -113.643 -63.7666C-112.408 -64.6637 -110.892 -65.1286 -108.722 -65.3636C-106.545 -65.5995 -103.759 -65.6 -100 -65.6H362C365.759 -65.6 368.546 -65.5995 370.722 -65.3636C372.892 -65.1286 374.408 -64.6637 375.643 -63.7666C376.458 -63.1744 377.174 -62.4577 377.767 -61.6427C378.664 -60.408 379.129 -58.8918 379.364 -56.7224C379.599 -54.5455 379.6 -51.7586 379.6 -48V390C379.6 393.759 379.599 396.546 379.364 398.722C379.129 400.892 378.664 402.408 377.767 403.643C377.174 404.458 376.458 405.174 375.643 405.767C374.408 406.664 372.892 407.129 370.722 407.364C368.546 407.599 365.759 407.6 362 407.6H-100C-103.759 407.6 -106.545 407.599 -108.722 407.364C-110.892 407.129 -112.408 406.664 -113.643 405.767C-114.458 405.174 -115.174 404.458 -115.767 403.643C-116.664 402.408 -117.129 400.892 -117.364 398.722C-117.599 396.546 -117.6 393.759 -117.6 390V-48Z" fill="white"/>
<path d="M-117.6 -48C-117.6 -51.7587 -117.599 -54.5455 -117.364 -56.7224C-117.129 -58.8918 -116.664 -60.408 -115.767 -61.6427C-115.174 -62.4577 -114.458 -63.1744 -113.643 -63.7666C-112.408 -64.6637 -110.892 -65.1286 -108.722 -65.3636C-106.545 -65.5995 -103.759 -65.6 -100 -65.6H362C365.759 -65.6 368.546 -65.5995 370.722 -65.3636C372.892 -65.1286 374.408 -64.6637 375.643 -63.7666C376.458 -63.1744 377.174 -62.4577 377.767 -61.6427C378.664 -60.408 379.129 -58.8918 379.364 -56.7224C379.599 -54.5455 379.6 -51.7586 379.6 -48V390C379.6 393.759 379.599 396.546 379.364 398.722C379.129 400.892 378.664 402.408 377.767 403.643C377.174 404.458 376.458 405.174 375.643 405.767C374.408 406.664 372.892 407.129 370.722 407.364C368.546 407.599 365.759 407.6 362 407.6H-100C-103.759 407.6 -106.545 407.599 -108.722 407.364C-110.892 407.129 -112.408 406.664 -113.643 405.767C-114.458 405.174 -115.174 404.458 -115.767 403.643C-116.664 402.408 -117.129 400.892 -117.364 398.722C-117.599 396.546 -117.6 393.759 -117.6 390V-48Z" stroke="#D7D8DC" stroke-width="0.8"/>
<rect x="-106" y="-8" width="142" height="40" rx="12" fill="white"/>
<path d="M17.4776 9.01106C17.485 9.01102 17.4925 9.01101 17.5 9.01101C19.9853 9.01101 22 11.0294 22 13.5193C22 15.8398 20.25 17.7508 18 18M17.4776 9.01106C17.4924 8.84606 17.5 8.67896 17.5 8.51009C17.5 5.46695 15.0376 3 12 3C9.12324 3 6.76233 5.21267 6.52042 8.03192M17.4776 9.01106C17.3753 10.1476 16.9286 11.1846 16.2428 12.0165M6.52042 8.03192C3.98398 8.27373 2 10.4139 2 13.0183C2 15.4417 3.71776 17.4632 6 17.9273M6.52042 8.03192C6.67826 8.01687 6.83823 8.00917 7 8.00917C8.12582 8.00917 9.16474 8.38194 10.0005 9.01101" stroke="#868686" stroke-width="1.5" stroke-linecap="round" stroke-linejoin="round"/>
<path d="M12 21V13M12 21C11.2998 21 9.99153 19.0057 9.5 18.5M12 21C12.7002 21 14.0085 19.0057 14.5 18.5" stroke="#868686" stroke-width="1.5" stroke-linecap="round" stroke-linejoin="round"/>
</svg>
