<svg width="910" height="242" viewBox="0 0 910 242" fill="none" xmlns="http://www.w3.org/2000/svg">
<g clip-path="url(#clip0_335_671)">
<path d="M0 147.519L46.9038 135.225C54.4154 133.257 58.1712 132.272 61.7406 132.625C64.8948 132.937 67.9297 133.994 70.5951 135.709C73.6114 137.65 75.9429 140.755 80.6058 146.965L97.0822 168.906C102.096 175.583 104.603 178.921 107.854 180.914C110.724 182.674 113.992 183.68 117.355 183.84C121.164 184.022 125.115 182.672 133.016 179.972L147.182 175.133C149.902 174.204 151.262 173.739 152.648 173.374C153.879 173.05 155.125 172.784 156.382 172.579C157.796 172.347 159.227 172.218 162.09 171.958L197.575 168.738C209.197 167.684 215.008 167.156 220.616 165.817C225.597 164.628 230.452 162.963 235.114 160.846C240.364 158.462 245.276 155.312 255.1 149.013L267.333 141.169C273.928 136.941 277.225 134.827 280.788 133.408C283.949 132.149 287.259 131.298 290.635 130.877C294.441 130.402 298.349 130.664 306.165 131.189L380.165 136.156C384.383 136.44 386.492 136.581 388.535 136.296C390.347 136.044 392.116 135.544 393.792 134.81C395.681 133.984 397.404 132.759 400.85 130.309L428.851 110.403C433.2 107.31 435.375 105.764 437.775 104.854C439.902 104.046 442.151 103.608 444.425 103.557C446.992 103.5 449.588 104.116 454.78 105.348L502.829 116.75C520.029 120.831 528.63 122.872 536.21 121.761C546.235 120.292 555.329 115.074 561.655 107.16C566.439 101.175 569.016 92.7202 574.17 75.8104L574.566 74.5128C577.953 63.4004 579.646 57.8443 582.413 55.1543C586.848 50.8424 593.475 49.695 599.101 52.2648C602.611 53.8681 606.074 58.5314 613 67.8581V67.8581C619.211 76.221 622.316 80.4024 625.614 82.0057C630.896 84.5735 637.191 83.8221 641.721 80.0832C644.549 77.7486 646.583 72.9538 650.65 63.3642L654.127 55.1676C666.461 26.0871 672.629 11.5468 681.803 6.54356C689.784 2.19133 699.307 1.69233 707.699 5.18669C717.346 9.20379 724.999 23.0199 740.305 50.6521L761.779 89.4195C767.199 99.2045 769.909 104.097 773.884 106.782C777.38 109.144 781.534 110.34 785.751 110.199C790.545 110.038 795.442 107.335 805.235 101.93L837.245 84.2612C839.474 83.0307 840.589 82.4155 841.761 81.9494C842.803 81.5355 843.877 81.2098 844.973 80.9758C846.207 80.7123 847.476 80.6051 850.013 80.3906L910 75.3187" stroke="#7F27FF" stroke-linecap="round"/>
<path d="M46.9038 135.225L0 147.519V217.6C0 219.84 0 220.96 0.435974 221.816C0.819467 222.569 1.43139 223.181 2.18404 223.564C3.03969 224 4.15979 224 6.4 224H903.6C905.84 224 906.96 224 907.816 223.564C908.569 223.181 909.18 222.569 909.564 221.816C910 220.96 910 219.84 910 217.6V75.3187L850.013 80.3906C847.476 80.6051 846.207 80.7123 844.973 80.9758C843.877 81.2098 842.803 81.5355 841.761 81.9494C840.589 82.4155 839.474 83.0307 837.245 84.2612L805.235 101.93C795.442 107.335 790.545 110.038 785.751 110.199C781.534 110.34 777.38 109.144 773.884 106.782C769.909 104.097 767.199 99.2047 761.779 89.4202L761.779 89.4195L740.305 50.6521C724.999 23.0199 717.346 9.20378 707.699 5.18669C699.307 1.69233 689.784 2.19133 681.803 6.54356C672.629 11.5468 666.461 26.0871 654.127 55.1676L650.65 63.3642C646.583 72.9538 644.549 77.7486 641.721 80.0832C637.191 83.8221 630.896 84.5735 625.614 82.0057C622.316 80.4024 619.211 76.221 613 67.8581C606.074 58.5314 602.611 53.8681 599.101 52.2648C593.475 49.695 586.848 50.8424 582.413 55.1543C579.646 57.8442 577.953 63.4001 574.566 74.5117L574.566 74.5128L574.17 75.8104L574.17 75.8109C569.016 92.7204 566.438 101.175 561.655 107.16C555.329 115.074 546.235 120.292 536.21 121.761C528.63 122.872 520.029 120.831 502.829 116.75L454.78 105.348L454.78 105.348C449.588 104.116 446.992 103.5 444.425 103.557C442.151 103.608 439.902 104.046 437.775 104.854C435.375 105.764 433.201 107.31 428.851 110.403L400.85 130.309C397.404 132.759 395.681 133.984 393.792 134.81C392.116 135.544 390.347 136.044 388.535 136.296C386.492 136.581 384.383 136.44 380.165 136.156L306.165 131.189L306.165 131.189C298.349 130.664 294.441 130.402 290.635 130.877C287.259 131.298 283.949 132.149 280.788 133.408C277.225 134.827 273.928 136.941 267.333 141.169L255.1 149.013C245.276 155.312 240.364 158.462 235.114 160.846C230.452 162.963 225.597 164.628 220.616 165.817C215.008 167.156 209.197 167.684 197.575 168.738L162.09 171.958C159.227 172.217 157.796 172.347 156.382 172.579C155.125 172.784 153.879 173.05 152.648 173.374C151.262 173.739 149.902 174.204 147.183 175.133L147.182 175.133L133.016 179.972C125.115 182.672 121.164 184.022 117.355 183.84C113.992 183.68 110.724 182.674 107.854 180.914C104.603 178.921 102.096 175.583 97.0822 168.906L80.6058 146.965C75.9429 140.755 73.6114 137.65 70.5951 135.709C67.9297 133.994 64.8948 132.937 61.7406 132.625C58.1712 132.272 54.4154 133.257 46.9038 135.225Z" fill="url(#paint0_linear_335_671)"/>
<path d="M8.82261 224.68V223.601H11.2666V233H10.0706V224.68H8.82261ZM13.0517 229.412C13.0517 228.684 13.199 228.047 13.4937 227.501C13.7883 226.946 14.1913 226.517 14.7027 226.214C15.2227 225.911 15.799 225.759 16.4317 225.759C17.0557 225.759 17.5973 225.893 18.0567 226.162C18.516 226.431 18.8583 226.769 19.0837 227.176V225.876H20.2797V233H19.0837V231.674C18.8497 232.09 18.4987 232.437 18.0307 232.714C17.5713 232.983 17.034 233.117 16.4187 233.117C15.786 233.117 15.214 232.961 14.7027 232.649C14.1913 232.337 13.7883 231.899 13.4937 231.336C13.199 230.773 13.0517 230.131 13.0517 229.412ZM19.0837 229.425C19.0837 228.888 18.9753 228.42 18.7587 228.021C18.542 227.622 18.2473 227.319 17.8747 227.111C17.5107 226.894 17.1077 226.786 16.6657 226.786C16.2237 226.786 15.8207 226.89 15.4567 227.098C15.0927 227.306 14.8023 227.609 14.5857 228.008C14.369 228.407 14.2607 228.875 14.2607 229.412C14.2607 229.958 14.369 230.435 14.5857 230.842C14.8023 231.241 15.0927 231.548 15.4567 231.765C15.8207 231.973 16.2237 232.077 16.6657 232.077C17.1077 232.077 17.5107 231.973 17.8747 231.765C18.2473 231.548 18.542 231.241 18.7587 230.842C18.9753 230.435 19.0837 229.962 19.0837 229.425ZM30.8458 225.746C31.4005 225.746 31.8945 225.863 32.3278 226.097C32.7612 226.322 33.1035 226.665 33.3548 227.124C33.6062 227.583 33.7318 228.142 33.7318 228.801V233H32.5618V228.97C32.5618 228.259 32.3842 227.718 32.0288 227.345C31.6822 226.964 31.2098 226.773 30.6118 226.773C29.9965 226.773 29.5068 226.972 29.1428 227.371C28.7788 227.761 28.5968 228.329 28.5968 229.074V233H27.4268V228.97C27.4268 228.259 27.2492 227.718 26.8938 227.345C26.5472 226.964 26.0748 226.773 25.4768 226.773C24.8615 226.773 24.3718 226.972 24.0078 227.371C23.6438 227.761 23.4618 228.329 23.4618 229.074V233H22.2788V225.876H23.4618V226.903C23.6958 226.53 24.0078 226.244 24.3978 226.045C24.7965 225.846 25.2342 225.746 25.7108 225.746C26.3088 225.746 26.8375 225.88 27.2968 226.149C27.7562 226.418 28.0985 226.812 28.3238 227.332C28.5232 226.829 28.8525 226.439 29.3118 226.162C29.7712 225.885 30.2825 225.746 30.8458 225.746Z" fill="#475569"/>
<path d="M53.1681 232.051C54.2688 231.167 55.1311 230.443 55.7551 229.88C56.3791 229.308 56.9035 228.714 57.3281 228.099C57.7615 227.475 57.9781 226.864 57.9781 226.266C57.9781 225.703 57.8395 225.261 57.5621 224.94C57.2935 224.611 56.8558 224.446 56.2491 224.446C55.6598 224.446 55.2005 224.632 54.8711 225.005C54.5505 225.369 54.3771 225.859 54.3511 226.474H53.2071C53.2418 225.503 53.5365 224.754 54.0911 224.225C54.6458 223.696 55.3608 223.432 56.2361 223.432C57.1288 223.432 57.8351 223.679 58.3551 224.173C58.8838 224.667 59.1481 225.347 59.1481 226.214C59.1481 226.933 58.9315 227.635 58.4981 228.32C58.0735 228.996 57.5881 229.594 57.0421 230.114C56.4961 230.625 55.7985 231.223 54.9491 231.908H59.4211V232.896H53.1681V232.051ZM60.5417 229.412C60.5417 228.684 60.689 228.047 60.9837 227.501C61.2783 226.946 61.6813 226.517 62.1927 226.214C62.7127 225.911 63.289 225.759 63.9217 225.759C64.5457 225.759 65.0873 225.893 65.5467 226.162C66.006 226.431 66.3483 226.769 66.5737 227.176V225.876H67.7697V233H66.5737V231.674C66.3397 232.09 65.9887 232.437 65.5207 232.714C65.0613 232.983 64.524 233.117 63.9087 233.117C63.276 233.117 62.704 232.961 62.1927 232.649C61.6813 232.337 61.2783 231.899 60.9837 231.336C60.689 230.773 60.5417 230.131 60.5417 229.412ZM66.5737 229.425C66.5737 228.888 66.4653 228.42 66.2487 228.021C66.032 227.622 65.7373 227.319 65.3647 227.111C65.0007 226.894 64.5977 226.786 64.1557 226.786C63.7137 226.786 63.3107 226.89 62.9467 227.098C62.5827 227.306 62.2923 227.609 62.0757 228.008C61.859 228.407 61.7507 228.875 61.7507 229.412C61.7507 229.958 61.859 230.435 62.0757 230.842C62.2923 231.241 62.5827 231.548 62.9467 231.765C63.3107 231.973 63.7137 232.077 64.1557 232.077C64.5977 232.077 65.0007 231.973 65.3647 231.765C65.7373 231.548 66.032 231.241 66.2487 230.842C66.4653 230.435 66.5737 229.962 66.5737 229.425ZM78.3358 225.746C78.8905 225.746 79.3845 225.863 79.8178 226.097C80.2512 226.322 80.5935 226.665 80.8448 227.124C81.0962 227.583 81.2218 228.142 81.2218 228.801V233H80.0518V228.97C80.0518 228.259 79.8742 227.718 79.5188 227.345C79.1722 226.964 78.6998 226.773 78.1018 226.773C77.4865 226.773 76.9968 226.972 76.6328 227.371C76.2688 227.761 76.0868 228.329 76.0868 229.074V233H74.9168V228.97C74.9168 228.259 74.7392 227.718 74.3838 227.345C74.0372 226.964 73.5648 226.773 72.9668 226.773C72.3515 226.773 71.8618 226.972 71.4978 227.371C71.1338 227.761 70.9518 228.329 70.9518 229.074V233H69.7688V225.876H70.9518V226.903C71.1858 226.53 71.4978 226.244 71.8878 226.045C72.2865 225.846 72.7242 225.746 73.2008 225.746C73.7988 225.746 74.3275 225.88 74.7868 226.149C75.2462 226.418 75.5885 226.812 75.8138 227.332C76.0132 226.829 76.3425 226.439 76.8018 226.162C77.2612 225.885 77.7725 225.746 78.3358 225.746Z" fill="#475569"/>
<path d="M100.53 225.967C100.59 225.17 100.898 224.546 101.453 224.095C102.007 223.644 102.727 223.419 103.611 223.419C104.2 223.419 104.707 223.527 105.132 223.744C105.565 223.952 105.89 224.238 106.107 224.602C106.332 224.966 106.445 225.378 106.445 225.837C106.445 226.374 106.289 226.838 105.977 227.228C105.673 227.618 105.275 227.869 104.781 227.982V228.047C105.344 228.186 105.79 228.459 106.12 228.866C106.449 229.273 106.614 229.806 106.614 230.465C106.614 230.959 106.501 231.405 106.276 231.804C106.05 232.194 105.712 232.502 105.262 232.727C104.811 232.952 104.269 233.065 103.637 233.065C102.718 233.065 101.964 232.827 101.375 232.35C100.785 231.865 100.456 231.18 100.387 230.296H101.531C101.591 230.816 101.804 231.241 102.168 231.57C102.532 231.899 103.017 232.064 103.624 232.064C104.23 232.064 104.69 231.908 105.002 231.596C105.322 231.275 105.483 230.864 105.483 230.361C105.483 229.711 105.266 229.243 104.833 228.957C104.399 228.671 103.745 228.528 102.87 228.528H102.571V227.54H102.883C103.68 227.531 104.282 227.401 104.69 227.15C105.097 226.89 105.301 226.491 105.301 225.954C105.301 225.495 105.149 225.126 104.846 224.849C104.551 224.572 104.126 224.433 103.572 224.433C103.034 224.433 102.601 224.572 102.272 224.849C101.942 225.126 101.747 225.499 101.687 225.967H100.53ZM107.964 229.412C107.964 228.684 108.111 228.047 108.406 227.501C108.701 226.946 109.104 226.517 109.615 226.214C110.135 225.911 110.711 225.759 111.344 225.759C111.968 225.759 112.51 225.893 112.969 226.162C113.428 226.431 113.771 226.769 113.996 227.176V225.876H115.192V233H113.996V231.674C113.762 232.09 113.411 232.437 112.943 232.714C112.484 232.983 111.946 233.117 111.331 233.117C110.698 233.117 110.126 232.961 109.615 232.649C109.104 232.337 108.701 231.899 108.406 231.336C108.111 230.773 107.964 230.131 107.964 229.412ZM113.996 229.425C113.996 228.888 113.888 228.42 113.671 228.021C113.454 227.622 113.16 227.319 112.787 227.111C112.423 226.894 112.02 226.786 111.578 226.786C111.136 226.786 110.733 226.89 110.369 227.098C110.005 227.306 109.715 227.609 109.498 228.008C109.281 228.407 109.173 228.875 109.173 229.412C109.173 229.958 109.281 230.435 109.498 230.842C109.715 231.241 110.005 231.548 110.369 231.765C110.733 231.973 111.136 232.077 111.578 232.077C112.02 232.077 112.423 231.973 112.787 231.765C113.16 231.548 113.454 231.241 113.671 230.842C113.888 230.435 113.996 229.962 113.996 229.425ZM125.758 225.746C126.313 225.746 126.807 225.863 127.24 226.097C127.674 226.322 128.016 226.665 128.267 227.124C128.519 227.583 128.644 228.142 128.644 228.801V233H127.474V228.97C127.474 228.259 127.297 227.718 126.941 227.345C126.595 226.964 126.122 226.773 125.524 226.773C124.909 226.773 124.419 226.972 124.055 227.371C123.691 227.761 123.509 228.329 123.509 229.074V233H122.339V228.97C122.339 228.259 122.162 227.718 121.806 227.345C121.46 226.964 120.987 226.773 120.389 226.773C119.774 226.773 119.284 226.972 118.92 227.371C118.556 227.761 118.374 228.329 118.374 229.074V233H117.191V225.876H118.374V226.903C118.608 226.53 118.92 226.244 119.31 226.045C119.709 225.846 120.147 225.746 120.623 225.746C121.221 225.746 121.75 225.88 122.209 226.149C122.669 226.418 123.011 226.812 123.236 227.332C123.436 226.829 123.765 226.439 124.224 226.162C124.684 225.885 125.195 225.746 125.758 225.746Z" fill="#475569"/>
<path d="M147.843 230.907V230.01L152.406 223.692H153.823V229.88H155.123V230.907H153.823V233H152.653V230.907H147.843ZM152.705 224.927L149.208 229.88H152.705V224.927ZM156.058 229.412C156.058 228.684 156.205 228.047 156.5 227.501C156.794 226.946 157.197 226.517 157.709 226.214C158.229 225.911 158.805 225.759 159.438 225.759C160.062 225.759 160.603 225.893 161.063 226.162C161.522 226.431 161.864 226.769 162.09 227.176V225.876H163.286V233H162.09V231.674C161.856 232.09 161.505 232.437 161.037 232.714C160.577 232.983 160.04 233.117 159.425 233.117C158.792 233.117 158.22 232.961 157.709 232.649C157.197 232.337 156.794 231.899 156.5 231.336C156.205 230.773 156.058 230.131 156.058 229.412ZM162.09 229.425C162.09 228.888 161.981 228.42 161.765 228.021C161.548 227.622 161.253 227.319 160.881 227.111C160.517 226.894 160.114 226.786 159.672 226.786C159.23 226.786 158.827 226.89 158.463 227.098C158.099 227.306 157.808 227.609 157.592 228.008C157.375 228.407 157.267 228.875 157.267 229.412C157.267 229.958 157.375 230.435 157.592 230.842C157.808 231.241 158.099 231.548 158.463 231.765C158.827 231.973 159.23 232.077 159.672 232.077C160.114 232.077 160.517 231.973 160.881 231.765C161.253 231.548 161.548 231.241 161.765 230.842C161.981 230.435 162.09 229.962 162.09 229.425ZM173.852 225.746C174.406 225.746 174.9 225.863 175.334 226.097C175.767 226.322 176.109 226.665 176.361 227.124C176.612 227.583 176.738 228.142 176.738 228.801V233H175.568V228.97C175.568 228.259 175.39 227.718 175.035 227.345C174.688 226.964 174.216 226.773 173.618 226.773C173.002 226.773 172.513 226.972 172.149 227.371C171.785 227.761 171.603 228.329 171.603 229.074V233H170.433V228.97C170.433 228.259 170.255 227.718 169.9 227.345C169.553 226.964 169.081 226.773 168.483 226.773C167.867 226.773 167.378 226.972 167.014 227.371C166.65 227.761 166.468 228.329 166.468 229.074V233H165.285V225.876H166.468V226.903C166.702 226.53 167.014 226.244 167.404 226.045C167.802 225.846 168.24 225.746 168.717 225.746C169.315 225.746 169.843 225.88 170.303 226.149C170.762 226.418 171.104 226.812 171.33 227.332C171.529 226.829 171.858 226.439 172.318 226.162C172.777 225.885 173.288 225.746 173.852 225.746Z" fill="#475569"/>
<path d="M202.461 224.628H197.898V227.592C198.098 227.315 198.392 227.089 198.782 226.916C199.172 226.734 199.593 226.643 200.043 226.643C200.763 226.643 201.348 226.795 201.798 227.098C202.249 227.393 202.57 227.778 202.76 228.255C202.96 228.723 203.059 229.221 203.059 229.75C203.059 230.374 202.942 230.933 202.708 231.427C202.474 231.921 202.115 232.311 201.629 232.597C201.153 232.883 200.559 233.026 199.848 233.026C198.938 233.026 198.202 232.792 197.638 232.324C197.075 231.856 196.733 231.232 196.611 230.452H197.768C197.881 230.946 198.119 231.332 198.483 231.609C198.847 231.886 199.307 232.025 199.861 232.025C200.546 232.025 201.062 231.821 201.408 231.414C201.755 230.998 201.928 230.452 201.928 229.776C201.928 229.1 201.755 228.58 201.408 228.216C201.062 227.843 200.55 227.657 199.874 227.657C199.415 227.657 199.012 227.77 198.665 227.995C198.327 228.212 198.08 228.511 197.924 228.892H196.806V223.588H202.461V224.628ZM204.384 229.412C204.384 228.684 204.532 228.047 204.826 227.501C205.121 226.946 205.524 226.517 206.035 226.214C206.555 225.911 207.132 225.759 207.764 225.759C208.388 225.759 208.93 225.893 209.389 226.162C209.849 226.431 210.191 226.769 210.416 227.176V225.876H211.612V233H210.416V231.674C210.182 232.09 209.831 232.437 209.363 232.714C208.904 232.983 208.367 233.117 207.751 233.117C207.119 233.117 206.547 232.961 206.035 232.649C205.524 232.337 205.121 231.899 204.826 231.336C204.532 230.773 204.384 230.131 204.384 229.412ZM210.416 229.425C210.416 228.888 210.308 228.42 210.091 228.021C209.875 227.622 209.58 227.319 209.207 227.111C208.843 226.894 208.44 226.786 207.998 226.786C207.556 226.786 207.153 226.89 206.789 227.098C206.425 227.306 206.135 227.609 205.918 228.008C205.702 228.407 205.593 228.875 205.593 229.412C205.593 229.958 205.702 230.435 205.918 230.842C206.135 231.241 206.425 231.548 206.789 231.765C207.153 231.973 207.556 232.077 207.998 232.077C208.44 232.077 208.843 231.973 209.207 231.765C209.58 231.548 209.875 231.241 210.091 230.842C210.308 230.435 210.416 229.962 210.416 229.425ZM222.179 225.746C222.733 225.746 223.227 225.863 223.661 226.097C224.094 226.322 224.436 226.665 224.688 227.124C224.939 227.583 225.065 228.142 225.065 228.801V233H223.895V228.97C223.895 228.259 223.717 227.718 223.362 227.345C223.015 226.964 222.543 226.773 221.945 226.773C221.329 226.773 220.84 226.972 220.476 227.371C220.112 227.761 219.93 228.329 219.93 229.074V233H218.76V228.97C218.76 228.259 218.582 227.718 218.227 227.345C217.88 226.964 217.408 226.773 216.81 226.773C216.194 226.773 215.705 226.972 215.341 227.371C214.977 227.761 214.795 228.329 214.795 229.074V233H213.612V225.876H214.795V226.903C215.029 226.53 215.341 226.244 215.731 226.045C216.129 225.846 216.567 225.746 217.044 225.746C217.642 225.746 218.17 225.88 218.63 226.149C219.089 226.418 219.431 226.812 219.657 227.332C219.856 226.829 220.185 226.439 220.645 226.162C221.104 225.885 221.615 225.746 222.179 225.746Z" fill="#475569"/>
<path d="M249.996 225.837C249.806 224.875 249.212 224.394 248.215 224.394C247.444 224.394 246.868 224.693 246.486 225.291C246.105 225.88 245.919 226.855 245.927 228.216C246.127 227.765 246.456 227.414 246.915 227.163C247.383 226.903 247.903 226.773 248.475 226.773C249.368 226.773 250.079 227.05 250.607 227.605C251.145 228.16 251.413 228.927 251.413 229.906C251.413 230.495 251.296 231.024 251.062 231.492C250.837 231.96 250.49 232.333 250.022 232.61C249.563 232.887 249.004 233.026 248.345 233.026C247.453 233.026 246.755 232.827 246.252 232.428C245.75 232.029 245.399 231.479 245.199 230.777C245 230.075 244.9 229.208 244.9 228.177C244.9 224.996 246.01 223.406 248.228 223.406C249.078 223.406 249.745 223.636 250.23 224.095C250.716 224.554 251.002 225.135 251.088 225.837H249.996ZM248.228 227.774C247.856 227.774 247.505 227.852 247.175 228.008C246.846 228.155 246.577 228.385 246.369 228.697C246.17 229 246.07 229.373 246.07 229.815C246.07 230.474 246.261 231.011 246.642 231.427C247.024 231.834 247.57 232.038 248.28 232.038C248.887 232.038 249.368 231.852 249.723 231.479C250.087 231.098 250.269 230.586 250.269 229.945C250.269 229.269 250.096 228.74 249.749 228.359C249.403 227.969 248.896 227.774 248.228 227.774ZM252.762 229.412C252.762 228.684 252.91 228.047 253.204 227.501C253.499 226.946 253.902 226.517 254.413 226.214C254.933 225.911 255.51 225.759 256.142 225.759C256.766 225.759 257.308 225.893 257.767 226.162C258.227 226.431 258.569 226.769 258.794 227.176V225.876H259.99V233H258.794V231.674C258.56 232.09 258.209 232.437 257.741 232.714C257.282 232.983 256.745 233.117 256.129 233.117C255.497 233.117 254.925 232.961 254.413 232.649C253.902 232.337 253.499 231.899 253.204 231.336C252.91 230.773 252.762 230.131 252.762 229.412ZM258.794 229.425C258.794 228.888 258.686 228.42 258.469 228.021C258.253 227.622 257.958 227.319 257.585 227.111C257.221 226.894 256.818 226.786 256.376 226.786C255.934 226.786 255.531 226.89 255.167 227.098C254.803 227.306 254.513 227.609 254.296 228.008C254.08 228.407 253.971 228.875 253.971 229.412C253.971 229.958 254.08 230.435 254.296 230.842C254.513 231.241 254.803 231.548 255.167 231.765C255.531 231.973 255.934 232.077 256.376 232.077C256.818 232.077 257.221 231.973 257.585 231.765C257.958 231.548 258.253 231.241 258.469 230.842C258.686 230.435 258.794 229.962 258.794 229.425ZM270.557 225.746C271.111 225.746 271.605 225.863 272.039 226.097C272.472 226.322 272.814 226.665 273.066 227.124C273.317 227.583 273.443 228.142 273.443 228.801V233H272.273V228.97C272.273 228.259 272.095 227.718 271.74 227.345C271.393 226.964 270.921 226.773 270.323 226.773C269.707 226.773 269.218 226.972 268.854 227.371C268.49 227.761 268.308 228.329 268.308 229.074V233H267.138V228.97C267.138 228.259 266.96 227.718 266.605 227.345C266.258 226.964 265.786 226.773 265.188 226.773C264.572 226.773 264.083 226.972 263.719 227.371C263.355 227.761 263.173 228.329 263.173 229.074V233H261.99V225.876H263.173V226.903C263.407 226.53 263.719 226.244 264.109 226.045C264.507 225.846 264.945 225.746 265.422 225.746C266.02 225.746 266.548 225.88 267.008 226.149C267.467 226.418 267.809 226.812 268.035 227.332C268.234 226.829 268.563 226.439 269.023 226.162C269.482 225.885 269.993 225.746 270.557 225.746Z" fill="#475569"/>
<path d="M298.953 224.524L295.339 233H294.143L297.809 224.641H292.791V223.627H298.953V224.524ZM300.018 229.412C300.018 228.684 300.165 228.047 300.46 227.501C300.755 226.946 301.158 226.517 301.669 226.214C302.189 225.911 302.765 225.759 303.398 225.759C304.022 225.759 304.564 225.893 305.023 226.162C305.482 226.431 305.825 226.769 306.05 227.176V225.876H307.246V233H306.05V231.674C305.816 232.09 305.465 232.437 304.997 232.714C304.538 232.983 304 233.117 303.385 233.117C302.752 233.117 302.18 232.961 301.669 232.649C301.158 232.337 300.755 231.899 300.46 231.336C300.165 230.773 300.018 230.131 300.018 229.412ZM306.05 229.425C306.05 228.888 305.942 228.42 305.725 228.021C305.508 227.622 305.214 227.319 304.841 227.111C304.477 226.894 304.074 226.786 303.632 226.786C303.19 226.786 302.787 226.89 302.423 227.098C302.059 227.306 301.769 227.609 301.552 228.008C301.335 228.407 301.227 228.875 301.227 229.412C301.227 229.958 301.335 230.435 301.552 230.842C301.769 231.241 302.059 231.548 302.423 231.765C302.787 231.973 303.19 232.077 303.632 232.077C304.074 232.077 304.477 231.973 304.841 231.765C305.214 231.548 305.508 231.241 305.725 230.842C305.942 230.435 306.05 229.962 306.05 229.425ZM317.812 225.746C318.367 225.746 318.861 225.863 319.294 226.097C319.727 226.322 320.07 226.665 320.321 227.124C320.572 227.583 320.698 228.142 320.698 228.801V233H319.528V228.97C319.528 228.259 319.35 227.718 318.995 227.345C318.648 226.964 318.176 226.773 317.578 226.773C316.963 226.773 316.473 226.972 316.109 227.371C315.745 227.761 315.563 228.329 315.563 229.074V233H314.393V228.97C314.393 228.259 314.215 227.718 313.86 227.345C313.513 226.964 313.041 226.773 312.443 226.773C311.828 226.773 311.338 226.972 310.974 227.371C310.61 227.761 310.428 228.329 310.428 229.074V233H309.245V225.876H310.428V226.903C310.662 226.53 310.974 226.244 311.364 226.045C311.763 225.846 312.2 225.746 312.677 225.746C313.275 225.746 313.804 225.88 314.263 226.149C314.722 226.418 315.065 226.812 315.29 227.332C315.489 226.829 315.819 226.439 316.278 226.162C316.737 225.885 317.249 225.746 317.812 225.746Z" fill="#475569"/>
<path d="M342.165 228.112C341.68 227.921 341.307 227.644 341.047 227.28C340.787 226.916 340.657 226.474 340.657 225.954C340.657 225.486 340.774 225.066 341.008 224.693C341.242 224.312 341.589 224.013 342.048 223.796C342.516 223.571 343.08 223.458 343.738 223.458C344.397 223.458 344.956 223.571 345.415 223.796C345.883 224.013 346.234 224.312 346.468 224.693C346.711 225.066 346.832 225.486 346.832 225.954C346.832 226.457 346.698 226.899 346.429 227.28C346.161 227.653 345.792 227.93 345.324 228.112C345.862 228.277 346.286 228.567 346.598 228.983C346.919 229.39 347.079 229.884 347.079 230.465C347.079 231.028 346.941 231.522 346.663 231.947C346.386 232.363 345.992 232.688 345.48 232.922C344.978 233.147 344.397 233.26 343.738 233.26C343.08 233.26 342.499 233.147 341.996 232.922C341.502 232.688 341.117 232.363 340.839 231.947C340.562 231.522 340.423 231.028 340.423 230.465C340.423 229.884 340.579 229.386 340.891 228.97C341.203 228.554 341.628 228.268 342.165 228.112ZM345.688 226.097C345.688 225.568 345.515 225.161 345.168 224.875C344.822 224.589 344.345 224.446 343.738 224.446C343.14 224.446 342.668 224.589 342.321 224.875C341.975 225.161 341.801 225.573 341.801 226.11C341.801 226.595 341.979 226.985 342.334 227.28C342.698 227.575 343.166 227.722 343.738 227.722C344.319 227.722 344.787 227.575 345.142 227.28C345.506 226.977 345.688 226.582 345.688 226.097ZM343.738 228.632C343.097 228.632 342.573 228.784 342.165 229.087C341.758 229.382 341.554 229.828 341.554 230.426C341.554 230.981 341.749 231.427 342.139 231.765C342.538 232.103 343.071 232.272 343.738 232.272C344.406 232.272 344.934 232.103 345.324 231.765C345.714 231.427 345.909 230.981 345.909 230.426C345.909 229.845 345.71 229.403 345.311 229.1C344.913 228.788 344.388 228.632 343.738 228.632ZM348.403 229.412C348.403 228.684 348.551 228.047 348.845 227.501C349.14 226.946 349.543 226.517 350.054 226.214C350.574 225.911 351.151 225.759 351.783 225.759C352.407 225.759 352.949 225.893 353.408 226.162C353.868 226.431 354.21 226.769 354.435 227.176V225.876H355.631V233H354.435V231.674C354.201 232.09 353.85 232.437 353.382 232.714C352.923 232.983 352.386 233.117 351.77 233.117C351.138 233.117 350.566 232.961 350.054 232.649C349.543 232.337 349.14 231.899 348.845 231.336C348.551 230.773 348.403 230.131 348.403 229.412ZM354.435 229.425C354.435 228.888 354.327 228.42 354.11 228.021C353.894 227.622 353.599 227.319 353.226 227.111C352.862 226.894 352.459 226.786 352.017 226.786C351.575 226.786 351.172 226.89 350.808 227.098C350.444 227.306 350.154 227.609 349.937 228.008C349.721 228.407 349.612 228.875 349.612 229.412C349.612 229.958 349.721 230.435 349.937 230.842C350.154 231.241 350.444 231.548 350.808 231.765C351.172 231.973 351.575 232.077 352.017 232.077C352.459 232.077 352.862 231.973 353.226 231.765C353.599 231.548 353.894 231.241 354.11 230.842C354.327 230.435 354.435 229.962 354.435 229.425ZM366.198 225.746C366.752 225.746 367.246 225.863 367.68 226.097C368.113 226.322 368.455 226.665 368.707 227.124C368.958 227.583 369.084 228.142 369.084 228.801V233H367.914V228.97C367.914 228.259 367.736 227.718 367.381 227.345C367.034 226.964 366.562 226.773 365.964 226.773C365.348 226.773 364.859 226.972 364.495 227.371C364.131 227.761 363.949 228.329 363.949 229.074V233H362.779V228.97C362.779 228.259 362.601 227.718 362.246 227.345C361.899 226.964 361.427 226.773 360.829 226.773C360.213 226.773 359.724 226.972 359.36 227.371C358.996 227.761 358.814 228.329 358.814 229.074V233H357.631V225.876H358.814V226.903C359.048 226.53 359.36 226.244 359.75 226.045C360.148 225.846 360.586 225.746 361.063 225.746C361.661 225.746 362.189 225.88 362.649 226.149C363.108 226.418 363.45 226.812 363.676 227.332C363.875 226.829 364.204 226.439 364.664 226.162C365.123 225.885 365.634 225.746 366.198 225.746Z" fill="#475569"/>
<path d="M390.31 230.478C390.397 230.972 390.596 231.353 390.908 231.622C391.229 231.891 391.658 232.025 392.195 232.025C392.914 232.025 393.443 231.743 393.781 231.18C394.128 230.617 394.292 229.668 394.275 228.333C394.093 228.723 393.79 229.031 393.365 229.256C392.94 229.473 392.468 229.581 391.948 229.581C391.367 229.581 390.847 229.464 390.388 229.23C389.937 228.987 389.582 228.636 389.322 228.177C389.062 227.718 388.932 227.163 388.932 226.513C388.932 225.586 389.201 224.84 389.738 224.277C390.275 223.705 391.038 223.419 392.026 223.419C393.239 223.419 394.089 223.813 394.574 224.602C395.068 225.391 395.315 226.565 395.315 228.125C395.315 229.217 395.215 230.118 395.016 230.829C394.825 231.54 394.496 232.081 394.028 232.454C393.569 232.827 392.936 233.013 392.13 233.013C391.246 233.013 390.557 232.775 390.063 232.298C389.569 231.821 389.287 231.215 389.218 230.478H390.31ZM392.143 228.58C392.724 228.58 393.2 228.402 393.573 228.047C393.946 227.683 394.132 227.193 394.132 226.578C394.132 225.928 393.95 225.404 393.586 225.005C393.222 224.606 392.711 224.407 392.052 224.407C391.445 224.407 390.96 224.598 390.596 224.979C390.241 225.36 390.063 225.863 390.063 226.487C390.063 227.12 390.241 227.627 390.596 228.008C390.951 228.389 391.467 228.58 392.143 228.58ZM396.731 229.412C396.731 228.684 396.878 228.047 397.173 227.501C397.467 226.946 397.87 226.517 398.382 226.214C398.902 225.911 399.478 225.759 400.111 225.759C400.735 225.759 401.276 225.893 401.736 226.162C402.195 226.431 402.537 226.769 402.763 227.176V225.876H403.959V233H402.763V231.674C402.529 232.09 402.178 232.437 401.71 232.714C401.25 232.983 400.713 233.117 400.098 233.117C399.465 233.117 398.893 232.961 398.382 232.649C397.87 232.337 397.467 231.899 397.173 231.336C396.878 230.773 396.731 230.131 396.731 229.412ZM402.763 229.425C402.763 228.888 402.654 228.42 402.438 228.021C402.221 227.622 401.926 227.319 401.554 227.111C401.19 226.894 400.787 226.786 400.345 226.786C399.903 226.786 399.5 226.89 399.136 227.098C398.772 227.306 398.481 227.609 398.265 228.008C398.048 228.407 397.94 228.875 397.94 229.412C397.94 229.958 398.048 230.435 398.265 230.842C398.481 231.241 398.772 231.548 399.136 231.765C399.5 231.973 399.903 232.077 400.345 232.077C400.787 232.077 401.19 231.973 401.554 231.765C401.926 231.548 402.221 231.241 402.438 230.842C402.654 230.435 402.763 229.962 402.763 229.425ZM414.525 225.746C415.079 225.746 415.573 225.863 416.007 226.097C416.44 226.322 416.782 226.665 417.034 227.124C417.285 227.583 417.411 228.142 417.411 228.801V233H416.241V228.97C416.241 228.259 416.063 227.718 415.708 227.345C415.361 226.964 414.889 226.773 414.291 226.773C413.675 226.773 413.186 226.972 412.822 227.371C412.458 227.761 412.276 228.329 412.276 229.074V233H411.106V228.97C411.106 228.259 410.928 227.718 410.573 227.345C410.226 226.964 409.754 226.773 409.156 226.773C408.54 226.773 408.051 226.972 407.687 227.371C407.323 227.761 407.141 228.329 407.141 229.074V233H405.958V225.876H407.141V226.903C407.375 226.53 407.687 226.244 408.077 226.045C408.475 225.846 408.913 225.746 409.39 225.746C409.988 225.746 410.516 225.88 410.976 226.149C411.435 226.418 411.777 226.812 412.003 227.332C412.202 226.829 412.531 226.439 412.991 226.162C413.45 225.885 413.961 225.746 414.525 225.746Z" fill="#475569"/>
<path d="M436.741 224.68V223.601H439.185V233H437.989V224.68H436.741ZM441.217 228.203C441.217 226.712 441.46 225.551 441.945 224.719C442.43 223.878 443.28 223.458 444.493 223.458C445.698 223.458 446.543 223.878 447.028 224.719C447.513 225.551 447.756 226.712 447.756 228.203C447.756 229.72 447.513 230.898 447.028 231.739C446.543 232.58 445.698 233 444.493 233C443.28 233 442.43 232.58 441.945 231.739C441.46 230.898 441.217 229.72 441.217 228.203ZM446.586 228.203C446.586 227.449 446.534 226.812 446.43 226.292C446.335 225.763 446.131 225.339 445.819 225.018C445.516 224.697 445.074 224.537 444.493 224.537C443.904 224.537 443.453 224.697 443.141 225.018C442.838 225.339 442.634 225.763 442.53 226.292C442.435 226.812 442.387 227.449 442.387 228.203C442.387 228.983 442.435 229.637 442.53 230.166C442.634 230.695 442.838 231.119 443.141 231.44C443.453 231.761 443.904 231.921 444.493 231.921C445.074 231.921 445.516 231.761 445.819 231.44C446.131 231.119 446.335 230.695 446.43 230.166C446.534 229.637 446.586 228.983 446.586 228.203ZM449.133 229.412C449.133 228.684 449.281 228.047 449.575 227.501C449.87 226.946 450.273 226.517 450.784 226.214C451.304 225.911 451.881 225.759 452.513 225.759C453.137 225.759 453.679 225.893 454.138 226.162C454.598 226.431 454.94 226.769 455.165 227.176V225.876H456.361V233H455.165V231.674C454.931 232.09 454.58 232.437 454.112 232.714C453.653 232.983 453.116 233.117 452.5 233.117C451.868 233.117 451.296 232.961 450.784 232.649C450.273 232.337 449.87 231.899 449.575 231.336C449.281 230.773 449.133 230.131 449.133 229.412ZM455.165 229.425C455.165 228.888 455.057 228.42 454.84 228.021C454.624 227.622 454.329 227.319 453.956 227.111C453.592 226.894 453.189 226.786 452.747 226.786C452.305 226.786 451.902 226.89 451.538 227.098C451.174 227.306 450.884 227.609 450.667 228.008C450.451 228.407 450.342 228.875 450.342 229.412C450.342 229.958 450.451 230.435 450.667 230.842C450.884 231.241 451.174 231.548 451.538 231.765C451.902 231.973 452.305 232.077 452.747 232.077C453.189 232.077 453.592 231.973 453.956 231.765C454.329 231.548 454.624 231.241 454.84 230.842C455.057 230.435 455.165 229.962 455.165 229.425ZM466.927 225.746C467.482 225.746 467.976 225.863 468.409 226.097C468.843 226.322 469.185 226.665 469.436 227.124C469.688 227.583 469.813 228.142 469.813 228.801V233H468.643V228.97C468.643 228.259 468.466 227.718 468.11 227.345C467.764 226.964 467.291 226.773 466.693 226.773C466.078 226.773 465.588 226.972 465.224 227.371C464.86 227.761 464.678 228.329 464.678 229.074V233H463.508V228.97C463.508 228.259 463.331 227.718 462.975 227.345C462.629 226.964 462.156 226.773 461.558 226.773C460.943 226.773 460.453 226.972 460.089 227.371C459.725 227.761 459.543 228.329 459.543 229.074V233H458.36V225.876H459.543V226.903C459.777 226.53 460.089 226.244 460.479 226.045C460.878 225.846 461.316 225.746 461.792 225.746C462.39 225.746 462.919 225.88 463.378 226.149C463.838 226.418 464.18 226.812 464.405 227.332C464.605 226.829 464.934 226.439 465.393 226.162C465.853 225.885 466.364 225.746 466.927 225.746Z" fill="#475569"/>
<path d="M489.074 224.68V223.601H491.518V233H490.322V224.68H489.074ZM493.238 224.68V223.601H495.682V233H494.486V224.68H493.238ZM497.467 229.412C497.467 228.684 497.615 228.047 497.909 227.501C498.204 226.946 498.607 226.517 499.118 226.214C499.638 225.911 500.215 225.759 500.847 225.759C501.471 225.759 502.013 225.893 502.472 226.162C502.932 226.431 503.274 226.769 503.499 227.176V225.876H504.695V233H503.499V231.674C503.265 232.09 502.914 232.437 502.446 232.714C501.987 232.983 501.45 233.117 500.834 233.117C500.202 233.117 499.63 232.961 499.118 232.649C498.607 232.337 498.204 231.899 497.909 231.336C497.615 230.773 497.467 230.131 497.467 229.412ZM503.499 229.425C503.499 228.888 503.391 228.42 503.174 228.021C502.958 227.622 502.663 227.319 502.29 227.111C501.926 226.894 501.523 226.786 501.081 226.786C500.639 226.786 500.236 226.89 499.872 227.098C499.508 227.306 499.218 227.609 499.001 228.008C498.785 228.407 498.676 228.875 498.676 229.412C498.676 229.958 498.785 230.435 499.001 230.842C499.218 231.241 499.508 231.548 499.872 231.765C500.236 231.973 500.639 232.077 501.081 232.077C501.523 232.077 501.926 231.973 502.29 231.765C502.663 231.548 502.958 231.241 503.174 230.842C503.391 230.435 503.499 229.962 503.499 229.425ZM515.261 225.746C515.816 225.746 516.31 225.863 516.743 226.097C517.177 226.322 517.519 226.665 517.77 227.124C518.022 227.583 518.147 228.142 518.147 228.801V233H516.977V228.97C516.977 228.259 516.8 227.718 516.444 227.345C516.098 226.964 515.625 226.773 515.027 226.773C514.412 226.773 513.922 226.972 513.558 227.371C513.194 227.761 513.012 228.329 513.012 229.074V233H511.842V228.97C511.842 228.259 511.665 227.718 511.309 227.345C510.963 226.964 510.49 226.773 509.892 226.773C509.277 226.773 508.787 226.972 508.423 227.371C508.059 227.761 507.877 228.329 507.877 229.074V233H506.694V225.876H507.877V226.903C508.111 226.53 508.423 226.244 508.813 226.045C509.212 225.846 509.65 225.746 510.126 225.746C510.724 225.746 511.253 225.88 511.712 226.149C512.172 226.418 512.514 226.812 512.739 227.332C512.939 226.829 513.268 226.439 513.727 226.162C514.187 225.885 514.698 225.746 515.261 225.746Z" fill="#475569"/>
<path d="M537.251 224.68V223.601H539.695V233H538.499V224.68H537.251ZM541.584 232.051C542.684 231.167 543.547 230.443 544.171 229.88C544.795 229.308 545.319 228.714 545.744 228.099C546.177 227.475 546.394 226.864 546.394 226.266C546.394 225.703 546.255 225.261 545.978 224.94C545.709 224.611 545.271 224.446 544.665 224.446C544.075 224.446 543.616 224.632 543.287 225.005C542.966 225.369 542.793 225.859 542.767 226.474H541.623C541.657 225.503 541.952 224.754 542.507 224.225C543.061 223.696 543.776 223.432 544.652 223.432C545.544 223.432 546.251 223.679 546.771 224.173C547.299 224.667 547.564 225.347 547.564 226.214C547.564 226.933 547.347 227.635 546.914 228.32C546.489 228.996 546.004 229.594 545.458 230.114C544.912 230.625 544.214 231.223 543.365 231.908H547.837V232.896H541.584V232.051ZM550.582 227.189C550.816 226.782 551.163 226.444 551.622 226.175C552.09 225.898 552.632 225.759 553.247 225.759C553.88 225.759 554.452 225.911 554.963 226.214C555.483 226.517 555.891 226.946 556.185 227.501C556.48 228.047 556.627 228.684 556.627 229.412C556.627 230.131 556.48 230.773 556.185 231.336C555.891 231.899 555.483 232.337 554.963 232.649C554.452 232.961 553.88 233.117 553.247 233.117C552.641 233.117 552.103 232.983 551.635 232.714C551.176 232.437 550.825 232.094 550.582 231.687V236.38H549.399V225.876H550.582V227.189ZM555.418 229.412C555.418 228.875 555.31 228.407 555.093 228.008C554.877 227.609 554.582 227.306 554.209 227.098C553.845 226.89 553.442 226.786 553 226.786C552.567 226.786 552.164 226.894 551.791 227.111C551.427 227.319 551.133 227.627 550.907 228.034C550.691 228.433 550.582 228.896 550.582 229.425C550.582 229.962 550.691 230.435 550.907 230.842C551.133 231.241 551.427 231.548 551.791 231.765C552.164 231.973 552.567 232.077 553 232.077C553.442 232.077 553.845 231.973 554.209 231.765C554.582 231.548 554.877 231.241 555.093 230.842C555.31 230.435 555.418 229.958 555.418 229.412ZM566.751 225.746C567.306 225.746 567.8 225.863 568.233 226.097C568.667 226.322 569.009 226.665 569.26 227.124C569.512 227.583 569.637 228.142 569.637 228.801V233H568.467V228.97C568.467 228.259 568.29 227.718 567.934 227.345C567.588 226.964 567.115 226.773 566.517 226.773C565.902 226.773 565.412 226.972 565.048 227.371C564.684 227.761 564.502 228.329 564.502 229.074V233H563.332V228.97C563.332 228.259 563.155 227.718 562.799 227.345C562.453 226.964 561.98 226.773 561.382 226.773C560.767 226.773 560.277 226.972 559.913 227.371C559.549 227.761 559.367 228.329 559.367 229.074V233H558.184V225.876H559.367V226.903C559.601 226.53 559.913 226.244 560.303 226.045C560.702 225.846 561.14 225.746 561.616 225.746C562.214 225.746 562.743 225.88 563.202 226.149C563.662 226.418 564.004 226.812 564.229 227.332C564.429 226.829 564.758 226.439 565.217 226.162C565.677 225.885 566.188 225.746 566.751 225.746Z" fill="#475569"/>
<path d="M588.823 224.68V223.601H591.267V233H590.071V224.68H588.823ZM594.677 227.189C594.911 226.782 595.257 226.444 595.717 226.175C596.185 225.898 596.726 225.759 597.342 225.759C597.974 225.759 598.546 225.911 599.058 226.214C599.578 226.517 599.985 226.946 600.28 227.501C600.574 228.047 600.722 228.684 600.722 229.412C600.722 230.131 600.574 230.773 600.28 231.336C599.985 231.899 599.578 232.337 599.058 232.649C598.546 232.961 597.974 233.117 597.342 233.117C596.735 233.117 596.198 232.983 595.73 232.714C595.27 232.437 594.919 232.094 594.677 231.687V236.38H593.494V225.876H594.677V227.189ZM599.513 229.412C599.513 228.875 599.404 228.407 599.188 228.008C598.971 227.609 598.676 227.306 598.304 227.098C597.94 226.89 597.537 226.786 597.095 226.786C596.661 226.786 596.258 226.894 595.886 227.111C595.522 227.319 595.227 227.627 595.002 228.034C594.785 228.433 594.677 228.896 594.677 229.425C594.677 229.962 594.785 230.435 595.002 230.842C595.227 231.241 595.522 231.548 595.886 231.765C596.258 231.973 596.661 232.077 597.095 232.077C597.537 232.077 597.94 231.973 598.304 231.765C598.676 231.548 598.971 231.241 599.188 230.842C599.404 230.435 599.513 229.958 599.513 229.412ZM610.846 225.746C611.4 225.746 611.894 225.863 612.328 226.097C612.761 226.322 613.103 226.665 613.355 227.124C613.606 227.583 613.732 228.142 613.732 228.801V233H612.562V228.97C612.562 228.259 612.384 227.718 612.029 227.345C611.682 226.964 611.21 226.773 610.612 226.773C609.996 226.773 609.507 226.972 609.143 227.371C608.779 227.761 608.597 228.329 608.597 229.074V233H607.427V228.97C607.427 228.259 607.249 227.718 606.894 227.345C606.547 226.964 606.075 226.773 605.477 226.773C604.861 226.773 604.372 226.972 604.008 227.371C603.644 227.761 603.462 228.329 603.462 229.074V233H602.279V225.876H603.462V226.903C603.696 226.53 604.008 226.244 604.398 226.045C604.796 225.846 605.234 225.746 605.711 225.746C606.309 225.746 606.837 225.88 607.297 226.149C607.756 226.418 608.098 226.812 608.324 227.332C608.523 226.829 608.852 226.439 609.312 226.162C609.771 225.885 610.282 225.746 610.846 225.746Z" fill="#475569"/>
<path d="M633.168 232.051C634.269 231.167 635.131 230.443 635.755 229.88C636.379 229.308 636.903 228.714 637.328 228.099C637.761 227.475 637.978 226.864 637.978 226.266C637.978 225.703 637.839 225.261 637.562 224.94C637.293 224.611 636.856 224.446 636.249 224.446C635.66 224.446 635.2 224.632 634.871 225.005C634.55 225.369 634.377 225.859 634.351 226.474H633.207C633.242 225.503 633.536 224.754 634.091 224.225C634.646 223.696 635.361 223.432 636.236 223.432C637.129 223.432 637.835 223.679 638.355 224.173C638.884 224.667 639.148 225.347 639.148 226.214C639.148 226.933 638.931 227.635 638.498 228.32C638.073 228.996 637.588 229.594 637.042 230.114C636.496 230.625 635.798 231.223 634.949 231.908H639.421V232.896H633.168V232.051ZM642.167 227.189C642.401 226.782 642.747 226.444 643.207 226.175C643.675 225.898 644.216 225.759 644.832 225.759C645.464 225.759 646.036 225.911 646.548 226.214C647.068 226.517 647.475 226.946 647.77 227.501C648.064 228.047 648.212 228.684 648.212 229.412C648.212 230.131 648.064 230.773 647.77 231.336C647.475 231.899 647.068 232.337 646.548 232.649C646.036 232.961 645.464 233.117 644.832 233.117C644.225 233.117 643.688 232.983 643.22 232.714C642.76 232.437 642.409 232.094 642.167 231.687V236.38H640.984V225.876H642.167V227.189ZM647.003 229.412C647.003 228.875 646.894 228.407 646.678 228.008C646.461 227.609 646.166 227.306 645.794 227.098C645.43 226.89 645.027 226.786 644.585 226.786C644.151 226.786 643.748 226.894 643.376 227.111C643.012 227.319 642.717 227.627 642.492 228.034C642.275 228.433 642.167 228.896 642.167 229.425C642.167 229.962 642.275 230.435 642.492 230.842C642.717 231.241 643.012 231.548 643.376 231.765C643.748 231.973 644.151 232.077 644.585 232.077C645.027 232.077 645.43 231.973 645.794 231.765C646.166 231.548 646.461 231.241 646.678 230.842C646.894 230.435 647.003 229.958 647.003 229.412ZM658.336 225.746C658.89 225.746 659.384 225.863 659.818 226.097C660.251 226.322 660.593 226.665 660.845 227.124C661.096 227.583 661.222 228.142 661.222 228.801V233H660.052V228.97C660.052 228.259 659.874 227.718 659.519 227.345C659.172 226.964 658.7 226.773 658.102 226.773C657.486 226.773 656.997 226.972 656.633 227.371C656.269 227.761 656.087 228.329 656.087 229.074V233H654.917V228.97C654.917 228.259 654.739 227.718 654.384 227.345C654.037 226.964 653.565 226.773 652.967 226.773C652.351 226.773 651.862 226.972 651.498 227.371C651.134 227.761 650.952 228.329 650.952 229.074V233H649.769V225.876H650.952V226.903C651.186 226.53 651.498 226.244 651.888 226.045C652.286 225.846 652.724 225.746 653.201 225.746C653.799 225.746 654.327 225.88 654.787 226.149C655.246 226.418 655.588 226.812 655.814 227.332C656.013 226.829 656.342 226.439 656.802 226.162C657.261 225.885 657.772 225.746 658.336 225.746Z" fill="#475569"/>
<path d="M680.53 225.967C680.59 225.17 680.898 224.546 681.453 224.095C682.007 223.644 682.727 223.419 683.611 223.419C684.2 223.419 684.707 223.527 685.132 223.744C685.565 223.952 685.89 224.238 686.107 224.602C686.332 224.966 686.445 225.378 686.445 225.837C686.445 226.374 686.289 226.838 685.977 227.228C685.673 227.618 685.275 227.869 684.781 227.982V228.047C685.344 228.186 685.79 228.459 686.12 228.866C686.449 229.273 686.614 229.806 686.614 230.465C686.614 230.959 686.501 231.405 686.276 231.804C686.05 232.194 685.712 232.502 685.262 232.727C684.811 232.952 684.269 233.065 683.637 233.065C682.718 233.065 681.964 232.827 681.375 232.35C680.785 231.865 680.456 231.18 680.387 230.296H681.531C681.591 230.816 681.804 231.241 682.168 231.57C682.532 231.899 683.017 232.064 683.624 232.064C684.23 232.064 684.69 231.908 685.002 231.596C685.322 231.275 685.483 230.864 685.483 230.361C685.483 229.711 685.266 229.243 684.833 228.957C684.399 228.671 683.745 228.528 682.87 228.528H682.571V227.54H682.883C683.68 227.531 684.282 227.401 684.69 227.15C685.097 226.89 685.301 226.491 685.301 225.954C685.301 225.495 685.149 225.126 684.846 224.849C684.551 224.572 684.126 224.433 683.572 224.433C683.034 224.433 682.601 224.572 682.272 224.849C681.942 225.126 681.747 225.499 681.687 225.967H680.53ZM689.589 227.189C689.823 226.782 690.169 226.444 690.629 226.175C691.097 225.898 691.638 225.759 692.254 225.759C692.886 225.759 693.458 225.911 693.97 226.214C694.49 226.517 694.897 226.946 695.192 227.501C695.486 228.047 695.634 228.684 695.634 229.412C695.634 230.131 695.486 230.773 695.192 231.336C694.897 231.899 694.49 232.337 693.97 232.649C693.458 232.961 692.886 233.117 692.254 233.117C691.647 233.117 691.11 232.983 690.642 232.714C690.182 232.437 689.831 232.094 689.589 231.687V236.38H688.406V225.876H689.589V227.189ZM694.425 229.412C694.425 228.875 694.316 228.407 694.1 228.008C693.883 227.609 693.588 227.306 693.216 227.098C692.852 226.89 692.449 226.786 692.007 226.786C691.573 226.786 691.17 226.894 690.798 227.111C690.434 227.319 690.139 227.627 689.914 228.034C689.697 228.433 689.589 228.896 689.589 229.425C689.589 229.962 689.697 230.435 689.914 230.842C690.139 231.241 690.434 231.548 690.798 231.765C691.17 231.973 691.573 232.077 692.007 232.077C692.449 232.077 692.852 231.973 693.216 231.765C693.588 231.548 693.883 231.241 694.1 230.842C694.316 230.435 694.425 229.958 694.425 229.412ZM705.758 225.746C706.313 225.746 706.807 225.863 707.24 226.097C707.673 226.322 708.016 226.665 708.267 227.124C708.518 227.583 708.644 228.142 708.644 228.801V233H707.474V228.97C707.474 228.259 707.296 227.718 706.941 227.345C706.594 226.964 706.122 226.773 705.524 226.773C704.909 226.773 704.419 226.972 704.055 227.371C703.691 227.761 703.509 228.329 703.509 229.074V233H702.339V228.97C702.339 228.259 702.161 227.718 701.806 227.345C701.459 226.964 700.987 226.773 700.389 226.773C699.774 226.773 699.284 226.972 698.92 227.371C698.556 227.761 698.374 228.329 698.374 229.074V233H697.191V225.876H698.374V226.903C698.608 226.53 698.92 226.244 699.31 226.045C699.709 225.846 700.146 225.746 700.623 225.746C701.221 225.746 701.75 225.88 702.209 226.149C702.668 226.418 703.011 226.812 703.236 227.332C703.435 226.829 703.765 226.439 704.224 226.162C704.683 225.885 705.195 225.746 705.758 225.746Z" fill="#475569"/>
<path d="M727.843 230.907V230.01L732.406 223.692H733.823V229.88H735.123V230.907H733.823V233H732.653V230.907H727.843ZM732.705 224.927L729.208 229.88H732.705V224.927ZM737.683 227.189C737.917 226.782 738.263 226.444 738.723 226.175C739.191 225.898 739.732 225.759 740.348 225.759C740.98 225.759 741.552 225.911 742.064 226.214C742.584 226.517 742.991 226.946 743.286 227.501C743.58 228.047 743.728 228.684 743.728 229.412C743.728 230.131 743.58 230.773 743.286 231.336C742.991 231.899 742.584 232.337 742.064 232.649C741.552 232.961 740.98 233.117 740.348 233.117C739.741 233.117 739.204 232.983 738.736 232.714C738.276 232.437 737.925 232.094 737.683 231.687V236.38H736.5V225.876H737.683V227.189ZM742.519 229.412C742.519 228.875 742.41 228.407 742.194 228.008C741.977 227.609 741.682 227.306 741.31 227.098C740.946 226.89 740.543 226.786 740.101 226.786C739.667 226.786 739.264 226.894 738.892 227.111C738.528 227.319 738.233 227.627 738.008 228.034C737.791 228.433 737.683 228.896 737.683 229.425C737.683 229.962 737.791 230.435 738.008 230.842C738.233 231.241 738.528 231.548 738.892 231.765C739.264 231.973 739.667 232.077 740.101 232.077C740.543 232.077 740.946 231.973 741.31 231.765C741.682 231.548 741.977 231.241 742.194 230.842C742.41 230.435 742.519 229.958 742.519 229.412ZM753.852 225.746C754.406 225.746 754.9 225.863 755.334 226.097C755.767 226.322 756.109 226.665 756.361 227.124C756.612 227.583 756.738 228.142 756.738 228.801V233H755.568V228.97C755.568 228.259 755.39 227.718 755.035 227.345C754.688 226.964 754.216 226.773 753.618 226.773C753.002 226.773 752.513 226.972 752.149 227.371C751.785 227.761 751.603 228.329 751.603 229.074V233H750.433V228.97C750.433 228.259 750.255 227.718 749.9 227.345C749.553 226.964 749.081 226.773 748.483 226.773C747.867 226.773 747.378 226.972 747.014 227.371C746.65 227.761 746.468 228.329 746.468 229.074V233H745.285V225.876H746.468V226.903C746.702 226.53 747.014 226.244 747.404 226.045C747.802 225.846 748.24 225.746 748.717 225.746C749.315 225.746 749.843 225.88 750.303 226.149C750.762 226.418 751.104 226.812 751.33 227.332C751.529 226.829 751.858 226.439 752.318 226.162C752.777 225.885 753.288 225.746 753.852 225.746Z" fill="#475569"/>
<path d="M782.461 224.628H777.898V227.592C778.098 227.315 778.392 227.089 778.782 226.916C779.172 226.734 779.593 226.643 780.043 226.643C780.763 226.643 781.348 226.795 781.798 227.098C782.249 227.393 782.57 227.778 782.76 228.255C782.96 228.723 783.059 229.221 783.059 229.75C783.059 230.374 782.942 230.933 782.708 231.427C782.474 231.921 782.115 232.311 781.629 232.597C781.153 232.883 780.559 233.026 779.848 233.026C778.938 233.026 778.202 232.792 777.638 232.324C777.075 231.856 776.733 231.232 776.611 230.452H777.768C777.881 230.946 778.119 231.332 778.483 231.609C778.847 231.886 779.307 232.025 779.861 232.025C780.546 232.025 781.062 231.821 781.408 231.414C781.755 230.998 781.928 230.452 781.928 229.776C781.928 229.1 781.755 228.58 781.408 228.216C781.062 227.843 780.55 227.657 779.874 227.657C779.415 227.657 779.012 227.77 778.665 227.995C778.327 228.212 778.08 228.511 777.924 228.892H776.806V223.588H782.461V224.628ZM786.009 227.189C786.243 226.782 786.59 226.444 787.049 226.175C787.517 225.898 788.059 225.759 788.674 225.759C789.307 225.759 789.879 225.911 790.39 226.214C790.91 226.517 791.318 226.946 791.612 227.501C791.907 228.047 792.054 228.684 792.054 229.412C792.054 230.131 791.907 230.773 791.612 231.336C791.318 231.899 790.91 232.337 790.39 232.649C789.879 232.961 789.307 233.117 788.674 233.117C788.068 233.117 787.53 232.983 787.062 232.714C786.603 232.437 786.252 232.094 786.009 231.687V236.38H784.826V225.876H786.009V227.189ZM790.845 229.412C790.845 228.875 790.737 228.407 790.52 228.008C790.304 227.609 790.009 227.306 789.636 227.098C789.272 226.89 788.869 226.786 788.427 226.786C787.994 226.786 787.591 226.894 787.218 227.111C786.854 227.319 786.56 227.627 786.334 228.034C786.118 228.433 786.009 228.896 786.009 229.425C786.009 229.962 786.118 230.435 786.334 230.842C786.56 231.241 786.854 231.548 787.218 231.765C787.591 231.973 787.994 232.077 788.427 232.077C788.869 232.077 789.272 231.973 789.636 231.765C790.009 231.548 790.304 231.241 790.52 230.842C790.737 230.435 790.845 229.958 790.845 229.412ZM802.179 225.746C802.733 225.746 803.227 225.863 803.661 226.097C804.094 226.322 804.436 226.665 804.688 227.124C804.939 227.583 805.065 228.142 805.065 228.801V233H803.895V228.97C803.895 228.259 803.717 227.718 803.362 227.345C803.015 226.964 802.543 226.773 801.945 226.773C801.329 226.773 800.84 226.972 800.476 227.371C800.112 227.761 799.93 228.329 799.93 229.074V233H798.76V228.97C798.76 228.259 798.582 227.718 798.227 227.345C797.88 226.964 797.408 226.773 796.81 226.773C796.194 226.773 795.705 226.972 795.341 227.371C794.977 227.761 794.795 228.329 794.795 229.074V233H793.612V225.876H794.795V226.903C795.029 226.53 795.341 226.244 795.731 226.045C796.129 225.846 796.567 225.746 797.044 225.746C797.642 225.746 798.17 225.88 798.63 226.149C799.089 226.418 799.431 226.812 799.657 227.332C799.856 226.829 800.185 226.439 800.645 226.162C801.104 225.885 801.615 225.746 802.179 225.746Z" fill="#475569"/>
<path d="M829.996 225.837C829.806 224.875 829.212 224.394 828.215 224.394C827.444 224.394 826.868 224.693 826.486 225.291C826.105 225.88 825.919 226.855 825.927 228.216C826.127 227.765 826.456 227.414 826.915 227.163C827.383 226.903 827.903 226.773 828.475 226.773C829.368 226.773 830.079 227.05 830.607 227.605C831.145 228.16 831.413 228.927 831.413 229.906C831.413 230.495 831.296 231.024 831.062 231.492C830.837 231.96 830.49 232.333 830.022 232.61C829.563 232.887 829.004 233.026 828.345 233.026C827.453 233.026 826.755 232.827 826.252 232.428C825.75 232.029 825.399 231.479 825.199 230.777C825 230.075 824.9 229.208 824.9 228.177C824.9 224.996 826.01 223.406 828.228 223.406C829.078 223.406 829.745 223.636 830.23 224.095C830.716 224.554 831.002 225.135 831.088 225.837H829.996ZM828.228 227.774C827.856 227.774 827.505 227.852 827.175 228.008C826.846 228.155 826.577 228.385 826.369 228.697C826.17 229 826.07 229.373 826.07 229.815C826.07 230.474 826.261 231.011 826.642 231.427C827.024 231.834 827.57 232.038 828.28 232.038C828.887 232.038 829.368 231.852 829.723 231.479C830.087 231.098 830.269 230.586 830.269 229.945C830.269 229.269 830.096 228.74 829.749 228.359C829.403 227.969 828.896 227.774 828.228 227.774ZM834.387 227.189C834.621 226.782 834.968 226.444 835.427 226.175C835.895 225.898 836.437 225.759 837.052 225.759C837.685 225.759 838.257 225.911 838.768 226.214C839.288 226.517 839.695 226.946 839.99 227.501C840.285 228.047 840.432 228.684 840.432 229.412C840.432 230.131 840.285 230.773 839.99 231.336C839.695 231.899 839.288 232.337 838.768 232.649C838.257 232.961 837.685 233.117 837.052 233.117C836.445 233.117 835.908 232.983 835.44 232.714C834.981 232.437 834.63 232.094 834.387 231.687V236.38H833.204V225.876H834.387V227.189ZM839.223 229.412C839.223 228.875 839.115 228.407 838.898 228.008C838.681 227.609 838.387 227.306 838.014 227.098C837.65 226.89 837.247 226.786 836.805 226.786C836.372 226.786 835.969 226.894 835.596 227.111C835.232 227.319 834.937 227.627 834.712 228.034C834.495 228.433 834.387 228.896 834.387 229.425C834.387 229.962 834.495 230.435 834.712 230.842C834.937 231.241 835.232 231.548 835.596 231.765C835.969 231.973 836.372 232.077 836.805 232.077C837.247 232.077 837.65 231.973 838.014 231.765C838.387 231.548 838.681 231.241 838.898 230.842C839.115 230.435 839.223 229.958 839.223 229.412ZM850.556 225.746C851.111 225.746 851.605 225.863 852.038 226.097C852.472 226.322 852.814 226.665 853.065 227.124C853.317 227.583 853.442 228.142 853.442 228.801V233H852.272V228.97C852.272 228.259 852.095 227.718 851.739 227.345C851.393 226.964 850.92 226.773 850.322 226.773C849.707 226.773 849.217 226.972 848.853 227.371C848.489 227.761 848.307 228.329 848.307 229.074V233H847.137V228.97C847.137 228.259 846.96 227.718 846.604 227.345C846.258 226.964 845.785 226.773 845.187 226.773C844.572 226.773 844.082 226.972 843.718 227.371C843.354 227.761 843.172 228.329 843.172 229.074V233H841.989V225.876H843.172V226.903C843.406 226.53 843.718 226.244 844.108 226.045C844.507 225.846 844.945 225.746 845.421 225.746C846.019 225.746 846.548 225.88 847.007 226.149C847.467 226.418 847.809 226.812 848.034 227.332C848.234 226.829 848.563 226.439 849.022 226.162C849.482 225.885 849.993 225.746 850.556 225.746Z" fill="#475569"/>
<path d="M878.953 224.524L875.339 233H874.143L877.809 224.641H872.791V223.627H878.953V224.524ZM881.643 227.189C881.877 226.782 882.224 226.444 882.683 226.175C883.151 225.898 883.693 225.759 884.308 225.759C884.941 225.759 885.513 225.911 886.024 226.214C886.544 226.517 886.951 226.946 887.246 227.501C887.541 228.047 887.688 228.684 887.688 229.412C887.688 230.131 887.541 230.773 887.246 231.336C886.951 231.899 886.544 232.337 886.024 232.649C885.513 232.961 884.941 233.117 884.308 233.117C883.701 233.117 883.164 232.983 882.696 232.714C882.237 232.437 881.886 232.094 881.643 231.687V236.38H880.46V225.876H881.643V227.189ZM886.479 229.412C886.479 228.875 886.371 228.407 886.154 228.008C885.937 227.609 885.643 227.306 885.27 227.098C884.906 226.89 884.503 226.786 884.061 226.786C883.628 226.786 883.225 226.894 882.852 227.111C882.488 227.319 882.193 227.627 881.968 228.034C881.751 228.433 881.643 228.896 881.643 229.425C881.643 229.962 881.751 230.435 881.968 230.842C882.193 231.241 882.488 231.548 882.852 231.765C883.225 231.973 883.628 232.077 884.061 232.077C884.503 232.077 884.906 231.973 885.27 231.765C885.643 231.548 885.937 231.241 886.154 230.842C886.371 230.435 886.479 229.958 886.479 229.412ZM897.812 225.746C898.367 225.746 898.861 225.863 899.294 226.097C899.727 226.322 900.07 226.665 900.321 227.124C900.572 227.583 900.698 228.142 900.698 228.801V233H899.528V228.97C899.528 228.259 899.35 227.718 898.995 227.345C898.648 226.964 898.176 226.773 897.578 226.773C896.963 226.773 896.473 226.972 896.109 227.371C895.745 227.761 895.563 228.329 895.563 229.074V233H894.393V228.97C894.393 228.259 894.215 227.718 893.86 227.345C893.513 226.964 893.041 226.773 892.443 226.773C891.828 226.773 891.338 226.972 890.974 227.371C890.61 227.761 890.428 228.329 890.428 229.074V233H889.245V225.876H890.428V226.903C890.662 226.53 890.974 226.244 891.364 226.045C891.763 225.846 892.2 225.746 892.677 225.746C893.275 225.746 893.804 225.88 894.263 226.149C894.722 226.418 895.065 226.812 895.29 227.332C895.489 226.829 895.819 226.439 896.278 226.162C896.737 225.885 897.249 225.746 897.812 225.746Z" fill="#475569"/>
<g filter="url(#filter0_d_335_671)">
<rect x="251" y="60" width="144.222" height="65" rx="8" fill="white" shape-rendering="crispEdges"/>
<path d="M264.682 77.941C264.682 76.6797 264.887 75.697 265.298 74.993C265.709 74.2817 266.427 73.926 267.454 73.926C268.473 73.926 269.188 74.2817 269.599 74.993C270.01 75.697 270.215 76.6797 270.215 77.941C270.215 79.2243 270.01 80.2217 269.599 80.933C269.188 81.6443 268.473 82 267.454 82C266.427 82 265.709 81.6443 265.298 80.933C264.887 80.2217 264.682 79.2243 264.682 77.941ZM269.225 77.941C269.225 77.303 269.181 76.764 269.093 76.324C269.012 75.8767 268.84 75.5173 268.576 75.246C268.319 74.9747 267.945 74.839 267.454 74.839C266.955 74.839 266.574 74.9747 266.31 75.246C266.053 75.5173 265.881 75.8767 265.793 76.324C265.712 76.764 265.672 77.303 265.672 77.941C265.672 78.601 265.712 79.1547 265.793 79.602C265.881 80.0493 266.053 80.4087 266.31 80.68C266.574 80.9513 266.955 81.087 267.454 81.087C267.945 81.087 268.319 80.9513 268.576 80.68C268.84 80.4087 269.012 80.0493 269.093 79.602C269.181 79.1547 269.225 78.601 269.225 77.941ZM271.347 80.229V79.47L275.208 74.124H276.407V79.36H277.507V80.229H276.407V82H275.417V80.229H271.347ZM275.461 75.169L272.502 79.36H275.461V75.169ZM286.137 80.295H282.793L282.177 82H281.121L283.893 74.377H285.048L287.809 82H286.753L286.137 80.295ZM285.851 79.481L284.465 75.609L283.079 79.481H285.851ZM290.018 77.083C290.216 76.7383 290.509 76.4523 290.898 76.225C291.294 75.9903 291.752 75.873 292.273 75.873C292.808 75.873 293.292 76.0013 293.725 76.258C294.165 76.5147 294.51 76.8777 294.759 77.347C295.008 77.809 295.133 78.348 295.133 78.964C295.133 79.5727 295.008 80.1153 294.759 80.592C294.51 81.0687 294.165 81.439 293.725 81.703C293.292 81.967 292.808 82.099 292.273 82.099C291.76 82.099 291.305 81.9853 290.909 81.758C290.52 81.5233 290.223 81.2337 290.018 80.889V84.86H289.017V75.972H290.018V77.083ZM294.11 78.964C294.11 78.5093 294.018 78.1133 293.835 77.776C293.652 77.4387 293.402 77.182 293.087 77.006C292.779 76.83 292.438 76.742 292.064 76.742C291.697 76.742 291.356 76.8337 291.041 77.017C290.733 77.193 290.484 77.4533 290.293 77.798C290.11 78.1353 290.018 78.5277 290.018 78.975C290.018 79.4297 290.11 79.8293 290.293 80.174C290.484 80.5113 290.733 80.7717 291.041 80.955C291.356 81.131 291.697 81.219 292.064 81.219C292.438 81.219 292.779 81.131 293.087 80.955C293.402 80.7717 293.652 80.5113 293.835 80.174C294.018 79.8293 294.11 79.426 294.11 78.964ZM297.452 76.951C297.628 76.6063 297.877 76.3387 298.2 76.148C298.53 75.9573 298.929 75.862 299.399 75.862V76.896H299.135C298.013 76.896 297.452 77.5047 297.452 78.722V82H296.451V75.972H297.452V76.951ZM301.071 74.993C300.88 74.993 300.719 74.927 300.587 74.795C300.455 74.663 300.389 74.5017 300.389 74.311C300.389 74.1203 300.455 73.959 300.587 73.827C300.719 73.695 300.88 73.629 301.071 73.629C301.254 73.629 301.408 73.695 301.533 73.827C301.665 73.959 301.731 74.1203 301.731 74.311C301.731 74.5017 301.665 74.663 301.533 74.795C301.408 74.927 301.254 74.993 301.071 74.993ZM301.555 75.972V82H300.554V75.972H301.555ZM304.262 73.86V82H303.261V73.86H304.262ZM307.002 80.614L305.77 83.573H305.099L305.902 80.614H307.002ZM310.795 81.197C311.727 80.449 312.456 79.8367 312.984 79.36C313.512 78.876 313.956 78.3737 314.315 77.853C314.682 77.325 314.865 76.808 314.865 76.302C314.865 75.8253 314.748 75.4513 314.513 75.18C314.286 74.9013 313.916 74.762 313.402 74.762C312.904 74.762 312.515 74.9197 312.236 75.235C311.965 75.543 311.818 75.9573 311.796 76.478H310.828C310.858 75.6567 311.107 75.0223 311.576 74.575C312.046 74.1277 312.651 73.904 313.391 73.904C314.147 73.904 314.744 74.113 315.184 74.531C315.632 74.949 315.855 75.5247 315.855 76.258C315.855 76.8667 315.672 77.4607 315.305 78.04C314.946 78.612 314.535 79.118 314.073 79.558C313.611 79.9907 313.021 80.4967 312.302 81.076H316.086V81.912H310.795V81.197ZM317.244 77.941C317.244 76.6797 317.449 75.697 317.86 74.993C318.27 74.2817 318.989 73.926 320.016 73.926C321.035 73.926 321.75 74.2817 322.161 74.993C322.571 75.697 322.777 76.6797 322.777 77.941C322.777 79.2243 322.571 80.2217 322.161 80.933C321.75 81.6443 321.035 82 320.016 82C318.989 82 318.27 81.6443 317.86 80.933C317.449 80.2217 317.244 79.2243 317.244 77.941ZM321.787 77.941C321.787 77.303 321.743 76.764 321.655 76.324C321.574 75.8767 321.402 75.5173 321.138 75.246C320.881 74.9747 320.507 74.839 320.016 74.839C319.517 74.839 319.136 74.9747 318.872 75.246C318.615 75.5173 318.443 75.8767 318.355 76.324C318.274 76.764 318.234 77.303 318.234 77.941C318.234 78.601 318.274 79.1547 318.355 79.602C318.443 80.0493 318.615 80.4087 318.872 80.68C319.136 80.9513 319.517 81.087 320.016 81.087C320.507 81.087 320.881 80.9513 321.138 80.68C321.402 80.4087 321.574 80.0493 321.655 79.602C321.743 79.1547 321.787 78.601 321.787 77.941ZM324.03 81.197C324.961 80.449 325.691 79.8367 326.219 79.36C326.747 78.876 327.19 78.3737 327.55 77.853C327.916 77.325 328.1 76.808 328.1 76.302C328.1 75.8253 327.982 75.4513 327.748 75.18C327.52 74.9013 327.15 74.762 326.637 74.762C326.138 74.762 325.749 74.9197 325.471 75.235C325.199 75.543 325.053 75.9573 325.031 76.478H324.063C324.092 75.6567 324.341 75.0223 324.811 74.575C325.28 74.1277 325.885 73.904 326.626 73.904C327.381 73.904 327.979 74.113 328.419 74.531C328.866 74.949 329.09 75.5247 329.09 76.258C329.09 76.8667 328.906 77.4607 328.54 78.04C328.18 78.612 327.77 79.118 327.308 79.558C326.846 79.9907 326.255 80.4967 325.537 81.076H329.321V81.912H324.03V81.197ZM330.236 80.229V79.47L334.097 74.124H335.296V79.36H336.396V80.229H335.296V82H334.306V80.229H330.236ZM334.35 75.169L331.391 79.36H334.35V75.169Z" fill="#475569"/>
<path d="M264.576 99.4V97.336H268.432V109H266.128V99.4H264.576ZM273.349 106.648L271.477 111.144H270.037L271.077 106.648H273.349ZM275.411 106.472C276.435 105.619 277.251 104.909 277.859 104.344C278.467 103.768 278.974 103.171 279.379 102.552C279.785 101.933 279.987 101.325 279.987 100.728C279.987 100.184 279.859 99.7573 279.603 99.448C279.347 99.1387 278.953 98.984 278.419 98.984C277.886 98.984 277.475 99.1653 277.187 99.528C276.899 99.88 276.75 100.365 276.739 100.984H274.563C274.606 99.704 274.985 98.7333 275.699 98.072C276.425 97.4107 277.342 97.08 278.451 97.08C279.667 97.08 280.601 97.4053 281.251 98.056C281.902 98.696 282.227 99.544 282.227 100.6C282.227 101.432 282.003 102.227 281.555 102.984C281.107 103.741 280.595 104.403 280.019 104.968C279.443 105.523 278.691 106.195 277.763 106.984H282.483V108.84H274.579V107.176L275.411 106.472ZM283.623 99.4V97.336H287.479V109H285.175V99.4H283.623ZM289.42 99.4V97.336H293.276V109H290.972V99.4H289.42ZM296.737 109.112C296.331 109.112 295.995 108.989 295.729 108.744C295.473 108.488 295.345 108.173 295.345 107.8C295.345 107.427 295.473 107.117 295.729 106.872C295.995 106.616 296.331 106.488 296.737 106.488C297.131 106.488 297.457 106.616 297.713 106.872C297.969 107.117 298.097 107.427 298.097 107.8C298.097 108.173 297.969 108.488 297.713 108.744C297.457 108.989 297.131 109.112 296.737 109.112ZM301.597 102.824C300.53 102.269 299.997 101.411 299.997 100.248C299.997 99.672 300.141 99.1493 300.429 98.68C300.728 98.2 301.17 97.8213 301.757 97.544C302.354 97.256 303.08 97.112 303.933 97.112C304.786 97.112 305.506 97.256 306.093 97.544C306.69 97.8213 307.133 98.2 307.421 98.68C307.72 99.1493 307.869 99.672 307.869 100.248C307.869 100.835 307.725 101.352 307.437 101.8C307.149 102.237 306.765 102.579 306.285 102.824C306.872 103.08 307.33 103.453 307.661 103.944C307.992 104.435 308.157 105.016 308.157 105.688C308.157 106.413 307.97 107.048 307.597 107.592C307.234 108.125 306.733 108.536 306.093 108.824C305.453 109.112 304.733 109.256 303.933 109.256C303.133 109.256 302.413 109.112 301.773 108.824C301.144 108.536 300.642 108.125 300.269 107.592C299.906 107.048 299.725 106.413 299.725 105.688C299.725 105.016 299.89 104.435 300.221 103.944C300.552 103.443 301.01 103.069 301.597 102.824ZM305.693 100.568C305.693 100.045 305.533 99.64 305.213 99.352C304.904 99.064 304.477 98.92 303.933 98.92C303.4 98.92 302.973 99.064 302.653 99.352C302.344 99.64 302.189 100.051 302.189 100.584C302.189 101.064 302.349 101.448 302.669 101.736C303 102.024 303.421 102.168 303.933 102.168C304.445 102.168 304.866 102.024 305.197 101.736C305.528 101.437 305.693 101.048 305.693 100.568ZM303.933 103.8C303.325 103.8 302.829 103.955 302.445 104.264C302.072 104.573 301.885 105.016 301.885 105.592C301.885 106.125 302.066 106.563 302.429 106.904C302.802 107.235 303.304 107.4 303.933 107.4C304.562 107.4 305.058 107.229 305.421 106.888C305.784 106.547 305.965 106.115 305.965 105.592C305.965 105.027 305.778 104.589 305.405 104.28C305.032 103.96 304.541 103.8 303.933 103.8ZM311.878 102.824C310.811 102.269 310.278 101.411 310.278 100.248C310.278 99.672 310.422 99.1493 310.71 98.68C311.009 98.2 311.451 97.8213 312.038 97.544C312.635 97.256 313.361 97.112 314.214 97.112C315.067 97.112 315.787 97.256 316.374 97.544C316.971 97.8213 317.414 98.2 317.702 98.68C318.001 99.1493 318.15 99.672 318.15 100.248C318.15 100.835 318.006 101.352 317.718 101.8C317.43 102.237 317.046 102.579 316.566 102.824C317.153 103.08 317.611 103.453 317.942 103.944C318.273 104.435 318.438 105.016 318.438 105.688C318.438 106.413 318.251 107.048 317.878 107.592C317.515 108.125 317.014 108.536 316.374 108.824C315.734 109.112 315.014 109.256 314.214 109.256C313.414 109.256 312.694 109.112 312.054 108.824C311.425 108.536 310.923 108.125 310.55 107.592C310.187 107.048 310.006 106.413 310.006 105.688C310.006 105.016 310.171 104.435 310.502 103.944C310.833 103.443 311.291 103.069 311.878 102.824ZM315.974 100.568C315.974 100.045 315.814 99.64 315.494 99.352C315.185 99.064 314.758 98.92 314.214 98.92C313.681 98.92 313.254 99.064 312.934 99.352C312.625 99.64 312.47 100.051 312.47 100.584C312.47 101.064 312.63 101.448 312.95 101.736C313.281 102.024 313.702 102.168 314.214 102.168C314.726 102.168 315.147 102.024 315.478 101.736C315.809 101.437 315.974 101.048 315.974 100.568ZM314.214 103.8C313.606 103.8 313.11 103.955 312.726 104.264C312.353 104.573 312.166 105.016 312.166 105.592C312.166 106.125 312.347 106.563 312.71 106.904C313.083 107.235 313.585 107.4 314.214 107.4C314.843 107.4 315.339 107.229 315.702 106.888C316.065 106.547 316.246 106.115 316.246 105.592C316.246 105.027 316.059 104.589 315.686 104.28C315.313 103.96 314.822 103.8 314.214 103.8Z" fill="#28292D"/>
<rect x="329" y="91.9443" width="53.2222" height="22.1111" rx="4" fill="#DDF6E6"/>
<path d="M338.289 106.79V100.068H339.626V106.79H338.289ZM335.599 104.095V102.763H342.321V104.095H335.599ZM348.008 108.639C347.326 108.639 346.716 108.522 346.179 108.286C345.645 108.051 345.223 107.724 344.911 107.307C344.603 106.886 344.437 106.399 344.414 105.845H345.975C345.995 106.147 346.096 106.409 346.278 106.631C346.464 106.849 346.706 107.018 347.004 107.138C347.302 107.257 347.634 107.317 347.998 107.317C348.399 107.317 348.754 107.247 349.062 107.108C349.374 106.969 349.617 106.775 349.793 106.526C349.969 106.274 350.057 105.984 350.057 105.656C350.057 105.315 349.969 105.015 349.793 104.756C349.621 104.495 349.367 104.289 349.032 104.14C348.701 103.991 348.3 103.916 347.829 103.916H346.969V102.663H347.829C348.207 102.663 348.539 102.595 348.824 102.46C349.112 102.324 349.337 102.135 349.5 101.893C349.662 101.647 349.743 101.361 349.743 101.033C349.743 100.718 349.672 100.444 349.53 100.212C349.39 99.977 349.192 99.7931 348.933 99.6605C348.678 99.5279 348.376 99.4616 348.028 99.4616C347.697 99.4616 347.387 99.523 347.098 99.6456C346.813 99.7649 346.581 99.9373 346.402 100.163C346.223 100.385 346.127 100.652 346.114 100.963H344.628C344.644 100.413 344.807 99.929 345.115 99.5114C345.426 99.0937 345.837 98.7673 346.348 98.532C346.858 98.2966 347.425 98.179 348.048 98.179C348.701 98.179 349.264 98.3066 349.738 98.5618C350.216 98.8137 350.584 99.1501 350.842 99.571C351.104 99.992 351.233 100.453 351.23 100.953C351.233 101.523 351.074 102.007 350.753 102.405C350.434 102.803 350.01 103.069 349.48 103.205V103.285C350.156 103.388 350.68 103.656 351.051 104.09C351.425 104.524 351.611 105.063 351.608 105.706C351.611 106.266 351.455 106.768 351.14 107.212C350.829 107.656 350.403 108.006 349.863 108.261C349.322 108.513 348.704 108.639 348.008 108.639ZM354.185 108.594C353.914 108.594 353.68 108.498 353.484 108.306C353.289 108.111 353.191 107.875 353.191 107.6C353.191 107.328 353.289 107.096 353.484 106.904C353.68 106.709 353.914 106.611 354.185 106.611C354.457 106.611 354.691 106.709 354.886 106.904C355.082 107.096 355.18 107.328 355.18 107.6C355.18 107.782 355.133 107.95 355.041 108.102C354.951 108.251 354.832 108.371 354.683 108.46C354.533 108.55 354.368 108.594 354.185 108.594ZM356.937 106.511V105.268L361.337 98.3182H362.317V100.148H361.695L358.548 105.129V105.209H364.579V106.511H356.937ZM361.765 108.5V106.134L361.775 105.567V98.3182H363.231V108.5H361.765ZM371.626 106.591V106.054C371.626 105.67 371.705 105.318 371.864 105C372.027 104.679 372.262 104.422 372.57 104.229C372.882 104.034 373.258 103.936 373.699 103.936C374.15 103.936 374.528 104.032 374.832 104.224C375.137 104.417 375.368 104.674 375.524 104.995C375.683 105.317 375.762 105.67 375.762 106.054V106.591C375.762 106.975 375.683 107.328 375.524 107.65C375.364 107.968 375.131 108.225 374.823 108.42C374.518 108.613 374.143 108.709 373.699 108.709C373.252 108.709 372.874 108.613 372.565 108.42C372.257 108.225 372.024 107.968 371.864 107.65C371.705 107.328 371.626 106.975 371.626 106.591ZM372.784 106.054V106.591C372.784 106.876 372.852 107.134 372.988 107.366C373.124 107.598 373.361 107.714 373.699 107.714C374.034 107.714 374.267 107.598 374.4 107.366C374.533 107.134 374.599 106.876 374.599 106.591V106.054C374.599 105.769 374.534 105.51 374.405 105.278C374.279 105.046 374.044 104.93 373.699 104.93C373.368 104.93 373.132 105.046 372.993 105.278C372.854 105.51 372.784 105.769 372.784 106.054ZM366.505 100.764V100.227C366.505 99.8428 366.585 99.4898 366.744 99.1683C366.906 98.8468 367.141 98.59 367.45 98.3977C367.761 98.2055 368.137 98.1094 368.578 98.1094C369.029 98.1094 369.407 98.2055 369.712 98.3977C370.017 98.59 370.247 98.8468 370.403 99.1683C370.559 99.4898 370.636 99.8428 370.636 100.227V100.764C370.636 101.149 370.557 101.502 370.398 101.823C370.242 102.141 370.01 102.398 369.702 102.594C369.397 102.786 369.022 102.882 368.578 102.882C368.127 102.882 367.748 102.786 367.44 102.594C367.135 102.398 366.903 102.141 366.744 101.823C366.585 101.502 366.505 101.149 366.505 100.764ZM367.668 100.227V100.764C367.668 101.049 367.735 101.308 367.867 101.54C368.003 101.772 368.24 101.888 368.578 101.888C368.91 101.888 369.142 101.772 369.274 101.54C369.41 101.308 369.478 101.049 369.478 100.764V100.227C369.478 99.9422 369.413 99.6837 369.284 99.4517C369.155 99.2197 368.92 99.1037 368.578 99.1037C368.247 99.1037 368.011 99.2197 367.872 99.4517C367.736 99.6837 367.668 99.9422 367.668 100.227ZM366.977 108.5L373.977 98.3182H375.166L368.166 108.5H366.977Z" fill="#27A963"/>
</g>
<path d="M326 139.75C328.623 139.75 330.75 137.623 330.75 135C330.75 132.377 328.623 130.25 326 130.25C323.377 130.25 321.25 132.377 321.25 135C321.25 137.623 323.377 139.75 326 139.75Z" fill="white" stroke="url(#paint1_linear_335_671)" stroke-width="1.5"/>
</g>
<defs>
<filter id="filter0_d_335_671" x="239" y="52" width="168.222" height="89" filterUnits="userSpaceOnUse" color-interpolation-filters="sRGB">
<feFlood flood-opacity="0" result="BackgroundImageFix"/>
<feColorMatrix in="SourceAlpha" type="matrix" values="0 0 0 0 0 0 0 0 0 0 0 0 0 0 0 0 0 0 127 0" result="hardAlpha"/>
<feOffset dy="4"/>
<feGaussianBlur stdDeviation="6"/>
<feComposite in2="hardAlpha" operator="out"/>
<feColorMatrix type="matrix" values="0 0 0 0 0.124834 0 0 0 0 0.147507 0 0 0 0 0.255013 0 0 0 0.03 0"/>
<feBlend mode="normal" in2="BackgroundImageFix" result="effect1_dropShadow_335_671"/>
<feBlend mode="normal" in="SourceGraphic" in2="effect1_dropShadow_335_671" result="shape"/>
</filter>
<linearGradient id="paint0_linear_335_671" x1="455" y1="-35.5" x2="455" y2="224" gradientUnits="userSpaceOnUse">
<stop stop-color="#8F46F8" stop-opacity="0.08"/>
<stop offset="1" stop-color="#8F46F8" stop-opacity="0"/>
</linearGradient>
<linearGradient id="paint1_linear_335_671" x1="326" y1="131" x2="326" y2="249" gradientUnits="userSpaceOnUse">
<stop stop-color="#7F27FF"/>
<stop offset="1" stop-color="#978FED" stop-opacity="0"/>
</linearGradient>
<clipPath id="clip0_335_671">
<rect width="910" height="242" fill="white"/>
</clipPath>
</defs>
</svg>
