<svg width="27" height="257" viewBox="0 0 27 257" fill="none" xmlns="http://www.w3.org/2000/svg">
<path d="M2.20442 12.83C3.10042 12.0553 3.80509 11.4207 4.31842 10.926C4.84109 10.422 5.27509 9.89933 5.62042 9.358C5.96576 8.81667 6.13842 8.27533 6.13842 7.734C6.13842 7.174 6.00309 6.73533 5.73242 6.418C5.47109 6.10067 5.05576 5.942 4.48642 5.942C3.93576 5.942 3.50642 6.11933 3.19842 6.474C2.89976 6.81933 2.74109 7.286 2.72242 7.874H1.18242C1.21042 6.81 1.52776 5.998 2.13442 5.438C2.75042 4.86867 3.52976 4.584 4.47242 4.584C5.48976 4.584 6.28309 4.864 6.85242 5.424C7.43109 5.984 7.72042 6.73067 7.72042 7.664C7.72042 8.336 7.54776 8.98467 7.20242 9.61C6.86642 10.226 6.46042 10.7813 5.98442 11.276C5.51776 11.7613 4.92042 12.326 4.19242 12.97L3.56242 13.53H8.00042V14.86H1.19642V13.698L2.20442 12.83ZM9.6525 9.764C9.6525 8.14933 9.92317 6.88933 10.4645 5.984C11.0152 5.06933 11.9578 4.612 13.2925 4.612C14.6272 4.612 15.5652 5.06933 16.1065 5.984C16.6572 6.88933 16.9325 8.14933 16.9325 9.764C16.9325 11.3973 16.6572 12.676 16.1065 13.6C15.5652 14.5147 14.6272 14.972 13.2925 14.972C11.9578 14.972 11.0152 14.5147 10.4645 13.6C9.92317 12.676 9.6525 11.3973 9.6525 9.764ZM15.3645 9.764C15.3645 9.008 15.3132 8.36867 15.2105 7.846C15.1172 7.32333 14.9212 6.89867 14.6225 6.572C14.3238 6.236 13.8805 6.068 13.2925 6.068C12.7045 6.068 12.2612 6.236 11.9625 6.572C11.6638 6.89867 11.4632 7.32333 11.3605 7.846C11.2672 8.36867 11.2205 9.008 11.2205 9.764C11.2205 10.548 11.2672 11.206 11.3605 11.738C11.4538 12.27 11.6498 12.6993 11.9485 13.026C12.2565 13.3527 12.7045 13.516 13.2925 13.516C13.8805 13.516 14.3238 13.3527 14.6225 13.026C14.9305 12.6993 15.1312 12.27 15.2245 11.738C15.3178 11.206 15.3645 10.548 15.3645 9.764ZM18.8713 9.764C18.8713 8.14933 19.1419 6.88933 19.6833 5.984C20.2339 5.06933 21.1766 4.612 22.5113 4.612C23.8459 4.612 24.7839 5.06933 25.3253 5.984C25.8759 6.88933 26.1513 8.14933 26.1513 9.764C26.1513 11.3973 25.8759 12.676 25.3253 13.6C24.7839 14.5147 23.8459 14.972 22.5113 14.972C21.1766 14.972 20.2339 14.5147 19.6833 13.6C19.1419 12.676 18.8713 11.3973 18.8713 9.764ZM24.5833 9.764C24.5833 9.008 24.5319 8.36867 24.4293 7.846C24.3359 7.32333 24.1399 6.89867 23.8413 6.572C23.5426 6.236 23.0993 6.068 22.5113 6.068C21.9233 6.068 21.4799 6.236 21.1813 6.572C20.8826 6.89867 20.6819 7.32333 20.5793 7.846C20.4859 8.36867 20.4393 9.008 20.4393 9.764C20.4393 10.548 20.4859 11.206 20.5793 11.738C20.6726 12.27 20.8686 12.6993 21.1673 13.026C21.4753 13.3527 21.9233 13.516 22.5113 13.516C23.0993 13.516 23.5426 13.3527 23.8413 13.026C24.1493 12.6993 24.3499 12.27 24.4433 11.738C24.5366 11.206 24.5833 10.548 24.5833 9.764Z" fill="#475569"/>
<path d="M4.32531 65.5V64.044H7.23731V74.25H5.62731V65.5H4.32531ZM16.2598 65.416H11.5698V68.202C11.7658 67.9407 12.0552 67.7213 12.4378 67.544C12.8298 67.3667 13.2452 67.278 13.6838 67.278C14.4678 67.278 15.1025 67.446 15.5878 67.782C16.0825 68.118 16.4325 68.5427 16.6378 69.056C16.8525 69.5693 16.9598 70.1107 16.9598 70.68C16.9598 71.3707 16.8245 71.9867 16.5538 72.528C16.2925 73.06 15.8958 73.48 15.3638 73.788C14.8412 74.096 14.1972 74.25 13.4318 74.25C12.4145 74.25 11.5978 73.998 10.9818 73.494C10.3658 72.99 9.99718 72.3227 9.87584 71.492H11.4298C11.5325 71.9307 11.7612 72.2807 12.1158 72.542C12.4705 72.794 12.9138 72.92 13.4458 72.92C14.1085 72.92 14.6032 72.7193 14.9298 72.318C15.2658 71.9167 15.4338 71.3847 15.4338 70.722C15.4338 70.05 15.2658 69.5367 14.9298 69.182C14.5938 68.818 14.0992 68.636 13.4458 68.636C12.9885 68.636 12.6012 68.7527 12.2838 68.986C11.9758 69.21 11.7518 69.518 11.6118 69.91H10.0998V64.016H16.2598V65.416ZM18.8713 69.014C18.8713 67.3993 19.1419 66.1393 19.6833 65.234C20.2339 64.3193 21.1766 63.862 22.5113 63.862C23.8459 63.862 24.7839 64.3193 25.3253 65.234C25.8759 66.1393 26.1513 67.3993 26.1513 69.014C26.1513 70.6473 25.8759 71.926 25.3253 72.85C24.7839 73.7647 23.8459 74.222 22.5113 74.222C21.1766 74.222 20.2339 73.7647 19.6833 72.85C19.1419 71.926 18.8713 70.6473 18.8713 69.014ZM24.5833 69.014C24.5833 68.258 24.5319 67.6187 24.4293 67.096C24.3359 66.5733 24.1399 66.1487 23.8413 65.822C23.5426 65.486 23.0993 65.318 22.5113 65.318C21.9233 65.318 21.4799 65.486 21.1813 65.822C20.8826 66.1487 20.6819 66.5733 20.5793 67.096C20.4859 67.6187 20.4393 68.258 20.4393 69.014C20.4393 69.798 20.4859 70.456 20.5793 70.988C20.6726 71.52 20.8686 71.9493 21.1673 72.276C21.4753 72.6027 21.9233 72.766 22.5113 72.766C23.0993 72.766 23.5426 72.6027 23.8413 72.276C24.1493 71.9493 24.3499 71.52 24.4433 70.988C24.5366 70.456 24.5833 69.798 24.5833 69.014Z" fill="#475569"/>
<path d="M4.29797 124.75V123.294H7.20997V133.5H5.59997V124.75H4.29797ZM9.6525 128.264C9.6525 126.649 9.92317 125.389 10.4645 124.484C11.0152 123.569 11.9578 123.112 13.2925 123.112C14.6272 123.112 15.5652 123.569 16.1065 124.484C16.6572 125.389 16.9325 126.649 16.9325 128.264C16.9325 129.897 16.6572 131.176 16.1065 132.1C15.5652 133.015 14.6272 133.472 13.2925 133.472C11.9578 133.472 11.0152 133.015 10.4645 132.1C9.92317 131.176 9.6525 129.897 9.6525 128.264ZM15.3645 128.264C15.3645 127.508 15.3132 126.869 15.2105 126.346C15.1172 125.823 14.9212 125.399 14.6225 125.072C14.3238 124.736 13.8805 124.568 13.2925 124.568C12.7045 124.568 12.2612 124.736 11.9625 125.072C11.6638 125.399 11.4632 125.823 11.3605 126.346C11.2672 126.869 11.2205 127.508 11.2205 128.264C11.2205 129.048 11.2672 129.706 11.3605 130.238C11.4538 130.77 11.6498 131.199 11.9485 131.526C12.2565 131.853 12.7045 132.016 13.2925 132.016C13.8805 132.016 14.3238 131.853 14.6225 131.526C14.9305 131.199 15.1312 130.77 15.2245 130.238C15.3178 129.706 15.3645 129.048 15.3645 128.264ZM18.8713 128.264C18.8713 126.649 19.1419 125.389 19.6833 124.484C20.2339 123.569 21.1766 123.112 22.5113 123.112C23.8459 123.112 24.7839 123.569 25.3253 124.484C25.8759 125.389 26.1513 126.649 26.1513 128.264C26.1513 129.897 25.8759 131.176 25.3253 132.1C24.7839 133.015 23.8459 133.472 22.5113 133.472C21.1766 133.472 20.2339 133.015 19.6833 132.1C19.1419 131.176 18.8713 129.897 18.8713 128.264ZM24.5833 128.264C24.5833 127.508 24.5319 126.869 24.4293 126.346C24.3359 125.823 24.1399 125.399 23.8413 125.072C23.5426 124.736 23.0993 124.568 22.5113 124.568C21.9233 124.568 21.4799 124.736 21.1813 125.072C20.8826 125.399 20.6819 125.823 20.5793 126.346C20.4859 126.869 20.4393 127.508 20.4393 128.264C20.4393 129.048 20.4859 129.706 20.5793 130.238C20.6726 130.77 20.8686 131.199 21.1673 131.526C21.4753 131.853 21.9233 132.016 22.5113 132.016C23.0993 132.016 23.5426 131.853 23.8413 131.526C24.1493 131.199 24.3499 130.77 24.4433 130.238C24.5366 129.706 24.5833 129.048 24.5833 128.264Z" fill="#475569"/>
<path d="M16.2598 183.916H11.5698V186.702C11.7658 186.441 12.0552 186.221 12.4378 186.044C12.8298 185.867 13.2452 185.778 13.6838 185.778C14.4678 185.778 15.1025 185.946 15.5878 186.282C16.0825 186.618 16.4325 187.043 16.6378 187.556C16.8525 188.069 16.9598 188.611 16.9598 189.18C16.9598 189.871 16.8245 190.487 16.5538 191.028C16.2925 191.56 15.8958 191.98 15.3638 192.288C14.8412 192.596 14.1972 192.75 13.4318 192.75C12.4145 192.75 11.5978 192.498 10.9818 191.994C10.3658 191.49 9.99718 190.823 9.87584 189.992H11.4298C11.5325 190.431 11.7612 190.781 12.1158 191.042C12.4705 191.294 12.9138 191.42 13.4458 191.42C14.1085 191.42 14.6032 191.219 14.9298 190.818C15.2658 190.417 15.4338 189.885 15.4338 189.222C15.4338 188.55 15.2658 188.037 14.9298 187.682C14.5938 187.318 14.0992 187.136 13.4458 187.136C12.9885 187.136 12.6012 187.253 12.2838 187.486C11.9758 187.71 11.7518 188.018 11.6118 188.41H10.0998V182.516H16.2598V183.916ZM18.8713 187.514C18.8713 185.899 19.1419 184.639 19.6833 183.734C20.2339 182.819 21.1766 182.362 22.5113 182.362C23.8459 182.362 24.7839 182.819 25.3253 183.734C25.8759 184.639 26.1513 185.899 26.1513 187.514C26.1513 189.147 25.8759 190.426 25.3253 191.35C24.7839 192.265 23.8459 192.722 22.5113 192.722C21.1766 192.722 20.2339 192.265 19.6833 191.35C19.1419 190.426 18.8713 189.147 18.8713 187.514ZM24.5833 187.514C24.5833 186.758 24.5319 186.119 24.4293 185.596C24.3359 185.073 24.1399 184.649 23.8413 184.322C23.5426 183.986 23.0993 183.818 22.5113 183.818C21.9233 183.818 21.4799 183.986 21.1813 184.322C20.8826 184.649 20.6819 185.073 20.5793 185.596C20.4859 186.119 20.4393 186.758 20.4393 187.514C20.4393 188.298 20.4859 188.956 20.5793 189.488C20.6726 190.02 20.8686 190.449 21.1673 190.776C21.4753 191.103 21.9233 191.266 22.5113 191.266C23.0993 191.266 23.5426 191.103 23.8413 190.776C24.1493 190.449 24.3499 190.02 24.4433 189.488C24.5366 188.956 24.5833 188.298 24.5833 187.514Z" fill="#475569"/>
<path d="M18.8713 246.764C18.8713 245.149 19.1419 243.889 19.6833 242.984C20.2339 242.069 21.1766 241.612 22.5113 241.612C23.8459 241.612 24.7839 242.069 25.3253 242.984C25.8759 243.889 26.1513 245.149 26.1513 246.764C26.1513 248.397 25.8759 249.676 25.3253 250.6C24.7839 251.515 23.8459 251.972 22.5113 251.972C21.1766 251.972 20.2339 251.515 19.6833 250.6C19.1419 249.676 18.8713 248.397 18.8713 246.764ZM24.5833 246.764C24.5833 246.008 24.5319 245.369 24.4293 244.846C24.3359 244.323 24.1399 243.899 23.8413 243.572C23.5426 243.236 23.0993 243.068 22.5113 243.068C21.9233 243.068 21.4799 243.236 21.1813 243.572C20.8826 243.899 20.6819 244.323 20.5793 244.846C20.4859 245.369 20.4393 246.008 20.4393 246.764C20.4393 247.548 20.4859 248.206 20.5793 248.738C20.6726 249.27 20.8686 249.699 21.1673 250.026C21.4753 250.353 21.9233 250.516 22.5113 250.516C23.0993 250.516 23.5426 250.353 23.8413 250.026C24.1493 249.699 24.3499 249.27 24.4433 248.738C24.5366 248.206 24.5833 247.548 24.5833 246.764Z" fill="#475569"/>
</svg>
