<svg width="894" height="242" viewBox="0 0 894 242" fill="none" xmlns="http://www.w3.org/2000/svg">
<g clip-path="url(#clip0_239_2023)">
<path d="M0 147.519L45.4473 135.394C53.0485 133.366 56.8491 132.352 60.4584 132.707C63.6474 133.021 66.7144 134.096 69.4011 135.843C72.4418 137.819 74.777 140.985 79.4473 147.315L95.0848 168.512C100.11 175.324 102.622 178.73 105.901 180.759C108.796 182.551 112.101 183.574 115.502 183.732C119.354 183.91 123.351 182.52 131.346 179.74L144.362 175.214C147.121 174.254 148.5 173.774 149.907 173.397C151.157 173.062 152.422 172.788 153.699 172.576C155.135 172.337 156.589 172.203 159.498 171.934L193.12 168.829C204.901 167.741 210.792 167.197 216.472 165.819C221.515 164.596 226.428 162.885 231.14 160.71C236.447 158.261 241.401 155.027 251.309 148.56L262.137 141.493C268.798 137.146 272.128 134.972 275.735 133.513C278.936 132.219 282.291 131.344 285.717 130.911C289.577 130.423 293.545 130.694 301.48 131.237L373.108 136.131C377.389 136.424 379.529 136.57 381.6 136.278C383.437 136.018 385.229 135.505 386.925 134.752C388.836 133.902 390.574 132.645 394.05 130.13L420.979 110.642C425.372 107.464 427.568 105.874 429.999 104.939C432.153 104.11 434.435 103.66 436.742 103.609C439.347 103.552 441.982 104.188 447.252 105.461L493.345 116.594C509.95 120.605 518.253 122.611 525.575 121.668C536.116 120.311 545.683 114.815 552.165 106.393C556.669 100.543 559.119 92.3604 564.019 75.9958L564.525 74.3064C567.657 63.8492 569.222 58.6206 571.696 56.0212C576.269 51.2147 583.456 49.9834 589.368 52.9936C592.566 54.6216 595.783 59.0309 602.216 67.8495V67.8495C607.988 75.7609 610.874 79.7166 613.882 81.3322C619.435 84.3149 626.26 83.5076 630.964 79.3117C633.512 77.0389 635.396 72.5191 639.162 63.4795L641.851 57.0276C654.187 27.422 660.355 12.6193 669.58 7.56234C677.602 3.16468 687.192 2.66769 695.626 6.21258C705.324 10.2889 712.989 24.3748 728.32 52.5465L748.091 88.8795C753.511 98.839 756.221 103.819 760.227 106.543C763.75 108.938 767.947 110.146 772.204 109.99C777.046 109.813 781.988 107.036 791.873 101.482L822.356 84.3556C824.609 83.09 825.735 82.4573 826.922 81.9777C827.976 81.5517 829.064 81.2164 830.175 80.9754C831.426 80.704 832.713 80.5932 835.287 80.3717L894 75.3187" stroke="#7F27FF" stroke-linecap="round"/>
<path d="M45.4473 135.394L0 147.519V217.6C0 219.84 0 220.96 0.435974 221.816C0.819467 222.569 1.43139 223.181 2.18404 223.564C3.03969 224 4.15979 224 6.4 224H887.6C889.84 224 890.96 224 891.816 223.564C892.569 223.181 893.181 222.569 893.564 221.816C894 220.96 894 219.84 894 217.6V75.3187L835.287 80.3717C832.713 80.5932 831.426 80.704 830.175 80.9754C829.064 81.2164 827.976 81.5518 826.922 81.9777C825.735 82.4572 824.609 83.09 822.357 84.3553L822.356 84.3556L791.873 101.482C781.988 107.036 777.046 109.813 772.204 109.99C767.947 110.146 763.75 108.938 760.227 106.543C756.221 103.819 753.511 98.839 748.091 88.8795L728.32 52.5465C712.989 24.3748 705.324 10.2889 695.626 6.21258C687.192 2.66769 677.602 3.16468 669.58 7.56234C660.355 12.6193 654.187 27.422 641.851 57.0276L639.162 63.4795C635.396 72.5191 633.512 77.0389 630.964 79.3117C626.26 83.5076 619.435 84.3149 613.882 81.3322C610.874 79.7167 607.988 75.7612 602.217 67.8503L602.216 67.8495C595.783 59.0309 592.566 54.6216 589.368 52.9936C583.456 49.9834 576.269 51.2147 571.696 56.0212C569.222 58.6206 567.657 63.8492 564.525 74.3064L564.019 75.9958C559.119 92.3604 556.669 100.543 552.165 106.393C545.683 114.815 536.116 120.311 525.575 121.668C518.253 122.611 509.95 120.605 493.345 116.594L447.252 105.461C441.982 104.188 439.347 103.552 436.742 103.609C434.435 103.66 432.153 104.11 429.999 104.939C427.568 105.874 425.372 107.464 420.979 110.642L394.05 130.13C390.574 132.645 388.836 133.902 386.925 134.752C385.229 135.505 383.437 136.018 381.6 136.278C379.529 136.57 377.389 136.424 373.108 136.131L301.48 131.237C293.545 130.694 289.577 130.423 285.717 130.911C282.291 131.344 278.936 132.219 275.735 133.513C272.128 134.972 268.798 137.146 262.137 141.493L251.309 148.56C241.401 155.027 236.447 158.261 231.14 160.71C226.428 162.885 221.515 164.596 216.472 165.819C210.792 167.197 204.901 167.741 193.12 168.829L193.12 168.829L159.498 171.934C156.589 172.203 155.135 172.337 153.699 172.576C152.422 172.788 151.157 173.062 149.907 173.397C148.5 173.774 147.121 174.254 144.362 175.214L131.346 179.74L131.346 179.74C123.351 182.52 119.354 183.91 115.502 183.732C112.101 183.574 108.796 182.551 105.901 180.759C102.622 178.73 100.11 175.324 95.0848 168.512L79.4473 147.315L79.4472 147.315C74.7769 140.985 72.4418 137.819 69.4011 135.843C66.7144 134.096 63.6474 133.021 60.4584 132.707C56.8491 132.352 53.0485 133.366 45.4473 135.394Z" fill="url(#paint0_linear_239_2023)"/>
<path d="M8.82261 224.68V223.601H11.2666V233H10.0706V224.68H8.82261ZM13.0517 229.412C13.0517 228.684 13.199 228.047 13.4937 227.501C13.7883 226.946 14.1913 226.517 14.7027 226.214C15.2227 225.911 15.799 225.759 16.4317 225.759C17.0557 225.759 17.5973 225.893 18.0567 226.162C18.516 226.431 18.8583 226.769 19.0837 227.176V225.876H20.2797V233H19.0837V231.674C18.8497 232.09 18.4987 232.437 18.0307 232.714C17.5713 232.983 17.034 233.117 16.4187 233.117C15.786 233.117 15.214 232.961 14.7027 232.649C14.1913 232.337 13.7883 231.899 13.4937 231.336C13.199 230.773 13.0517 230.131 13.0517 229.412ZM19.0837 229.425C19.0837 228.888 18.9753 228.42 18.7587 228.021C18.542 227.622 18.2473 227.319 17.8747 227.111C17.5107 226.894 17.1077 226.786 16.6657 226.786C16.2237 226.786 15.8207 226.89 15.4567 227.098C15.0927 227.306 14.8023 227.609 14.5857 228.008C14.369 228.407 14.2607 228.875 14.2607 229.412C14.2607 229.958 14.369 230.435 14.5857 230.842C14.8023 231.241 15.0927 231.548 15.4567 231.765C15.8207 231.973 16.2237 232.077 16.6657 232.077C17.1077 232.077 17.5107 231.973 17.8747 231.765C18.2473 231.548 18.542 231.241 18.7587 230.842C18.9753 230.435 19.0837 229.962 19.0837 229.425ZM30.8458 225.746C31.4005 225.746 31.8945 225.863 32.3278 226.097C32.7612 226.322 33.1035 226.665 33.3548 227.124C33.6062 227.583 33.7318 228.142 33.7318 228.801V233H32.5618V228.97C32.5618 228.259 32.3842 227.718 32.0288 227.345C31.6822 226.964 31.2098 226.773 30.6118 226.773C29.9965 226.773 29.5068 226.972 29.1428 227.371C28.7788 227.761 28.5968 228.329 28.5968 229.074V233H27.4268V228.97C27.4268 228.259 27.2492 227.718 26.8938 227.345C26.5472 226.964 26.0748 226.773 25.4768 226.773C24.8615 226.773 24.3718 226.972 24.0078 227.371C23.6438 227.761 23.4618 228.329 23.4618 229.074V233H22.2788V225.876H23.4618V226.903C23.6958 226.53 24.0078 226.244 24.3978 226.045C24.7965 225.846 25.2342 225.746 25.7108 225.746C26.3088 225.746 26.8375 225.88 27.2968 226.149C27.7562 226.418 28.0985 226.812 28.3238 227.332C28.5232 226.829 28.8525 226.439 29.3118 226.162C29.7712 225.885 30.2825 225.746 30.8458 225.746Z" fill="#475569"/>
<path d="M52.2793 232.051C53.38 231.167 54.2423 230.443 54.8663 229.88C55.4903 229.308 56.0147 228.714 56.4393 228.099C56.8727 227.475 57.0893 226.864 57.0893 226.266C57.0893 225.703 56.9507 225.261 56.6733 224.94C56.4047 224.611 55.967 224.446 55.3603 224.446C54.771 224.446 54.3117 224.632 53.9823 225.005C53.6617 225.369 53.4883 225.859 53.4623 226.474H52.3183C52.353 225.503 52.6477 224.754 53.2023 224.225C53.757 223.696 54.472 223.432 55.3473 223.432C56.24 223.432 56.9463 223.679 57.4663 224.173C57.995 224.667 58.2593 225.347 58.2593 226.214C58.2593 226.933 58.0427 227.635 57.6093 228.32C57.1847 228.996 56.6993 229.594 56.1533 230.114C55.6073 230.625 54.9097 231.223 54.0603 231.908H58.5323V232.896H52.2793V232.051ZM59.6529 229.412C59.6529 228.684 59.8002 228.047 60.0949 227.501C60.3895 226.946 60.7925 226.517 61.3039 226.214C61.8239 225.911 62.4002 225.759 63.0329 225.759C63.6569 225.759 64.1985 225.893 64.6579 226.162C65.1172 226.431 65.4595 226.769 65.6849 227.176V225.876H66.8809V233H65.6849V231.674C65.4509 232.09 65.0999 232.437 64.6319 232.714C64.1725 232.983 63.6352 233.117 63.0199 233.117C62.3872 233.117 61.8152 232.961 61.3039 232.649C60.7925 232.337 60.3895 231.899 60.0949 231.336C59.8002 230.773 59.6529 230.131 59.6529 229.412ZM65.6849 229.425C65.6849 228.888 65.5765 228.42 65.3599 228.021C65.1432 227.622 64.8485 227.319 64.4759 227.111C64.1119 226.894 63.7089 226.786 63.2669 226.786C62.8249 226.786 62.4219 226.89 62.0579 227.098C61.6939 227.306 61.4035 227.609 61.1869 228.008C60.9702 228.407 60.8619 228.875 60.8619 229.412C60.8619 229.958 60.9702 230.435 61.1869 230.842C61.4035 231.241 61.6939 231.548 62.0579 231.765C62.4219 231.973 62.8249 232.077 63.2669 232.077C63.7089 232.077 64.1119 231.973 64.4759 231.765C64.8485 231.548 65.1432 231.241 65.3599 230.842C65.5765 230.435 65.6849 229.962 65.6849 229.425ZM77.447 225.746C78.0017 225.746 78.4957 225.863 78.929 226.097C79.3624 226.322 79.7047 226.665 79.956 227.124C80.2074 227.583 80.333 228.142 80.333 228.801V233H79.163V228.97C79.163 228.259 78.9854 227.718 78.63 227.345C78.2834 226.964 77.811 226.773 77.213 226.773C76.5977 226.773 76.108 226.972 75.744 227.371C75.38 227.761 75.198 228.329 75.198 229.074V233H74.028V228.97C74.028 228.259 73.8504 227.718 73.495 227.345C73.1484 226.964 72.676 226.773 72.078 226.773C71.4627 226.773 70.973 226.972 70.609 227.371C70.245 227.761 70.063 228.329 70.063 229.074V233H68.88V225.876H70.063V226.903C70.297 226.53 70.609 226.244 70.999 226.045C71.3977 225.846 71.8354 225.746 72.312 225.746C72.91 225.746 73.4387 225.88 73.898 226.149C74.3574 226.418 74.6997 226.812 74.925 227.332C75.1244 226.829 75.4537 226.439 75.913 226.162C76.3724 225.885 76.8837 225.746 77.447 225.746Z" fill="#475569"/>
<path d="M98.7519 225.967C98.8126 225.17 99.1203 224.546 99.6749 224.095C100.23 223.644 100.949 223.419 101.833 223.419C102.422 223.419 102.929 223.527 103.354 223.744C103.787 223.952 104.112 224.238 104.329 224.602C104.554 224.966 104.667 225.378 104.667 225.837C104.667 226.374 104.511 226.838 104.199 227.228C103.896 227.618 103.497 227.869 103.003 227.982V228.047C103.566 228.186 104.013 228.459 104.342 228.866C104.671 229.273 104.836 229.806 104.836 230.465C104.836 230.959 104.723 231.405 104.498 231.804C104.273 232.194 103.935 232.502 103.484 232.727C103.033 232.952 102.492 233.065 101.859 233.065C100.94 233.065 100.186 232.827 99.5969 232.35C99.0076 231.865 98.6783 231.18 98.6089 230.296H99.7529C99.8136 230.816 100.026 231.241 100.39 231.57C100.754 231.899 101.239 232.064 101.846 232.064C102.453 232.064 102.912 231.908 103.224 231.596C103.545 231.275 103.705 230.864 103.705 230.361C103.705 229.711 103.488 229.243 103.055 228.957C102.622 228.671 101.967 228.528 101.092 228.528H100.793V227.54H101.105C101.902 227.531 102.505 227.401 102.912 227.15C103.319 226.89 103.523 226.491 103.523 225.954C103.523 225.495 103.371 225.126 103.068 224.849C102.773 224.572 102.349 224.433 101.794 224.433C101.257 224.433 100.823 224.572 100.494 224.849C100.165 225.126 99.9696 225.499 99.9089 225.967H98.7519ZM106.186 229.412C106.186 228.684 106.334 228.047 106.628 227.501C106.923 226.946 107.326 226.517 107.837 226.214C108.357 225.911 108.934 225.759 109.566 225.759C110.19 225.759 110.732 225.893 111.191 226.162C111.651 226.431 111.993 226.769 112.218 227.176V225.876H113.414V233H112.218V231.674C111.984 232.09 111.633 232.437 111.165 232.714C110.706 232.983 110.169 233.117 109.553 233.117C108.921 233.117 108.349 232.961 107.837 232.649C107.326 232.337 106.923 231.899 106.628 231.336C106.334 230.773 106.186 230.131 106.186 229.412ZM112.218 229.425C112.218 228.888 112.11 228.42 111.893 228.021C111.677 227.622 111.382 227.319 111.009 227.111C110.645 226.894 110.242 226.786 109.8 226.786C109.358 226.786 108.955 226.89 108.591 227.098C108.227 227.306 107.937 227.609 107.72 228.008C107.504 228.407 107.395 228.875 107.395 229.412C107.395 229.958 107.504 230.435 107.72 230.842C107.937 231.241 108.227 231.548 108.591 231.765C108.955 231.973 109.358 232.077 109.8 232.077C110.242 232.077 110.645 231.973 111.009 231.765C111.382 231.548 111.677 231.241 111.893 230.842C112.11 230.435 112.218 229.962 112.218 229.425ZM123.98 225.746C124.535 225.746 125.029 225.863 125.462 226.097C125.896 226.322 126.238 226.665 126.489 227.124C126.741 227.583 126.866 228.142 126.866 228.801V233H125.696V228.97C125.696 228.259 125.519 227.718 125.163 227.345C124.817 226.964 124.344 226.773 123.746 226.773C123.131 226.773 122.641 226.972 122.277 227.371C121.913 227.761 121.731 228.329 121.731 229.074V233H120.561V228.97C120.561 228.259 120.384 227.718 120.028 227.345C119.682 226.964 119.209 226.773 118.611 226.773C117.996 226.773 117.506 226.972 117.142 227.371C116.778 227.761 116.596 228.329 116.596 229.074V233H115.413V225.876H116.596V226.903C116.83 226.53 117.142 226.244 117.532 226.045C117.931 225.846 118.369 225.746 118.845 225.746C119.443 225.746 119.972 225.88 120.431 226.149C120.891 226.418 121.233 226.812 121.458 227.332C121.658 226.829 121.987 226.439 122.446 226.162C122.906 225.885 123.417 225.746 123.98 225.746Z" fill="#475569"/>
<path d="M145.176 230.907V230.01L149.739 223.692H151.156V229.88H152.456V230.907H151.156V233H149.986V230.907H145.176ZM150.038 224.927L146.541 229.88H150.038V224.927ZM153.391 229.412C153.391 228.684 153.538 228.047 153.833 227.501C154.128 226.946 154.531 226.517 155.042 226.214C155.562 225.911 156.138 225.759 156.771 225.759C157.395 225.759 157.937 225.893 158.396 226.162C158.855 226.431 159.198 226.769 159.423 227.176V225.876H160.619V233H159.423V231.674C159.189 232.09 158.838 232.437 158.37 232.714C157.911 232.983 157.373 233.117 156.758 233.117C156.125 233.117 155.553 232.961 155.042 232.649C154.531 232.337 154.128 231.899 153.833 231.336C153.538 230.773 153.391 230.131 153.391 229.412ZM159.423 229.425C159.423 228.888 159.315 228.42 159.098 228.021C158.881 227.622 158.587 227.319 158.214 227.111C157.85 226.894 157.447 226.786 157.005 226.786C156.563 226.786 156.16 226.89 155.796 227.098C155.432 227.306 155.142 227.609 154.925 228.008C154.708 228.407 154.6 228.875 154.6 229.412C154.6 229.958 154.708 230.435 154.925 230.842C155.142 231.241 155.432 231.548 155.796 231.765C156.16 231.973 156.563 232.077 157.005 232.077C157.447 232.077 157.85 231.973 158.214 231.765C158.587 231.548 158.881 231.241 159.098 230.842C159.315 230.435 159.423 229.962 159.423 229.425ZM171.185 225.746C171.74 225.746 172.234 225.863 172.667 226.097C173.1 226.322 173.443 226.665 173.694 227.124C173.945 227.583 174.071 228.142 174.071 228.801V233H172.901V228.97C172.901 228.259 172.723 227.718 172.368 227.345C172.021 226.964 171.549 226.773 170.951 226.773C170.336 226.773 169.846 226.972 169.482 227.371C169.118 227.761 168.936 228.329 168.936 229.074V233H167.766V228.97C167.766 228.259 167.588 227.718 167.233 227.345C166.886 226.964 166.414 226.773 165.816 226.773C165.201 226.773 164.711 226.972 164.347 227.371C163.983 227.761 163.801 228.329 163.801 229.074V233H162.618V225.876H163.801V226.903C164.035 226.53 164.347 226.244 164.737 226.045C165.136 225.846 165.573 225.746 166.05 225.746C166.648 225.746 167.177 225.88 167.636 226.149C168.095 226.418 168.438 226.812 168.663 227.332C168.862 226.829 169.192 226.439 169.651 226.162C170.11 225.885 170.622 225.746 171.185 225.746Z" fill="#475569"/>
<path d="M198.906 224.628H194.343V227.592C194.542 227.315 194.837 227.089 195.227 226.916C195.617 226.734 196.037 226.643 196.488 226.643C197.207 226.643 197.792 226.795 198.243 227.098C198.694 227.393 199.014 227.778 199.205 228.255C199.404 228.723 199.504 229.221 199.504 229.75C199.504 230.374 199.387 230.933 199.153 231.427C198.919 231.921 198.559 232.311 198.074 232.597C197.597 232.883 197.004 233.026 196.293 233.026C195.383 233.026 194.646 232.792 194.083 232.324C193.52 231.856 193.177 231.232 193.056 230.452H194.213C194.326 230.946 194.564 231.332 194.928 231.609C195.292 231.886 195.751 232.025 196.306 232.025C196.991 232.025 197.506 231.821 197.853 231.414C198.2 230.998 198.373 230.452 198.373 229.776C198.373 229.1 198.2 228.58 197.853 228.216C197.506 227.843 196.995 227.657 196.319 227.657C195.86 227.657 195.457 227.77 195.11 227.995C194.772 228.212 194.525 228.511 194.369 228.892H193.251V223.588H198.906V224.628ZM200.829 229.412C200.829 228.684 200.976 228.047 201.271 227.501C201.566 226.946 201.969 226.517 202.48 226.214C203 225.911 203.576 225.759 204.209 225.759C204.833 225.759 205.375 225.893 205.834 226.162C206.293 226.431 206.636 226.769 206.861 227.176V225.876H208.057V233H206.861V231.674C206.627 232.09 206.276 232.437 205.808 232.714C205.349 232.983 204.811 233.117 204.196 233.117C203.563 233.117 202.991 232.961 202.48 232.649C201.969 232.337 201.566 231.899 201.271 231.336C200.976 230.773 200.829 230.131 200.829 229.412ZM206.861 229.425C206.861 228.888 206.753 228.42 206.536 228.021C206.319 227.622 206.025 227.319 205.652 227.111C205.288 226.894 204.885 226.786 204.443 226.786C204.001 226.786 203.598 226.89 203.234 227.098C202.87 227.306 202.58 227.609 202.363 228.008C202.146 228.407 202.038 228.875 202.038 229.412C202.038 229.958 202.146 230.435 202.363 230.842C202.58 231.241 202.87 231.548 203.234 231.765C203.598 231.973 204.001 232.077 204.443 232.077C204.885 232.077 205.288 231.973 205.652 231.765C206.025 231.548 206.319 231.241 206.536 230.842C206.753 230.435 206.861 229.962 206.861 229.425ZM218.623 225.746C219.178 225.746 219.672 225.863 220.105 226.097C220.539 226.322 220.881 226.665 221.132 227.124C221.384 227.583 221.509 228.142 221.509 228.801V233H220.339V228.97C220.339 228.259 220.162 227.718 219.806 227.345C219.46 226.964 218.987 226.773 218.389 226.773C217.774 226.773 217.284 226.972 216.92 227.371C216.556 227.761 216.374 228.329 216.374 229.074V233H215.204V228.97C215.204 228.259 215.027 227.718 214.671 227.345C214.325 226.964 213.852 226.773 213.254 226.773C212.639 226.773 212.149 226.972 211.785 227.371C211.421 227.761 211.239 228.329 211.239 229.074V233H210.056V225.876H211.239V226.903C211.473 226.53 211.785 226.244 212.175 226.045C212.574 225.846 213.012 225.746 213.488 225.746C214.086 225.746 214.615 225.88 215.074 226.149C215.534 226.418 215.876 226.812 216.101 227.332C216.301 226.829 216.63 226.439 217.089 226.162C217.549 225.885 218.06 225.746 218.623 225.746Z" fill="#475569"/>
<path d="M245.552 225.837C245.361 224.875 244.768 224.394 243.771 224.394C243 224.394 242.423 224.693 242.042 225.291C241.661 225.88 241.474 226.855 241.483 228.216C241.682 227.765 242.012 227.414 242.471 227.163C242.939 226.903 243.459 226.773 244.031 226.773C244.924 226.773 245.634 227.05 246.163 227.605C246.7 228.16 246.969 228.927 246.969 229.906C246.969 230.495 246.852 231.024 246.618 231.492C246.393 231.96 246.046 232.333 245.578 232.61C245.119 232.887 244.56 233.026 243.901 233.026C243.008 233.026 242.311 232.827 241.808 232.428C241.305 232.029 240.954 231.479 240.755 230.777C240.556 230.075 240.456 229.208 240.456 228.177C240.456 224.996 241.565 223.406 243.784 223.406C244.633 223.406 245.301 223.636 245.786 224.095C246.271 224.554 246.557 225.135 246.644 225.837H245.552ZM243.784 227.774C243.411 227.774 243.06 227.852 242.731 228.008C242.402 228.155 242.133 228.385 241.925 228.697C241.726 229 241.626 229.373 241.626 229.815C241.626 230.474 241.817 231.011 242.198 231.427C242.579 231.834 243.125 232.038 243.836 232.038C244.443 232.038 244.924 231.852 245.279 231.479C245.643 231.098 245.825 230.586 245.825 229.945C245.825 229.269 245.652 228.74 245.305 228.359C244.958 227.969 244.451 227.774 243.784 227.774ZM248.318 229.412C248.318 228.684 248.465 228.047 248.76 227.501C249.054 226.946 249.457 226.517 249.969 226.214C250.489 225.911 251.065 225.759 251.698 225.759C252.322 225.759 252.863 225.893 253.323 226.162C253.782 226.431 254.124 226.769 254.35 227.176V225.876H255.546V233H254.35V231.674C254.116 232.09 253.765 232.437 253.297 232.714C252.837 232.983 252.3 233.117 251.685 233.117C251.052 233.117 250.48 232.961 249.969 232.649C249.457 232.337 249.054 231.899 248.76 231.336C248.465 230.773 248.318 230.131 248.318 229.412ZM254.35 229.425C254.35 228.888 254.241 228.42 254.025 228.021C253.808 227.622 253.513 227.319 253.141 227.111C252.777 226.894 252.374 226.786 251.932 226.786C251.49 226.786 251.087 226.89 250.723 227.098C250.359 227.306 250.068 227.609 249.852 228.008C249.635 228.407 249.527 228.875 249.527 229.412C249.527 229.958 249.635 230.435 249.852 230.842C250.068 231.241 250.359 231.548 250.723 231.765C251.087 231.973 251.49 232.077 251.932 232.077C252.374 232.077 252.777 231.973 253.141 231.765C253.513 231.548 253.808 231.241 254.025 230.842C254.241 230.435 254.35 229.962 254.35 229.425ZM266.112 225.746C266.667 225.746 267.161 225.863 267.594 226.097C268.027 226.322 268.37 226.665 268.621 227.124C268.872 227.583 268.998 228.142 268.998 228.801V233H267.828V228.97C267.828 228.259 267.65 227.718 267.295 227.345C266.948 226.964 266.476 226.773 265.878 226.773C265.263 226.773 264.773 226.972 264.409 227.371C264.045 227.761 263.863 228.329 263.863 229.074V233H262.693V228.97C262.693 228.259 262.515 227.718 262.16 227.345C261.813 226.964 261.341 226.773 260.743 226.773C260.128 226.773 259.638 226.972 259.274 227.371C258.91 227.761 258.728 228.329 258.728 229.074V233H257.545V225.876H258.728V226.903C258.962 226.53 259.274 226.244 259.664 226.045C260.063 225.846 260.5 225.746 260.977 225.746C261.575 225.746 262.104 225.88 262.563 226.149C263.022 226.418 263.365 226.812 263.59 227.332C263.789 226.829 264.119 226.439 264.578 226.162C265.037 225.885 265.549 225.746 266.112 225.746Z" fill="#475569"/>
<path d="M293.62 224.524L290.006 233H288.81L292.476 224.641H287.458V223.627H293.62V224.524ZM294.685 229.412C294.685 228.684 294.832 228.047 295.127 227.501C295.421 226.946 295.824 226.517 296.336 226.214C296.856 225.911 297.432 225.759 298.065 225.759C298.689 225.759 299.23 225.893 299.69 226.162C300.149 226.431 300.491 226.769 300.717 227.176V225.876H301.913V233H300.717V231.674C300.483 232.09 300.132 232.437 299.664 232.714C299.204 232.983 298.667 233.117 298.052 233.117C297.419 233.117 296.847 232.961 296.336 232.649C295.824 232.337 295.421 231.899 295.127 231.336C294.832 230.773 294.685 230.131 294.685 229.412ZM300.717 229.425C300.717 228.888 300.608 228.42 300.392 228.021C300.175 227.622 299.88 227.319 299.508 227.111C299.144 226.894 298.741 226.786 298.299 226.786C297.857 226.786 297.454 226.89 297.09 227.098C296.726 227.306 296.435 227.609 296.219 228.008C296.002 228.407 295.894 228.875 295.894 229.412C295.894 229.958 296.002 230.435 296.219 230.842C296.435 231.241 296.726 231.548 297.09 231.765C297.454 231.973 297.857 232.077 298.299 232.077C298.741 232.077 299.144 231.973 299.508 231.765C299.88 231.548 300.175 231.241 300.392 230.842C300.608 230.435 300.717 229.962 300.717 229.425ZM312.479 225.746C313.033 225.746 313.527 225.863 313.961 226.097C314.394 226.322 314.736 226.665 314.988 227.124C315.239 227.583 315.365 228.142 315.365 228.801V233H314.195V228.97C314.195 228.259 314.017 227.718 313.662 227.345C313.315 226.964 312.843 226.773 312.245 226.773C311.629 226.773 311.14 226.972 310.776 227.371C310.412 227.761 310.23 228.329 310.23 229.074V233H309.06V228.97C309.06 228.259 308.882 227.718 308.527 227.345C308.18 226.964 307.708 226.773 307.11 226.773C306.494 226.773 306.005 226.972 305.641 227.371C305.277 227.761 305.095 228.329 305.095 229.074V233H303.912V225.876H305.095V226.903C305.329 226.53 305.641 226.244 306.031 226.045C306.429 225.846 306.867 225.746 307.344 225.746C307.942 225.746 308.47 225.88 308.93 226.149C309.389 226.418 309.731 226.812 309.957 227.332C310.156 226.829 310.485 226.439 310.945 226.162C311.404 225.885 311.915 225.746 312.479 225.746Z" fill="#475569"/>
<path d="M335.943 228.112C335.458 227.921 335.085 227.644 334.825 227.28C334.565 226.916 334.435 226.474 334.435 225.954C334.435 225.486 334.552 225.066 334.786 224.693C335.02 224.312 335.367 224.013 335.826 223.796C336.294 223.571 336.857 223.458 337.516 223.458C338.175 223.458 338.734 223.571 339.193 223.796C339.661 224.013 340.012 224.312 340.246 224.693C340.489 225.066 340.61 225.486 340.61 225.954C340.61 226.457 340.476 226.899 340.207 227.28C339.938 227.653 339.57 227.93 339.102 228.112C339.639 228.277 340.064 228.567 340.376 228.983C340.697 229.39 340.857 229.884 340.857 230.465C340.857 231.028 340.718 231.522 340.441 231.947C340.164 232.363 339.769 232.688 339.258 232.922C338.755 233.147 338.175 233.26 337.516 233.26C336.857 233.26 336.277 233.147 335.774 232.922C335.28 232.688 334.894 232.363 334.617 231.947C334.34 231.522 334.201 231.028 334.201 230.465C334.201 229.884 334.357 229.386 334.669 228.97C334.981 228.554 335.406 228.268 335.943 228.112ZM339.466 226.097C339.466 225.568 339.293 225.161 338.946 224.875C338.599 224.589 338.123 224.446 337.516 224.446C336.918 224.446 336.446 224.589 336.099 224.875C335.752 225.161 335.579 225.573 335.579 226.11C335.579 226.595 335.757 226.985 336.112 227.28C336.476 227.575 336.944 227.722 337.516 227.722C338.097 227.722 338.565 227.575 338.92 227.28C339.284 226.977 339.466 226.582 339.466 226.097ZM337.516 228.632C336.875 228.632 336.35 228.784 335.943 229.087C335.536 229.382 335.332 229.828 335.332 230.426C335.332 230.981 335.527 231.427 335.917 231.765C336.316 232.103 336.849 232.272 337.516 232.272C338.183 232.272 338.712 232.103 339.102 231.765C339.492 231.427 339.687 230.981 339.687 230.426C339.687 229.845 339.488 229.403 339.089 229.1C338.69 228.788 338.166 228.632 337.516 228.632ZM342.181 229.412C342.181 228.684 342.329 228.047 342.623 227.501C342.918 226.946 343.321 226.517 343.832 226.214C344.352 225.911 344.929 225.759 345.561 225.759C346.185 225.759 346.727 225.893 347.186 226.162C347.646 226.431 347.988 226.769 348.213 227.176V225.876H349.409V233H348.213V231.674C347.979 232.09 347.628 232.437 347.16 232.714C346.701 232.983 346.164 233.117 345.548 233.117C344.916 233.117 344.344 232.961 343.832 232.649C343.321 232.337 342.918 231.899 342.623 231.336C342.329 230.773 342.181 230.131 342.181 229.412ZM348.213 229.425C348.213 228.888 348.105 228.42 347.888 228.021C347.672 227.622 347.377 227.319 347.004 227.111C346.64 226.894 346.237 226.786 345.795 226.786C345.353 226.786 344.95 226.89 344.586 227.098C344.222 227.306 343.932 227.609 343.715 228.008C343.499 228.407 343.39 228.875 343.39 229.412C343.39 229.958 343.499 230.435 343.715 230.842C343.932 231.241 344.222 231.548 344.586 231.765C344.95 231.973 345.353 232.077 345.795 232.077C346.237 232.077 346.64 231.973 347.004 231.765C347.377 231.548 347.672 231.241 347.888 230.842C348.105 230.435 348.213 229.962 348.213 229.425ZM359.975 225.746C360.53 225.746 361.024 225.863 361.457 226.097C361.891 226.322 362.233 226.665 362.484 227.124C362.736 227.583 362.861 228.142 362.861 228.801V233H361.691V228.97C361.691 228.259 361.514 227.718 361.158 227.345C360.812 226.964 360.339 226.773 359.741 226.773C359.126 226.773 358.636 226.972 358.272 227.371C357.908 227.761 357.726 228.329 357.726 229.074V233H356.556V228.97C356.556 228.259 356.379 227.718 356.023 227.345C355.677 226.964 355.204 226.773 354.606 226.773C353.991 226.773 353.501 226.972 353.137 227.371C352.773 227.761 352.591 228.329 352.591 229.074V233H351.408V225.876H352.591V226.903C352.825 226.53 353.137 226.244 353.527 226.045C353.926 225.846 354.364 225.746 354.84 225.746C355.438 225.746 355.967 225.88 356.426 226.149C356.886 226.418 357.228 226.812 357.453 227.332C357.653 226.829 357.982 226.439 358.441 226.162C358.901 225.885 359.412 225.746 359.975 225.746Z" fill="#475569"/>
<path d="M383.199 230.478C383.286 230.972 383.485 231.353 383.797 231.622C384.118 231.891 384.547 232.025 385.084 232.025C385.803 232.025 386.332 231.743 386.67 231.18C387.017 230.617 387.181 229.668 387.164 228.333C386.982 228.723 386.679 229.031 386.254 229.256C385.829 229.473 385.357 229.581 384.837 229.581C384.256 229.581 383.736 229.464 383.277 229.23C382.826 228.987 382.471 228.636 382.211 228.177C381.951 227.718 381.821 227.163 381.821 226.513C381.821 225.586 382.09 224.84 382.627 224.277C383.164 223.705 383.927 223.419 384.915 223.419C386.128 223.419 386.978 223.813 387.463 224.602C387.957 225.391 388.204 226.565 388.204 228.125C388.204 229.217 388.104 230.118 387.905 230.829C387.714 231.54 387.385 232.081 386.917 232.454C386.458 232.827 385.825 233.013 385.019 233.013C384.135 233.013 383.446 232.775 382.952 232.298C382.458 231.821 382.176 231.215 382.107 230.478H383.199ZM385.032 228.58C385.613 228.58 386.089 228.402 386.462 228.047C386.835 227.683 387.021 227.193 387.021 226.578C387.021 225.928 386.839 225.404 386.475 225.005C386.111 224.606 385.6 224.407 384.941 224.407C384.334 224.407 383.849 224.598 383.485 224.979C383.13 225.36 382.952 225.863 382.952 226.487C382.952 227.12 383.13 227.627 383.485 228.008C383.84 228.389 384.356 228.58 385.032 228.58ZM389.619 229.412C389.619 228.684 389.767 228.047 390.061 227.501C390.356 226.946 390.759 226.517 391.27 226.214C391.79 225.911 392.367 225.759 392.999 225.759C393.623 225.759 394.165 225.893 394.624 226.162C395.084 226.431 395.426 226.769 395.651 227.176V225.876H396.847V233H395.651V231.674C395.417 232.09 395.066 232.437 394.598 232.714C394.139 232.983 393.602 233.117 392.986 233.117C392.354 233.117 391.782 232.961 391.27 232.649C390.759 232.337 390.356 231.899 390.061 231.336C389.767 230.773 389.619 230.131 389.619 229.412ZM395.651 229.425C395.651 228.888 395.543 228.42 395.326 228.021C395.11 227.622 394.815 227.319 394.442 227.111C394.078 226.894 393.675 226.786 393.233 226.786C392.791 226.786 392.388 226.89 392.024 227.098C391.66 227.306 391.37 227.609 391.153 228.008C390.937 228.407 390.828 228.875 390.828 229.412C390.828 229.958 390.937 230.435 391.153 230.842C391.37 231.241 391.66 231.548 392.024 231.765C392.388 231.973 392.791 232.077 393.233 232.077C393.675 232.077 394.078 231.973 394.442 231.765C394.815 231.548 395.11 231.241 395.326 230.842C395.543 230.435 395.651 229.962 395.651 229.425ZM407.414 225.746C407.968 225.746 408.462 225.863 408.896 226.097C409.329 226.322 409.671 226.665 409.923 227.124C410.174 227.583 410.3 228.142 410.3 228.801V233H409.13V228.97C409.13 228.259 408.952 227.718 408.597 227.345C408.25 226.964 407.778 226.773 407.18 226.773C406.564 226.773 406.075 226.972 405.711 227.371C405.347 227.761 405.165 228.329 405.165 229.074V233H403.995V228.97C403.995 228.259 403.817 227.718 403.462 227.345C403.115 226.964 402.643 226.773 402.045 226.773C401.429 226.773 400.94 226.972 400.576 227.371C400.212 227.761 400.03 228.329 400.03 229.074V233H398.847V225.876H400.03V226.903C400.264 226.53 400.576 226.244 400.966 226.045C401.364 225.846 401.802 225.746 402.279 225.746C402.877 225.746 403.405 225.88 403.865 226.149C404.324 226.418 404.666 226.812 404.892 227.332C405.091 226.829 405.42 226.439 405.88 226.162C406.339 225.885 406.85 225.746 407.414 225.746Z" fill="#475569"/>
<path d="M428.741 224.68V223.601H431.185V233H429.989V224.68H428.741ZM433.217 228.203C433.217 226.712 433.46 225.551 433.945 224.719C434.43 223.878 435.28 223.458 436.493 223.458C437.698 223.458 438.543 223.878 439.028 224.719C439.513 225.551 439.756 226.712 439.756 228.203C439.756 229.72 439.513 230.898 439.028 231.739C438.543 232.58 437.698 233 436.493 233C435.28 233 434.43 232.58 433.945 231.739C433.46 230.898 433.217 229.72 433.217 228.203ZM438.586 228.203C438.586 227.449 438.534 226.812 438.43 226.292C438.335 225.763 438.131 225.339 437.819 225.018C437.516 224.697 437.074 224.537 436.493 224.537C435.904 224.537 435.453 224.697 435.141 225.018C434.838 225.339 434.634 225.763 434.53 226.292C434.435 226.812 434.387 227.449 434.387 228.203C434.387 228.983 434.435 229.637 434.53 230.166C434.634 230.695 434.838 231.119 435.141 231.44C435.453 231.761 435.904 231.921 436.493 231.921C437.074 231.921 437.516 231.761 437.819 231.44C438.131 231.119 438.335 230.695 438.43 230.166C438.534 229.637 438.586 228.983 438.586 228.203ZM441.133 229.412C441.133 228.684 441.281 228.047 441.575 227.501C441.87 226.946 442.273 226.517 442.784 226.214C443.304 225.911 443.881 225.759 444.513 225.759C445.137 225.759 445.679 225.893 446.138 226.162C446.598 226.431 446.94 226.769 447.165 227.176V225.876H448.361V233H447.165V231.674C446.931 232.09 446.58 232.437 446.112 232.714C445.653 232.983 445.116 233.117 444.5 233.117C443.868 233.117 443.296 232.961 442.784 232.649C442.273 232.337 441.87 231.899 441.575 231.336C441.281 230.773 441.133 230.131 441.133 229.412ZM447.165 229.425C447.165 228.888 447.057 228.42 446.84 228.021C446.624 227.622 446.329 227.319 445.956 227.111C445.592 226.894 445.189 226.786 444.747 226.786C444.305 226.786 443.902 226.89 443.538 227.098C443.174 227.306 442.884 227.609 442.667 228.008C442.451 228.407 442.342 228.875 442.342 229.412C442.342 229.958 442.451 230.435 442.667 230.842C442.884 231.241 443.174 231.548 443.538 231.765C443.902 231.973 444.305 232.077 444.747 232.077C445.189 232.077 445.592 231.973 445.956 231.765C446.329 231.548 446.624 231.241 446.84 230.842C447.057 230.435 447.165 229.962 447.165 229.425ZM458.927 225.746C459.482 225.746 459.976 225.863 460.409 226.097C460.843 226.322 461.185 226.665 461.436 227.124C461.688 227.583 461.813 228.142 461.813 228.801V233H460.643V228.97C460.643 228.259 460.466 227.718 460.11 227.345C459.764 226.964 459.291 226.773 458.693 226.773C458.078 226.773 457.588 226.972 457.224 227.371C456.86 227.761 456.678 228.329 456.678 229.074V233H455.508V228.97C455.508 228.259 455.331 227.718 454.975 227.345C454.629 226.964 454.156 226.773 453.558 226.773C452.943 226.773 452.453 226.972 452.089 227.371C451.725 227.761 451.543 228.329 451.543 229.074V233H450.36V225.876H451.543V226.903C451.777 226.53 452.089 226.244 452.479 226.045C452.878 225.846 453.316 225.746 453.792 225.746C454.39 225.746 454.919 225.88 455.378 226.149C455.838 226.418 456.18 226.812 456.405 227.332C456.605 226.829 456.934 226.439 457.393 226.162C457.853 225.885 458.364 225.746 458.927 225.746Z" fill="#475569"/>
<path d="M480.185 224.68V223.601H482.629V233H481.433V224.68H480.185ZM484.349 224.68V223.601H486.793V233H485.597V224.68H484.349ZM488.578 229.412C488.578 228.684 488.725 228.047 489.02 227.501C489.315 226.946 489.718 226.517 490.229 226.214C490.749 225.911 491.325 225.759 491.958 225.759C492.582 225.759 493.124 225.893 493.583 226.162C494.042 226.431 494.385 226.769 494.61 227.176V225.876H495.806V233H494.61V231.674C494.376 232.09 494.025 232.437 493.557 232.714C493.098 232.983 492.56 233.117 491.945 233.117C491.312 233.117 490.74 232.961 490.229 232.649C489.718 232.337 489.315 231.899 489.02 231.336C488.725 230.773 488.578 230.131 488.578 229.412ZM494.61 229.425C494.61 228.888 494.502 228.42 494.285 228.021C494.068 227.622 493.774 227.319 493.401 227.111C493.037 226.894 492.634 226.786 492.192 226.786C491.75 226.786 491.347 226.89 490.983 227.098C490.619 227.306 490.329 227.609 490.112 228.008C489.895 228.407 489.787 228.875 489.787 229.412C489.787 229.958 489.895 230.435 490.112 230.842C490.329 231.241 490.619 231.548 490.983 231.765C491.347 231.973 491.75 232.077 492.192 232.077C492.634 232.077 493.037 231.973 493.401 231.765C493.774 231.548 494.068 231.241 494.285 230.842C494.502 230.435 494.61 229.962 494.61 229.425ZM506.372 225.746C506.927 225.746 507.421 225.863 507.854 226.097C508.288 226.322 508.63 226.665 508.881 227.124C509.133 227.583 509.258 228.142 509.258 228.801V233H508.088V228.97C508.088 228.259 507.911 227.718 507.555 227.345C507.209 226.964 506.736 226.773 506.138 226.773C505.523 226.773 505.033 226.972 504.669 227.371C504.305 227.761 504.123 228.329 504.123 229.074V233H502.953V228.97C502.953 228.259 502.776 227.718 502.42 227.345C502.074 226.964 501.601 226.773 501.003 226.773C500.388 226.773 499.898 226.972 499.534 227.371C499.17 227.761 498.988 228.329 498.988 229.074V233H497.805V225.876H498.988V226.903C499.222 226.53 499.534 226.244 499.924 226.045C500.323 225.846 500.761 225.746 501.237 225.746C501.835 225.746 502.364 225.88 502.823 226.149C503.283 226.418 503.625 226.812 503.85 227.332C504.05 226.829 504.379 226.439 504.838 226.162C505.298 225.885 505.809 225.746 506.372 225.746Z" fill="#475569"/>
<path d="M527.473 224.68V223.601H529.917V233H528.721V224.68H527.473ZM531.806 232.051C532.906 231.167 533.769 230.443 534.393 229.88C535.017 229.308 535.541 228.714 535.966 228.099C536.399 227.475 536.616 226.864 536.616 226.266C536.616 225.703 536.477 225.261 536.2 224.94C535.931 224.611 535.493 224.446 534.887 224.446C534.297 224.446 533.838 224.632 533.509 225.005C533.188 225.369 533.015 225.859 532.989 226.474H531.845C531.879 225.503 532.174 224.754 532.729 224.225C533.283 223.696 533.998 223.432 534.874 223.432C535.766 223.432 536.473 223.679 536.993 224.173C537.521 224.667 537.786 225.347 537.786 226.214C537.786 226.933 537.569 227.635 537.136 228.32C536.711 228.996 536.226 229.594 535.68 230.114C535.134 230.625 534.436 231.223 533.587 231.908H538.059V232.896H531.806V232.051ZM540.804 227.189C541.038 226.782 541.385 226.444 541.844 226.175C542.312 225.898 542.854 225.759 543.469 225.759C544.102 225.759 544.674 225.911 545.185 226.214C545.705 226.517 546.113 226.946 546.407 227.501C546.702 228.047 546.849 228.684 546.849 229.412C546.849 230.131 546.702 230.773 546.407 231.336C546.113 231.899 545.705 232.337 545.185 232.649C544.674 232.961 544.102 233.117 543.469 233.117C542.863 233.117 542.325 232.983 541.857 232.714C541.398 232.437 541.047 232.094 540.804 231.687V236.38H539.621V225.876H540.804V227.189ZM545.64 229.412C545.64 228.875 545.532 228.407 545.315 228.008C545.099 227.609 544.804 227.306 544.431 227.098C544.067 226.89 543.664 226.786 543.222 226.786C542.789 226.786 542.386 226.894 542.013 227.111C541.649 227.319 541.355 227.627 541.129 228.034C540.913 228.433 540.804 228.896 540.804 229.425C540.804 229.962 540.913 230.435 541.129 230.842C541.355 231.241 541.649 231.548 542.013 231.765C542.386 231.973 542.789 232.077 543.222 232.077C543.664 232.077 544.067 231.973 544.431 231.765C544.804 231.548 545.099 231.241 545.315 230.842C545.532 230.435 545.64 229.958 545.64 229.412ZM556.974 225.746C557.528 225.746 558.022 225.863 558.456 226.097C558.889 226.322 559.231 226.665 559.483 227.124C559.734 227.583 559.86 228.142 559.86 228.801V233H558.69V228.97C558.69 228.259 558.512 227.718 558.157 227.345C557.81 226.964 557.338 226.773 556.74 226.773C556.124 226.773 555.635 226.972 555.271 227.371C554.907 227.761 554.725 228.329 554.725 229.074V233H553.555V228.97C553.555 228.259 553.377 227.718 553.022 227.345C552.675 226.964 552.203 226.773 551.605 226.773C550.989 226.773 550.5 226.972 550.136 227.371C549.772 227.761 549.59 228.329 549.59 229.074V233H548.407V225.876H549.59V226.903C549.824 226.53 550.136 226.244 550.526 226.045C550.924 225.846 551.362 225.746 551.839 225.746C552.437 225.746 552.965 225.88 553.425 226.149C553.884 226.418 554.226 226.812 554.452 227.332C554.651 226.829 554.98 226.439 555.44 226.162C555.899 225.885 556.41 225.746 556.974 225.746Z" fill="#475569"/>
<path d="M578.156 224.68V223.601H580.6V233H579.404V224.68H578.156ZM584.01 227.189C584.244 226.782 584.591 226.444 585.05 226.175C585.518 225.898 586.06 225.759 586.675 225.759C587.308 225.759 587.88 225.911 588.391 226.214C588.911 226.517 589.318 226.946 589.613 227.501C589.908 228.047 590.055 228.684 590.055 229.412C590.055 230.131 589.908 230.773 589.613 231.336C589.318 231.899 588.911 232.337 588.391 232.649C587.88 232.961 587.308 233.117 586.675 233.117C586.068 233.117 585.531 232.983 585.063 232.714C584.604 232.437 584.253 232.094 584.01 231.687V236.38H582.827V225.876H584.01V227.189ZM588.846 229.412C588.846 228.875 588.738 228.407 588.521 228.008C588.304 227.609 588.01 227.306 587.637 227.098C587.273 226.89 586.87 226.786 586.428 226.786C585.995 226.786 585.592 226.894 585.219 227.111C584.855 227.319 584.56 227.627 584.335 228.034C584.118 228.433 584.01 228.896 584.01 229.425C584.01 229.962 584.118 230.435 584.335 230.842C584.56 231.241 584.855 231.548 585.219 231.765C585.592 231.973 585.995 232.077 586.428 232.077C586.87 232.077 587.273 231.973 587.637 231.765C588.01 231.548 588.304 231.241 588.521 230.842C588.738 230.435 588.846 229.958 588.846 229.412ZM600.179 225.746C600.734 225.746 601.228 225.863 601.661 226.097C602.095 226.322 602.437 226.665 602.688 227.124C602.94 227.583 603.065 228.142 603.065 228.801V233H601.895V228.97C601.895 228.259 601.718 227.718 601.362 227.345C601.016 226.964 600.543 226.773 599.945 226.773C599.33 226.773 598.84 226.972 598.476 227.371C598.112 227.761 597.93 228.329 597.93 229.074V233H596.76V228.97C596.76 228.259 596.583 227.718 596.227 227.345C595.881 226.964 595.408 226.773 594.81 226.773C594.195 226.773 593.705 226.972 593.341 227.371C592.977 227.761 592.795 228.329 592.795 229.074V233H591.612V225.876H592.795V226.903C593.029 226.53 593.341 226.244 593.731 226.045C594.13 225.846 594.568 225.746 595.044 225.746C595.642 225.746 596.171 225.88 596.63 226.149C597.09 226.418 597.432 226.812 597.657 227.332C597.857 226.829 598.186 226.439 598.645 226.162C599.105 225.885 599.616 225.746 600.179 225.746Z" fill="#475569"/>
<path d="M621.613 232.051C622.713 231.167 623.576 230.443 624.2 229.88C624.824 229.308 625.348 228.714 625.773 228.099C626.206 227.475 626.423 226.864 626.423 226.266C626.423 225.703 626.284 225.261 626.007 224.94C625.738 224.611 625.3 224.446 624.694 224.446C624.104 224.446 623.645 224.632 623.316 225.005C622.995 225.369 622.822 225.859 622.796 226.474H621.652C621.686 225.503 621.981 224.754 622.536 224.225C623.09 223.696 623.805 223.432 624.681 223.432C625.573 223.432 626.28 223.679 626.8 224.173C627.328 224.667 627.593 225.347 627.593 226.214C627.593 226.933 627.376 227.635 626.943 228.32C626.518 228.996 626.033 229.594 625.487 230.114C624.941 230.625 624.243 231.223 623.394 231.908H627.866V232.896H621.613V232.051ZM630.611 227.189C630.845 226.782 631.192 226.444 631.651 226.175C632.119 225.898 632.661 225.759 633.276 225.759C633.909 225.759 634.481 225.911 634.992 226.214C635.512 226.517 635.92 226.946 636.214 227.501C636.509 228.047 636.656 228.684 636.656 229.412C636.656 230.131 636.509 230.773 636.214 231.336C635.92 231.899 635.512 232.337 634.992 232.649C634.481 232.961 633.909 233.117 633.276 233.117C632.67 233.117 632.132 232.983 631.664 232.714C631.205 232.437 630.854 232.094 630.611 231.687V236.38H629.428V225.876H630.611V227.189ZM635.447 229.412C635.447 228.875 635.339 228.407 635.122 228.008C634.906 227.609 634.611 227.306 634.238 227.098C633.874 226.89 633.471 226.786 633.029 226.786C632.596 226.786 632.193 226.894 631.82 227.111C631.456 227.319 631.162 227.627 630.936 228.034C630.72 228.433 630.611 228.896 630.611 229.425C630.611 229.962 630.72 230.435 630.936 230.842C631.162 231.241 631.456 231.548 631.82 231.765C632.193 231.973 632.596 232.077 633.029 232.077C633.471 232.077 633.874 231.973 634.238 231.765C634.611 231.548 634.906 231.241 635.122 230.842C635.339 230.435 635.447 229.958 635.447 229.412ZM646.78 225.746C647.335 225.746 647.829 225.863 648.262 226.097C648.696 226.322 649.038 226.665 649.289 227.124C649.541 227.583 649.666 228.142 649.666 228.801V233H648.496V228.97C648.496 228.259 648.319 227.718 647.963 227.345C647.617 226.964 647.144 226.773 646.546 226.773C645.931 226.773 645.441 226.972 645.077 227.371C644.713 227.761 644.531 228.329 644.531 229.074V233H643.361V228.97C643.361 228.259 643.184 227.718 642.828 227.345C642.482 226.964 642.009 226.773 641.411 226.773C640.796 226.773 640.306 226.972 639.942 227.371C639.578 227.761 639.396 228.329 639.396 229.074V233H638.213V225.876H639.396V226.903C639.63 226.53 639.942 226.244 640.332 226.045C640.731 225.846 641.169 225.746 641.645 225.746C642.243 225.746 642.772 225.88 643.231 226.149C643.691 226.418 644.033 226.812 644.258 227.332C644.458 226.829 644.787 226.439 645.246 226.162C645.706 225.885 646.217 225.746 646.78 225.746Z" fill="#475569"/>
<path d="M668.085 225.967C668.146 225.17 668.454 224.546 669.008 224.095C669.563 223.644 670.282 223.419 671.166 223.419C671.756 223.419 672.263 223.527 672.687 223.744C673.121 223.952 673.446 224.238 673.662 224.602C673.888 224.966 674 225.378 674 225.837C674 226.374 673.844 226.838 673.532 227.228C673.229 227.618 672.83 227.869 672.336 227.982V228.047C672.9 228.186 673.346 228.459 673.675 228.866C674.005 229.273 674.169 229.806 674.169 230.465C674.169 230.959 674.057 231.405 673.831 231.804C673.606 232.194 673.268 232.502 672.817 232.727C672.367 232.952 671.825 233.065 671.192 233.065C670.274 233.065 669.52 232.827 668.93 232.35C668.341 231.865 668.012 231.18 667.942 230.296H669.086C669.147 230.816 669.359 231.241 669.723 231.57C670.087 231.899 670.573 232.064 671.179 232.064C671.786 232.064 672.245 231.908 672.557 231.596C672.878 231.275 673.038 230.864 673.038 230.361C673.038 229.711 672.822 229.243 672.388 228.957C671.955 228.671 671.301 228.528 670.425 228.528H670.126V227.54H670.438C671.236 227.531 671.838 227.401 672.245 227.15C672.653 226.89 672.856 226.491 672.856 225.954C672.856 225.495 672.705 225.126 672.401 224.849C672.107 224.572 671.682 224.433 671.127 224.433C670.59 224.433 670.157 224.572 669.827 224.849C669.498 225.126 669.303 225.499 669.242 225.967H668.085ZM677.144 227.189C677.378 226.782 677.725 226.444 678.184 226.175C678.652 225.898 679.194 225.759 679.809 225.759C680.442 225.759 681.014 225.911 681.525 226.214C682.045 226.517 682.453 226.946 682.747 227.501C683.042 228.047 683.189 228.684 683.189 229.412C683.189 230.131 683.042 230.773 682.747 231.336C682.453 231.899 682.045 232.337 681.525 232.649C681.014 232.961 680.442 233.117 679.809 233.117C679.203 233.117 678.665 232.983 678.197 232.714C677.738 232.437 677.387 232.094 677.144 231.687V236.38H675.961V225.876H677.144V227.189ZM681.98 229.412C681.98 228.875 681.872 228.407 681.655 228.008C681.439 227.609 681.144 227.306 680.771 227.098C680.407 226.89 680.004 226.786 679.562 226.786C679.129 226.786 678.726 226.894 678.353 227.111C677.989 227.319 677.695 227.627 677.469 228.034C677.253 228.433 677.144 228.896 677.144 229.425C677.144 229.962 677.253 230.435 677.469 230.842C677.695 231.241 677.989 231.548 678.353 231.765C678.726 231.973 679.129 232.077 679.562 232.077C680.004 232.077 680.407 231.973 680.771 231.765C681.144 231.548 681.439 231.241 681.655 230.842C681.872 230.435 681.98 229.958 681.98 229.412ZM693.314 225.746C693.868 225.746 694.362 225.863 694.796 226.097C695.229 226.322 695.571 226.665 695.823 227.124C696.074 227.583 696.2 228.142 696.2 228.801V233H695.03V228.97C695.03 228.259 694.852 227.718 694.497 227.345C694.15 226.964 693.678 226.773 693.08 226.773C692.464 226.773 691.975 226.972 691.611 227.371C691.247 227.761 691.065 228.329 691.065 229.074V233H689.895V228.97C689.895 228.259 689.717 227.718 689.362 227.345C689.015 226.964 688.543 226.773 687.945 226.773C687.329 226.773 686.84 226.972 686.476 227.371C686.112 227.761 685.93 228.329 685.93 229.074V233H684.747V225.876H685.93V226.903C686.164 226.53 686.476 226.244 686.866 226.045C687.264 225.846 687.702 225.746 688.179 225.746C688.777 225.746 689.305 225.88 689.765 226.149C690.224 226.418 690.566 226.812 690.792 227.332C690.991 226.829 691.32 226.439 691.78 226.162C692.239 225.885 692.75 225.746 693.314 225.746Z" fill="#475569"/>
<path d="M714.51 230.907V230.01L719.073 223.692H720.49V229.88H721.79V230.907H720.49V233H719.32V230.907H714.51ZM719.372 224.927L715.875 229.88H719.372V224.927ZM724.349 227.189C724.583 226.782 724.93 226.444 725.389 226.175C725.857 225.898 726.399 225.759 727.014 225.759C727.647 225.759 728.219 225.911 728.73 226.214C729.25 226.517 729.658 226.946 729.952 227.501C730.247 228.047 730.394 228.684 730.394 229.412C730.394 230.131 730.247 230.773 729.952 231.336C729.658 231.899 729.25 232.337 728.73 232.649C728.219 232.961 727.647 233.117 727.014 233.117C726.408 233.117 725.87 232.983 725.402 232.714C724.943 232.437 724.592 232.094 724.349 231.687V236.38H723.166V225.876H724.349V227.189ZM729.185 229.412C729.185 228.875 729.077 228.407 728.86 228.008C728.644 227.609 728.349 227.306 727.976 227.098C727.612 226.89 727.209 226.786 726.767 226.786C726.334 226.786 725.931 226.894 725.558 227.111C725.194 227.319 724.9 227.627 724.674 228.034C724.458 228.433 724.349 228.896 724.349 229.425C724.349 229.962 724.458 230.435 724.674 230.842C724.9 231.241 725.194 231.548 725.558 231.765C725.931 231.973 726.334 232.077 726.767 232.077C727.209 232.077 727.612 231.973 727.976 231.765C728.349 231.548 728.644 231.241 728.86 230.842C729.077 230.435 729.185 229.958 729.185 229.412ZM740.518 225.746C741.073 225.746 741.567 225.863 742 226.097C742.434 226.322 742.776 226.665 743.027 227.124C743.279 227.583 743.404 228.142 743.404 228.801V233H742.234V228.97C742.234 228.259 742.057 227.718 741.701 227.345C741.355 226.964 740.882 226.773 740.284 226.773C739.669 226.773 739.179 226.972 738.815 227.371C738.451 227.761 738.269 228.329 738.269 229.074V233H737.099V228.97C737.099 228.259 736.922 227.718 736.566 227.345C736.22 226.964 735.747 226.773 735.149 226.773C734.534 226.773 734.044 226.972 733.68 227.371C733.316 227.761 733.134 228.329 733.134 229.074V233H731.951V225.876H733.134V226.903C733.368 226.53 733.68 226.244 734.07 226.045C734.469 225.846 734.907 225.746 735.383 225.746C735.981 225.746 736.51 225.88 736.969 226.149C737.429 226.418 737.771 226.812 737.996 227.332C738.196 226.829 738.525 226.439 738.984 226.162C739.444 225.885 739.955 225.746 740.518 225.746Z" fill="#475569"/>
<path d="M768.239 224.628H763.676V227.592C763.876 227.315 764.17 227.089 764.56 226.916C764.95 226.734 765.371 226.643 765.821 226.643C766.541 226.643 767.126 226.795 767.576 227.098C768.027 227.393 768.348 227.778 768.538 228.255C768.738 228.723 768.837 229.221 768.837 229.75C768.837 230.374 768.72 230.933 768.486 231.427C768.252 231.921 767.893 232.311 767.407 232.597C766.931 232.883 766.337 233.026 765.626 233.026C764.716 233.026 763.98 232.792 763.416 232.324C762.853 231.856 762.511 231.232 762.389 230.452H763.546C763.659 230.946 763.897 231.332 764.261 231.609C764.625 231.886 765.085 232.025 765.639 232.025C766.324 232.025 766.84 231.821 767.186 231.414C767.533 230.998 767.706 230.452 767.706 229.776C767.706 229.1 767.533 228.58 767.186 228.216C766.84 227.843 766.328 227.657 765.652 227.657C765.193 227.657 764.79 227.77 764.443 227.995C764.105 228.212 763.858 228.511 763.702 228.892H762.584V223.588H768.239V224.628ZM771.788 227.189C772.022 226.782 772.368 226.444 772.828 226.175C773.296 225.898 773.837 225.759 774.453 225.759C775.085 225.759 775.657 225.911 776.169 226.214C776.689 226.517 777.096 226.946 777.391 227.501C777.685 228.047 777.833 228.684 777.833 229.412C777.833 230.131 777.685 230.773 777.391 231.336C777.096 231.899 776.689 232.337 776.169 232.649C775.657 232.961 775.085 233.117 774.453 233.117C773.846 233.117 773.309 232.983 772.841 232.714C772.381 232.437 772.03 232.094 771.788 231.687V236.38H770.605V225.876H771.788V227.189ZM776.624 229.412C776.624 228.875 776.515 228.407 776.299 228.008C776.082 227.609 775.787 227.306 775.415 227.098C775.051 226.89 774.648 226.786 774.206 226.786C773.772 226.786 773.369 226.894 772.997 227.111C772.633 227.319 772.338 227.627 772.113 228.034C771.896 228.433 771.788 228.896 771.788 229.425C771.788 229.962 771.896 230.435 772.113 230.842C772.338 231.241 772.633 231.548 772.997 231.765C773.369 231.973 773.772 232.077 774.206 232.077C774.648 232.077 775.051 231.973 775.415 231.765C775.787 231.548 776.082 231.241 776.299 230.842C776.515 230.435 776.624 229.958 776.624 229.412ZM787.957 225.746C788.511 225.746 789.005 225.863 789.439 226.097C789.872 226.322 790.214 226.665 790.466 227.124C790.717 227.583 790.843 228.142 790.843 228.801V233H789.673V228.97C789.673 228.259 789.495 227.718 789.14 227.345C788.793 226.964 788.321 226.773 787.723 226.773C787.107 226.773 786.618 226.972 786.254 227.371C785.89 227.761 785.708 228.329 785.708 229.074V233H784.538V228.97C784.538 228.259 784.36 227.718 784.005 227.345C783.658 226.964 783.186 226.773 782.588 226.773C781.972 226.773 781.483 226.972 781.119 227.371C780.755 227.761 780.573 228.329 780.573 229.074V233H779.39V225.876H780.573V226.903C780.807 226.53 781.119 226.244 781.509 226.045C781.907 225.846 782.345 225.746 782.822 225.746C783.42 225.746 783.948 225.88 784.408 226.149C784.867 226.418 785.209 226.812 785.435 227.332C785.634 226.829 785.963 226.439 786.423 226.162C786.882 225.885 787.393 225.746 787.957 225.746Z" fill="#475569"/>
<path d="M814.885 225.837C814.695 224.875 814.101 224.394 813.104 224.394C812.333 224.394 811.757 224.693 811.375 225.291C810.994 225.88 810.808 226.855 810.816 228.216C811.016 227.765 811.345 227.414 811.804 227.163C812.272 226.903 812.792 226.773 813.364 226.773C814.257 226.773 814.968 227.05 815.496 227.605C816.034 228.16 816.302 228.927 816.302 229.906C816.302 230.495 816.185 231.024 815.951 231.492C815.726 231.96 815.379 232.333 814.911 232.61C814.452 232.887 813.893 233.026 813.234 233.026C812.342 233.026 811.644 232.827 811.141 232.428C810.639 232.029 810.288 231.479 810.088 230.777C809.889 230.075 809.789 229.208 809.789 228.177C809.789 224.996 810.899 223.406 813.117 223.406C813.967 223.406 814.634 223.636 815.119 224.095C815.605 224.554 815.891 225.135 815.977 225.837H814.885ZM813.117 227.774C812.745 227.774 812.394 227.852 812.064 228.008C811.735 228.155 811.466 228.385 811.258 228.697C811.059 229 810.959 229.373 810.959 229.815C810.959 230.474 811.15 231.011 811.531 231.427C811.913 231.834 812.459 232.038 813.169 232.038C813.776 232.038 814.257 231.852 814.612 231.479C814.976 231.098 815.158 230.586 815.158 229.945C815.158 229.269 814.985 228.74 814.638 228.359C814.292 227.969 813.785 227.774 813.117 227.774ZM819.276 227.189C819.51 226.782 819.857 226.444 820.316 226.175C820.784 225.898 821.326 225.759 821.941 225.759C822.574 225.759 823.146 225.911 823.657 226.214C824.177 226.517 824.585 226.946 824.879 227.501C825.174 228.047 825.321 228.684 825.321 229.412C825.321 230.131 825.174 230.773 824.879 231.336C824.585 231.899 824.177 232.337 823.657 232.649C823.146 232.961 822.574 233.117 821.941 233.117C821.335 233.117 820.797 232.983 820.329 232.714C819.87 232.437 819.519 232.094 819.276 231.687V236.38H818.093V225.876H819.276V227.189ZM824.112 229.412C824.112 228.875 824.004 228.407 823.787 228.008C823.571 227.609 823.276 227.306 822.903 227.098C822.539 226.89 822.136 226.786 821.694 226.786C821.261 226.786 820.858 226.894 820.485 227.111C820.121 227.319 819.827 227.627 819.601 228.034C819.385 228.433 819.276 228.896 819.276 229.425C819.276 229.962 819.385 230.435 819.601 230.842C819.827 231.241 820.121 231.548 820.485 231.765C820.858 231.973 821.261 232.077 821.694 232.077C822.136 232.077 822.539 231.973 822.903 231.765C823.276 231.548 823.571 231.241 823.787 230.842C824.004 230.435 824.112 229.958 824.112 229.412ZM835.445 225.746C836 225.746 836.494 225.863 836.927 226.097C837.361 226.322 837.703 226.665 837.954 227.124C838.206 227.583 838.331 228.142 838.331 228.801V233H837.161V228.97C837.161 228.259 836.984 227.718 836.628 227.345C836.282 226.964 835.809 226.773 835.211 226.773C834.596 226.773 834.106 226.972 833.742 227.371C833.378 227.761 833.196 228.329 833.196 229.074V233H832.026V228.97C832.026 228.259 831.849 227.718 831.493 227.345C831.147 226.964 830.674 226.773 830.076 226.773C829.461 226.773 828.971 226.972 828.607 227.371C828.243 227.761 828.061 228.329 828.061 229.074V233H826.878V225.876H828.061V226.903C828.295 226.53 828.607 226.244 828.997 226.045C829.396 225.846 829.834 225.746 830.31 225.746C830.908 225.746 831.437 225.88 831.896 226.149C832.356 226.418 832.698 226.812 832.923 227.332C833.123 226.829 833.452 226.439 833.911 226.162C834.371 225.885 834.882 225.746 835.445 225.746Z" fill="#475569"/>
<path d="M862.953 224.524L859.339 233H858.143L861.809 224.641H856.791V223.627H862.953V224.524ZM865.643 227.189C865.877 226.782 866.224 226.444 866.683 226.175C867.151 225.898 867.693 225.759 868.308 225.759C868.941 225.759 869.513 225.911 870.024 226.214C870.544 226.517 870.951 226.946 871.246 227.501C871.541 228.047 871.688 228.684 871.688 229.412C871.688 230.131 871.541 230.773 871.246 231.336C870.951 231.899 870.544 232.337 870.024 232.649C869.513 232.961 868.941 233.117 868.308 233.117C867.701 233.117 867.164 232.983 866.696 232.714C866.237 232.437 865.886 232.094 865.643 231.687V236.38H864.46V225.876H865.643V227.189ZM870.479 229.412C870.479 228.875 870.371 228.407 870.154 228.008C869.937 227.609 869.643 227.306 869.27 227.098C868.906 226.89 868.503 226.786 868.061 226.786C867.628 226.786 867.225 226.894 866.852 227.111C866.488 227.319 866.193 227.627 865.968 228.034C865.751 228.433 865.643 228.896 865.643 229.425C865.643 229.962 865.751 230.435 865.968 230.842C866.193 231.241 866.488 231.548 866.852 231.765C867.225 231.973 867.628 232.077 868.061 232.077C868.503 232.077 868.906 231.973 869.27 231.765C869.643 231.548 869.937 231.241 870.154 230.842C870.371 230.435 870.479 229.958 870.479 229.412ZM881.812 225.746C882.367 225.746 882.861 225.863 883.294 226.097C883.727 226.322 884.07 226.665 884.321 227.124C884.572 227.583 884.698 228.142 884.698 228.801V233H883.528V228.97C883.528 228.259 883.35 227.718 882.995 227.345C882.648 226.964 882.176 226.773 881.578 226.773C880.963 226.773 880.473 226.972 880.109 227.371C879.745 227.761 879.563 228.329 879.563 229.074V233H878.393V228.97C878.393 228.259 878.215 227.718 877.86 227.345C877.513 226.964 877.041 226.773 876.443 226.773C875.828 226.773 875.338 226.972 874.974 227.371C874.61 227.761 874.428 228.329 874.428 229.074V233H873.245V225.876H874.428V226.903C874.662 226.53 874.974 226.244 875.364 226.045C875.763 225.846 876.2 225.746 876.677 225.746C877.275 225.746 877.804 225.88 878.263 226.149C878.722 226.418 879.065 226.812 879.29 227.332C879.489 226.829 879.819 226.439 880.278 226.162C880.737 225.885 881.249 225.746 881.812 225.746Z" fill="#475569"/>
<g filter="url(#filter0_d_239_2023)">
<rect x="251" y="60" width="148" height="65" rx="8" fill="white" shape-rendering="crispEdges"/>
<path d="M264.682 77.941C264.682 76.6797 264.887 75.697 265.298 74.993C265.709 74.2817 266.427 73.926 267.454 73.926C268.473 73.926 269.188 74.2817 269.599 74.993C270.01 75.697 270.215 76.6797 270.215 77.941C270.215 79.2243 270.01 80.2217 269.599 80.933C269.188 81.6443 268.473 82 267.454 82C266.427 82 265.709 81.6443 265.298 80.933C264.887 80.2217 264.682 79.2243 264.682 77.941ZM269.225 77.941C269.225 77.303 269.181 76.764 269.093 76.324C269.012 75.8767 268.84 75.5173 268.576 75.246C268.319 74.9747 267.945 74.839 267.454 74.839C266.955 74.839 266.574 74.9747 266.31 75.246C266.053 75.5173 265.881 75.8767 265.793 76.324C265.712 76.764 265.672 77.303 265.672 77.941C265.672 78.601 265.712 79.1547 265.793 79.602C265.881 80.0493 266.053 80.4087 266.31 80.68C266.574 80.9513 266.955 81.087 267.454 81.087C267.945 81.087 268.319 80.9513 268.576 80.68C268.84 80.4087 269.012 80.0493 269.093 79.602C269.181 79.1547 269.225 78.601 269.225 77.941ZM271.347 80.229V79.47L275.208 74.124H276.407V79.36H277.507V80.229H276.407V82H275.417V80.229H271.347ZM275.461 75.169L272.502 79.36H275.461V75.169ZM286.137 80.295H282.793L282.177 82H281.121L283.893 74.377H285.048L287.809 82H286.753L286.137 80.295ZM285.851 79.481L284.465 75.609L283.079 79.481H285.851ZM290.018 77.083C290.216 76.7383 290.509 76.4523 290.898 76.225C291.294 75.9903 291.752 75.873 292.273 75.873C292.808 75.873 293.292 76.0013 293.725 76.258C294.165 76.5147 294.51 76.8777 294.759 77.347C295.008 77.809 295.133 78.348 295.133 78.964C295.133 79.5727 295.008 80.1153 294.759 80.592C294.51 81.0687 294.165 81.439 293.725 81.703C293.292 81.967 292.808 82.099 292.273 82.099C291.76 82.099 291.305 81.9853 290.909 81.758C290.52 81.5233 290.223 81.2337 290.018 80.889V84.86H289.017V75.972H290.018V77.083ZM294.11 78.964C294.11 78.5093 294.018 78.1133 293.835 77.776C293.652 77.4387 293.402 77.182 293.087 77.006C292.779 76.83 292.438 76.742 292.064 76.742C291.697 76.742 291.356 76.8337 291.041 77.017C290.733 77.193 290.484 77.4533 290.293 77.798C290.11 78.1353 290.018 78.5277 290.018 78.975C290.018 79.4297 290.11 79.8293 290.293 80.174C290.484 80.5113 290.733 80.7717 291.041 80.955C291.356 81.131 291.697 81.219 292.064 81.219C292.438 81.219 292.779 81.131 293.087 80.955C293.402 80.7717 293.652 80.5113 293.835 80.174C294.018 79.8293 294.11 79.426 294.11 78.964ZM297.452 76.951C297.628 76.6063 297.877 76.3387 298.2 76.148C298.53 75.9573 298.929 75.862 299.399 75.862V76.896H299.135C298.013 76.896 297.452 77.5047 297.452 78.722V82H296.451V75.972H297.452V76.951ZM301.071 74.993C300.88 74.993 300.719 74.927 300.587 74.795C300.455 74.663 300.389 74.5017 300.389 74.311C300.389 74.1203 300.455 73.959 300.587 73.827C300.719 73.695 300.88 73.629 301.071 73.629C301.254 73.629 301.408 73.695 301.533 73.827C301.665 73.959 301.731 74.1203 301.731 74.311C301.731 74.5017 301.665 74.663 301.533 74.795C301.408 74.927 301.254 74.993 301.071 74.993ZM301.555 75.972V82H300.554V75.972H301.555ZM304.262 73.86V82H303.261V73.86H304.262ZM307.002 80.614L305.77 83.573H305.099L305.902 80.614H307.002ZM310.795 81.197C311.727 80.449 312.456 79.8367 312.984 79.36C313.512 78.876 313.956 78.3737 314.315 77.853C314.682 77.325 314.865 76.808 314.865 76.302C314.865 75.8253 314.748 75.4513 314.513 75.18C314.286 74.9013 313.916 74.762 313.402 74.762C312.904 74.762 312.515 74.9197 312.236 75.235C311.965 75.543 311.818 75.9573 311.796 76.478H310.828C310.858 75.6567 311.107 75.0223 311.576 74.575C312.046 74.1277 312.651 73.904 313.391 73.904C314.147 73.904 314.744 74.113 315.184 74.531C315.632 74.949 315.855 75.5247 315.855 76.258C315.855 76.8667 315.672 77.4607 315.305 78.04C314.946 78.612 314.535 79.118 314.073 79.558C313.611 79.9907 313.021 80.4967 312.302 81.076H316.086V81.912H310.795V81.197ZM317.244 77.941C317.244 76.6797 317.449 75.697 317.86 74.993C318.27 74.2817 318.989 73.926 320.016 73.926C321.035 73.926 321.75 74.2817 322.161 74.993C322.571 75.697 322.777 76.6797 322.777 77.941C322.777 79.2243 322.571 80.2217 322.161 80.933C321.75 81.6443 321.035 82 320.016 82C318.989 82 318.27 81.6443 317.86 80.933C317.449 80.2217 317.244 79.2243 317.244 77.941ZM321.787 77.941C321.787 77.303 321.743 76.764 321.655 76.324C321.574 75.8767 321.402 75.5173 321.138 75.246C320.881 74.9747 320.507 74.839 320.016 74.839C319.517 74.839 319.136 74.9747 318.872 75.246C318.615 75.5173 318.443 75.8767 318.355 76.324C318.274 76.764 318.234 77.303 318.234 77.941C318.234 78.601 318.274 79.1547 318.355 79.602C318.443 80.0493 318.615 80.4087 318.872 80.68C319.136 80.9513 319.517 81.087 320.016 81.087C320.507 81.087 320.881 80.9513 321.138 80.68C321.402 80.4087 321.574 80.0493 321.655 79.602C321.743 79.1547 321.787 78.601 321.787 77.941ZM324.03 81.197C324.961 80.449 325.691 79.8367 326.219 79.36C326.747 78.876 327.19 78.3737 327.55 77.853C327.916 77.325 328.1 76.808 328.1 76.302C328.1 75.8253 327.982 75.4513 327.748 75.18C327.52 74.9013 327.15 74.762 326.637 74.762C326.138 74.762 325.749 74.9197 325.471 75.235C325.199 75.543 325.053 75.9573 325.031 76.478H324.063C324.092 75.6567 324.341 75.0223 324.811 74.575C325.28 74.1277 325.885 73.904 326.626 73.904C327.381 73.904 327.979 74.113 328.419 74.531C328.866 74.949 329.09 75.5247 329.09 76.258C329.09 76.8667 328.906 77.4607 328.54 78.04C328.18 78.612 327.77 79.118 327.308 79.558C326.846 79.9907 326.255 80.4967 325.537 81.076H329.321V81.912H324.03V81.197ZM330.236 80.229V79.47L334.097 74.124H335.296V79.36H336.396V80.229H335.296V82H334.306V80.229H330.236ZM334.35 75.169L331.391 79.36H334.35V75.169ZM348.156 74.828L345.098 82H344.086L347.188 74.927H342.942V74.069H348.156V74.828ZM349.75 82.066C349.559 82.066 349.398 82 349.266 81.868C349.134 81.736 349.068 81.5747 349.068 81.384C349.068 81.1933 349.134 81.032 349.266 80.9C349.398 80.768 349.559 80.702 349.75 80.702C349.933 80.702 350.087 80.768 350.212 80.9C350.344 81.032 350.41 81.1933 350.41 81.384C350.41 81.5747 350.344 81.736 350.212 81.868C350.087 82 349.933 82.066 349.75 82.066ZM349.75 77.358C349.559 77.358 349.398 77.292 349.266 77.16C349.134 77.028 349.068 76.8667 349.068 76.676C349.068 76.4853 349.134 76.324 349.266 76.192C349.398 76.06 349.559 75.994 349.75 75.994C349.933 75.994 350.087 76.06 350.212 76.192C350.344 76.324 350.41 76.4853 350.41 76.676C350.41 76.8667 350.344 77.028 350.212 77.16C350.087 77.292 349.933 77.358 349.75 77.358ZM351.586 76.049C351.637 75.3743 351.897 74.8463 352.367 74.465C352.836 74.0837 353.445 73.893 354.193 73.893C354.691 73.893 355.12 73.9847 355.48 74.168C355.846 74.344 356.121 74.586 356.305 74.894C356.495 75.202 356.591 75.5503 356.591 75.939C356.591 76.3937 356.459 76.786 356.195 77.116C355.938 77.446 355.601 77.6587 355.183 77.754V77.809C355.659 77.9263 356.037 78.1573 356.316 78.502C356.594 78.8467 356.734 79.2977 356.734 79.855C356.734 80.273 356.638 80.6507 356.448 80.988C356.257 81.318 355.971 81.5783 355.59 81.769C355.208 81.9597 354.75 82.055 354.215 82.055C353.437 82.055 352.799 81.8533 352.301 81.45C351.802 81.0393 351.523 80.46 351.465 79.712H352.433C352.484 80.152 352.664 80.5113 352.972 80.79C353.28 81.0687 353.69 81.208 354.204 81.208C354.717 81.208 355.106 81.076 355.37 80.812C355.641 80.5407 355.777 80.1923 355.777 79.767C355.777 79.217 355.593 78.821 355.227 78.579C354.86 78.337 354.306 78.216 353.566 78.216H353.313V77.38H353.577C354.251 77.3727 354.761 77.2627 355.106 77.05C355.45 76.83 355.623 76.4927 355.623 76.038C355.623 75.6493 355.494 75.3377 355.238 75.103C354.988 74.8683 354.629 74.751 354.16 74.751C353.705 74.751 353.338 74.8683 353.06 75.103C352.781 75.3377 352.616 75.653 352.565 76.049H351.586ZM358.085 77.941C358.085 76.6797 358.291 75.697 358.701 74.993C359.112 74.2817 359.831 73.926 360.857 73.926C361.877 73.926 362.592 74.2817 363.002 74.993C363.413 75.697 363.618 76.6797 363.618 77.941C363.618 79.2243 363.413 80.2217 363.002 80.933C362.592 81.6443 361.877 82 360.857 82C359.831 82 359.112 81.6443 358.701 80.933C358.291 80.2217 358.085 79.2243 358.085 77.941ZM362.628 77.941C362.628 77.303 362.584 76.764 362.496 76.324C362.416 75.8767 362.243 75.5173 361.979 75.246C361.723 74.9747 361.349 74.839 360.857 74.839C360.359 74.839 359.977 74.9747 359.713 75.246C359.457 75.5173 359.284 75.8767 359.196 76.324C359.116 76.764 359.075 77.303 359.075 77.941C359.075 78.601 359.116 79.1547 359.196 79.602C359.284 80.0493 359.457 80.4087 359.713 80.68C359.977 80.9513 360.359 81.087 360.857 81.087C361.349 81.087 361.723 80.9513 361.979 80.68C362.243 80.4087 362.416 80.0493 362.496 79.602C362.584 79.1547 362.628 78.601 362.628 77.941ZM364.784 78.964C364.784 78.348 364.908 77.809 365.158 77.347C365.407 76.8777 365.748 76.5147 366.181 76.258C366.621 76.0013 367.108 75.873 367.644 75.873C368.172 75.873 368.63 75.9867 369.019 76.214C369.407 76.4413 369.697 76.7273 369.888 77.072V75.972H370.9V82H369.888V80.878C369.69 81.23 369.393 81.5233 368.997 81.758C368.608 81.9853 368.153 82.099 367.633 82.099C367.097 82.099 366.613 81.967 366.181 81.703C365.748 81.439 365.407 81.0687 365.158 80.592C364.908 80.1153 364.784 79.5727 364.784 78.964ZM369.888 78.975C369.888 78.5203 369.796 78.1243 369.613 77.787C369.429 77.4497 369.18 77.193 368.865 77.017C368.557 76.8337 368.216 76.742 367.842 76.742C367.468 76.742 367.127 76.83 366.819 77.006C366.511 77.182 366.265 77.4387 366.082 77.776C365.898 78.1133 365.807 78.5093 365.807 78.964C365.807 79.426 365.898 79.8293 366.082 80.174C366.265 80.5113 366.511 80.7717 366.819 80.955C367.127 81.131 367.468 81.219 367.842 81.219C368.216 81.219 368.557 81.131 368.865 80.955C369.18 80.7717 369.429 80.5113 369.613 80.174C369.796 79.8293 369.888 79.4297 369.888 78.975ZM379.84 75.862C380.309 75.862 380.727 75.961 381.094 76.159C381.461 76.3497 381.75 76.6393 381.963 77.028C382.176 77.4167 382.282 77.8897 382.282 78.447V82H381.292V78.59C381.292 77.9887 381.142 77.5303 380.841 77.215C380.548 76.8923 380.148 76.731 379.642 76.731C379.121 76.731 378.707 76.8997 378.399 77.237C378.091 77.567 377.937 78.0473 377.937 78.678V82H376.947V78.59C376.947 77.9887 376.797 77.5303 376.496 77.215C376.203 76.8923 375.803 76.731 375.297 76.731C374.776 76.731 374.362 76.8997 374.054 77.237C373.746 77.567 373.592 78.0473 373.592 78.678V82H372.591V75.972H373.592V76.841C373.79 76.5257 374.054 76.2837 374.384 76.115C374.721 75.9463 375.092 75.862 375.495 75.862C376.001 75.862 376.448 75.9757 376.837 76.203C377.226 76.4303 377.515 76.764 377.706 77.204C377.875 76.7787 378.153 76.4487 378.542 76.214C378.931 75.9793 379.363 75.862 379.84 75.862Z" fill="#475569"/>
<circle cx="4" cy="4" r="4" transform="matrix(-1 0 0 1 272 99)" fill="#7E27FE"/>
<path d="M282.096 97.848V99.032H279.056V109H277.6V99.032H274.544V97.848H282.096ZM292.656 109H291.2L285.344 100.12V109H283.888V97.832H285.344L291.2 106.696V97.832H292.656V109ZM304.354 97.848L300.146 109H298.466L294.258 97.848H295.81L299.314 107.464L302.818 97.848H304.354ZM313.784 101.432H311.944V109H310.488V101.432H309.352V100.232H310.488V99.608C310.488 98.6267 310.739 97.912 311.24 97.464C311.752 97.0053 312.568 96.776 313.688 96.776V97.992C313.048 97.992 312.595 98.12 312.328 98.376C312.072 98.6213 311.944 99.032 311.944 99.608V100.232H313.784V101.432ZM323.482 104.28C323.482 104.557 323.466 104.851 323.434 105.16H316.426C316.479 106.024 316.773 106.701 317.306 107.192C317.85 107.672 318.506 107.912 319.274 107.912C319.903 107.912 320.426 107.768 320.842 107.48C321.269 107.181 321.567 106.787 321.738 106.296H323.306C323.071 107.139 322.602 107.827 321.898 108.36C321.194 108.883 320.319 109.144 319.274 109.144C318.442 109.144 317.695 108.957 317.034 108.584C316.383 108.211 315.871 107.683 315.498 107C315.125 106.307 314.938 105.507 314.938 104.6C314.938 103.693 315.119 102.899 315.482 102.216C315.845 101.533 316.351 101.011 317.002 100.648C317.663 100.275 318.421 100.088 319.274 100.088C320.106 100.088 320.842 100.269 321.482 100.632C322.122 100.995 322.613 101.496 322.954 102.136C323.306 102.765 323.482 103.48 323.482 104.28ZM321.978 103.976C321.978 103.421 321.855 102.947 321.61 102.552C321.365 102.147 321.029 101.843 320.602 101.64C320.186 101.427 319.722 101.32 319.21 101.32C318.474 101.32 317.845 101.555 317.322 102.024C316.81 102.493 316.517 103.144 316.442 103.976H321.978ZM333.404 104.28C333.404 104.557 333.388 104.851 333.356 105.16H326.348C326.401 106.024 326.695 106.701 327.228 107.192C327.772 107.672 328.428 107.912 329.196 107.912C329.825 107.912 330.348 107.768 330.764 107.48C331.191 107.181 331.489 106.787 331.66 106.296H333.228C332.993 107.139 332.524 107.827 331.82 108.36C331.116 108.883 330.241 109.144 329.196 109.144C328.364 109.144 327.617 108.957 326.956 108.584C326.305 108.211 325.793 107.683 325.42 107C325.047 106.307 324.86 105.507 324.86 104.6C324.86 103.693 325.041 102.899 325.404 102.216C325.767 101.533 326.273 101.011 326.924 100.648C327.585 100.275 328.343 100.088 329.196 100.088C330.028 100.088 330.764 100.269 331.404 100.632C332.044 100.995 332.535 101.496 332.876 102.136C333.228 102.765 333.404 103.48 333.404 104.28ZM331.9 103.976C331.9 103.421 331.777 102.947 331.532 102.552C331.287 102.147 330.951 101.843 330.524 101.64C330.108 101.427 329.644 101.32 329.132 101.32C328.396 101.32 327.767 101.555 327.244 102.024C326.732 102.493 326.439 103.144 326.364 103.976H331.9ZM338.43 109.144C337.758 109.144 337.155 109.032 336.622 108.808C336.088 108.573 335.667 108.253 335.358 107.848C335.048 107.432 334.878 106.957 334.846 106.424H336.35C336.392 106.861 336.595 107.219 336.958 107.496C337.331 107.773 337.816 107.912 338.414 107.912C338.968 107.912 339.406 107.789 339.726 107.544C340.046 107.299 340.206 106.989 340.206 106.616C340.206 106.232 340.035 105.949 339.694 105.768C339.352 105.576 338.824 105.389 338.11 105.208C337.459 105.037 336.926 104.867 336.51 104.696C336.104 104.515 335.752 104.253 335.454 103.912C335.166 103.56 335.022 103.101 335.022 102.536C335.022 102.088 335.155 101.677 335.422 101.304C335.688 100.931 336.067 100.637 336.558 100.424C337.048 100.2 337.608 100.088 338.238 100.088C339.208 100.088 339.992 100.333 340.59 100.824C341.187 101.315 341.507 101.987 341.55 102.84H340.094C340.062 102.381 339.875 102.013 339.534 101.736C339.203 101.459 338.755 101.32 338.19 101.32C337.667 101.32 337.251 101.432 336.942 101.656C336.632 101.88 336.478 102.173 336.478 102.536C336.478 102.824 336.568 103.064 336.75 103.256C336.942 103.437 337.176 103.587 337.454 103.704C337.742 103.811 338.136 103.933 338.638 104.072C339.267 104.243 339.779 104.413 340.174 104.584C340.568 104.744 340.904 104.989 341.182 105.32C341.47 105.651 341.619 106.083 341.63 106.616C341.63 107.096 341.496 107.528 341.23 107.912C340.963 108.296 340.584 108.6 340.094 108.824C339.614 109.037 339.059 109.144 338.43 109.144Z" fill="#606060"/>
<path d="M357.896 100.248C357.789 99.8 357.603 99.464 357.336 99.24C357.08 99.016 356.707 98.904 356.216 98.904C355.48 98.904 354.936 99.2027 354.584 99.8C354.243 100.387 354.067 101.347 354.056 102.68C354.312 102.253 354.685 101.923 355.176 101.688C355.667 101.443 356.2 101.32 356.776 101.32C357.469 101.32 358.083 101.469 358.616 101.768C359.149 102.067 359.565 102.504 359.864 103.08C360.163 103.645 360.312 104.328 360.312 105.128C360.312 105.885 360.157 106.563 359.848 107.16C359.549 107.747 359.107 108.205 358.52 108.536C357.933 108.867 357.235 109.032 356.424 109.032C355.315 109.032 354.44 108.787 353.8 108.296C353.171 107.805 352.728 107.123 352.472 106.248C352.227 105.363 352.104 104.275 352.104 102.984C352.104 101.032 352.44 99.56 353.112 98.568C353.784 97.5653 354.845 97.064 356.296 97.064C357.416 97.064 358.285 97.368 358.904 97.976C359.523 98.584 359.88 99.3413 359.976 100.248H357.896ZM356.264 103.16C355.699 103.16 355.224 103.325 354.84 103.656C354.456 103.987 354.264 104.467 354.264 105.096C354.264 105.725 354.44 106.221 354.792 106.584C355.155 106.947 355.661 107.128 356.312 107.128C356.888 107.128 357.341 106.952 357.672 106.6C358.013 106.248 358.184 105.773 358.184 105.176C358.184 104.557 358.019 104.067 357.688 103.704C357.368 103.341 356.893 103.16 356.264 103.16ZM364.674 105.72C364.76 106.189 364.952 106.552 365.25 106.808C365.56 107.053 365.97 107.176 366.482 107.176C367.144 107.176 367.624 106.904 367.922 106.36C368.221 105.805 368.37 104.877 368.37 103.576C368.125 103.917 367.778 104.184 367.33 104.376C366.893 104.568 366.418 104.664 365.906 104.664C365.224 104.664 364.605 104.525 364.05 104.248C363.506 103.96 363.074 103.539 362.754 102.984C362.434 102.419 362.274 101.736 362.274 100.936C362.274 99.752 362.626 98.8133 363.33 98.12C364.034 97.416 364.994 97.064 366.21 97.064C367.725 97.064 368.792 97.5493 369.41 98.52C370.04 99.4907 370.354 100.952 370.354 102.904C370.354 104.291 370.232 105.427 369.986 106.312C369.752 107.197 369.341 107.869 368.754 108.328C368.178 108.787 367.389 109.016 366.386 109.016C365.597 109.016 364.925 108.867 364.37 108.568C363.816 108.259 363.389 107.859 363.09 107.368C362.802 106.867 362.637 106.317 362.594 105.72H364.674ZM366.37 102.84C366.925 102.84 367.362 102.669 367.682 102.328C368.002 101.987 368.162 101.528 368.162 100.952C368.162 100.323 367.992 99.8373 367.65 99.496C367.32 99.144 366.866 98.968 366.29 98.968C365.714 98.968 365.256 99.1493 364.914 99.512C364.584 99.864 364.418 100.333 364.418 100.92C364.418 101.485 364.578 101.949 364.898 102.312C365.229 102.664 365.72 102.84 366.37 102.84ZM373.346 109.112C372.941 109.112 372.605 108.989 372.338 108.744C372.082 108.488 371.954 108.173 371.954 107.8C371.954 107.427 372.082 107.117 372.338 106.872C372.605 106.616 372.941 106.488 373.346 106.488C373.741 106.488 374.066 106.616 374.322 106.872C374.578 107.117 374.706 107.427 374.706 107.8C374.706 108.173 374.578 108.488 374.322 108.744C374.066 108.989 373.741 109.112 373.346 109.112ZM382.302 100.248C382.196 99.8 382.009 99.464 381.742 99.24C381.486 99.016 381.113 98.904 380.622 98.904C379.886 98.904 379.342 99.2027 378.99 99.8C378.649 100.387 378.473 101.347 378.462 102.68C378.718 102.253 379.092 101.923 379.582 101.688C380.073 101.443 380.606 101.32 381.182 101.32C381.876 101.32 382.489 101.469 383.022 101.768C383.556 102.067 383.972 102.504 384.27 103.08C384.569 103.645 384.718 104.328 384.718 105.128C384.718 105.885 384.564 106.563 384.254 107.16C383.956 107.747 383.513 108.205 382.926 108.536C382.34 108.867 381.641 109.032 380.83 109.032C379.721 109.032 378.846 108.787 378.206 108.296C377.577 107.805 377.134 107.123 376.878 106.248C376.633 105.363 376.51 104.275 376.51 102.984C376.51 101.032 376.846 99.56 377.518 98.568C378.19 97.5653 379.252 97.064 380.702 97.064C381.822 97.064 382.692 97.368 383.31 97.976C383.929 98.584 384.286 99.3413 384.382 100.248H382.302ZM380.67 103.16C380.105 103.16 379.63 103.325 379.246 103.656C378.862 103.987 378.67 104.467 378.67 105.096C378.67 105.725 378.846 106.221 379.198 106.584C379.561 106.947 380.068 107.128 380.718 107.128C381.294 107.128 381.748 106.952 382.078 106.6C382.42 106.248 382.59 105.773 382.59 105.176C382.59 104.557 382.425 104.067 382.094 103.704C381.774 103.341 381.3 103.16 380.67 103.16Z" fill="#28292D"/>
</g>
<path d="M326 139.75C328.623 139.75 330.75 137.623 330.75 135C330.75 132.377 328.623 130.25 326 130.25C323.377 130.25 321.25 132.377 321.25 135C321.25 137.623 323.377 139.75 326 139.75Z" fill="white" stroke="url(#paint1_linear_239_2023)" stroke-width="1.5"/>
</g>
<defs>
<filter id="filter0_d_239_2023" x="239" y="52" width="172" height="89" filterUnits="userSpaceOnUse" color-interpolation-filters="sRGB">
<feFlood flood-opacity="0" result="BackgroundImageFix"/>
<feColorMatrix in="SourceAlpha" type="matrix" values="0 0 0 0 0 0 0 0 0 0 0 0 0 0 0 0 0 0 127 0" result="hardAlpha"/>
<feOffset dy="4"/>
<feGaussianBlur stdDeviation="6"/>
<feComposite in2="hardAlpha" operator="out"/>
<feColorMatrix type="matrix" values="0 0 0 0 0.124834 0 0 0 0 0.147507 0 0 0 0 0.255013 0 0 0 0.03 0"/>
<feBlend mode="normal" in2="BackgroundImageFix" result="effect1_dropShadow_239_2023"/>
<feBlend mode="normal" in="SourceGraphic" in2="effect1_dropShadow_239_2023" result="shape"/>
</filter>
<linearGradient id="paint0_linear_239_2023" x1="447" y1="-35.5" x2="447" y2="224" gradientUnits="userSpaceOnUse">
<stop stop-color="#8F46F8" stop-opacity="0.08"/>
<stop offset="1" stop-color="#8F46F8" stop-opacity="0"/>
</linearGradient>
<linearGradient id="paint1_linear_239_2023" x1="326" y1="131" x2="326" y2="249" gradientUnits="userSpaceOnUse">
<stop stop-color="#7F27FF"/>
<stop offset="1" stop-color="#978FED" stop-opacity="0"/>
</linearGradient>
<clipPath id="clip0_239_2023">
<rect width="894" height="242" fill="white"/>
</clipPath>
</defs>
</svg>
