<svg width="24" height="25" viewBox="0 0 24 25" fill="none" xmlns="http://www.w3.org/2000/svg">
<g id="shellfish">
<path id="Vector" d="M14.5457 5.60587C14.6207 5.91503 14.6405 6.24411 14.5947 6.58106L13.7727 12.6254M14.5457 5.60587C13.9137 2.99856 10.0863 2.99856 9.45425 5.60587M14.5457 5.60587C16.113 3.99743 18.9261 5.59871 19 7.60954M9.45425 5.60587C9.37931 5.91503 9.35952 6.24411 9.40534 6.58106L10.2273 12.6254M9.45425 5.60587C7.88696 3.99743 5.07389 5.59871 5 7.60954M19 7.60954C20 7.7773 22 8.71449 22 11.1212C22 13.2947 19.3928 15.5904 16.8169 17.4151C16.2348 17.8275 15.9437 18.0337 15.7575 18.183C15.1829 18.6439 14.8201 19.0176 14.3765 19.6056C14.2328 19.7961 14.0838 20.0201 13.786 20.4681L13.5536 20.8177C13.2078 21.3378 12.6246 21.6504 12 21.6504C11.3754 21.6504 10.7922 21.3378 10.4464 20.8177L10.214 20.4681C9.91617 20.0201 9.76725 19.7961 9.62352 19.6056C9.1799 19.0176 8.81709 18.6439 8.2425 18.183C8.05634 18.0337 7.76522 17.8275 7.18308 17.4151C4.60719 15.5904 2 13.2947 2 11.1212C2 8.71449 4 7.7773 5 7.60954M19 7.60954C19.0676 9.4492 17.8104 11.9188 16.6976 13.6281M5 7.60954C4.93239 9.4492 6.18965 11.9188 7.30238 13.6281" stroke="#141B34" stroke-width="1.5" stroke-linecap="round" stroke-linejoin="round"/>
<path id="Vector_2" d="M18 16.6504L17.2412 20.4446C17.1009 21.1457 16.4853 21.6504 15.7703 21.6504H8.22971C7.51468 21.6504 6.89906 21.1457 6.75883 20.4446L6 16.6504" stroke="#141B34" stroke-width="1.5" stroke-linecap="round" stroke-linejoin="round"/>
</g>
</svg>
