<svg width="20" height="20" viewBox="0 0 20 20" fill="none" xmlns="http://www.w3.org/2000/svg">
<g id="link-square-01">
<path id="Vector" d="M9.25038 2.50195C6.20965 2.50742 4.61735 2.58207 3.59975 3.59965C2.50159 4.69777 2.50159 6.46519 2.50159 9.99997C2.50159 13.5348 2.50159 15.3022 3.59975 16.4003C4.6979 17.4985 6.46537 17.4985 10.0003 17.4985C13.5352 17.4985 15.3026 17.4985 16.4009 16.4003C17.4184 15.3828 17.493 13.7906 17.4985 10.7499" stroke="#344054" stroke-width="1.5" stroke-linecap="round" stroke-linejoin="round"/>
<path id="Vector_2" d="M17.0674 2.93116L12.443 7.54282M17.0674 2.93116C16.6557 2.51907 13.8827 2.55748 13.2965 2.56582M17.0674 2.93116C17.479 3.34325 17.4407 6.1193 17.4323 6.70619" stroke="#344054" stroke-width="1.5" stroke-linecap="round" stroke-linejoin="round"/>
</g>
</svg>
