<svg width="106" height="106" viewBox="0 0 106 106" fill="none" xmlns="http://www.w3.org/2000/svg">
<g id="Frame" clip-path="url(#clip0_884_8105)">
<g id="Mask group">
<mask id="mask0_884_8105" style="mask-type:luminance" maskUnits="userSpaceOnUse" x="0" y="0" width="106" height="106">
<g id="Group">
<path id="Vector" d="M106 53C106 23.7289 82.2711 0 53 0C23.7289 0 0 23.7289 0 53C0 82.2711 23.7289 106 53 106C82.2711 106 106 82.2711 106 53Z" fill="white"/>
</g>
</mask>
<g mask="url(#mask0_884_8105)">
<g id="Group_2">
<path id="Vector_2" d="M106.002 0H0.00195312V106H106.002V0Z" fill="#C29EF2"/>
<path id="Vector_3" d="M140.782 57.8631L78.7018 11.082C70.1302 4.62287 57.9455 6.33533 51.4864 14.9069L4.70528 76.9875C-1.75385 85.559 -0.0413897 97.7438 8.53015 104.203L70.6108 150.984C79.1823 157.443 91.3671 155.731 97.8262 147.159L144.607 85.0785C151.066 76.507 149.354 64.3222 140.782 57.8631Z" fill="#03DEE2"/>
<g id="Group_3">
<path id="Vector_4" d="M49.4121 70.9424C49.769 73.849 51.6508 76.4475 54.6435 78.1663C57.6362 79.8851 61.4948 80.5834 65.3702 80.1076C69.2457 79.6317 72.8207 78.0207 75.3087 75.629C77.7967 73.2372 78.994 70.2606 78.6371 67.354" fill="black"/>
<path id="Vector_5" d="M49.0785 56.1508C48.8803 54.5368 47.7383 53.3488 46.5278 53.4975C45.3173 53.6461 44.4966 55.075 44.6948 56.6891C44.893 58.3031 46.0349 59.4911 47.2455 59.3425C48.456 59.1938 49.2767 57.7649 49.0785 56.1508Z" fill="black"/>
<path id="Vector_6" d="M78.3051 52.562C78.1069 50.9479 76.9649 49.76 75.7544 49.9086C74.5438 50.0572 73.7232 51.4862 73.9213 53.1002C74.1195 54.7143 75.2615 55.9022 76.472 55.7536C77.6826 55.605 78.5033 54.176 78.3051 52.562Z" fill="black"/>
</g>
</g>
</g>
</g>
</g>
<defs>
<clipPath id="clip0_884_8105">
<rect width="106" height="106" fill="white"/>
</clipPath>
</defs>
</svg>
