<svg width="450" height="301" viewBox="0 0 450 301" fill="none" xmlns="http://www.w3.org/2000/svg">
<path d="M7.245 14.705V16H1.645V14.705H3.696V8.804C3.696 8.57067 3.703 8.33033 3.717 8.083L2.261 9.301C2.177 9.36633 2.093 9.40833 2.009 9.427C1.92967 9.441 1.85267 9.441 1.778 9.427C1.708 9.413 1.645 9.38967 1.589 9.357C1.533 9.31967 1.491 9.28 1.463 9.238L0.917 8.489L4.004 5.864H5.425V14.705H7.245ZM14.9881 14.39C15.1748 14.39 15.3218 14.4437 15.4291 14.551C15.5411 14.6537 15.5971 14.7913 15.5971 14.964V16H8.65309V15.426C8.65309 15.3093 8.67643 15.188 8.72309 15.062C8.77443 14.9313 8.85376 14.8147 8.96109 14.712L12.0341 11.632C12.2908 11.3707 12.5194 11.121 12.7201 10.883C12.9254 10.645 13.0958 10.4093 13.2311 10.176C13.3664 9.94267 13.4691 9.707 13.5391 9.469C13.6138 9.22633 13.6511 8.972 13.6511 8.706C13.6511 8.46333 13.6161 8.251 13.5461 8.069C13.4761 7.88233 13.3758 7.726 13.2451 7.6C13.1191 7.474 12.9651 7.38067 12.7831 7.32C12.6058 7.25467 12.4051 7.222 12.1811 7.222C11.9758 7.222 11.7844 7.25233 11.6071 7.313C11.4344 7.369 11.2804 7.45067 11.1451 7.558C11.0098 7.66067 10.8954 7.782 10.8021 7.922C10.7088 8.062 10.6388 8.216 10.5921 8.384C10.5128 8.59867 10.4101 8.741 10.2841 8.811C10.1581 8.881 9.97609 8.89733 9.73809 8.86L8.82809 8.699C8.89809 8.21367 9.03343 7.789 9.23409 7.425C9.43476 7.05633 9.68443 6.75067 9.98309 6.508C10.2864 6.26067 10.6318 6.07633 11.0191 5.955C11.4111 5.829 11.8311 5.766 12.2791 5.766C12.7458 5.766 13.1728 5.836 13.5601 5.976C13.9474 6.11133 14.2788 6.305 14.5541 6.557C14.8294 6.809 15.0441 7.11233 15.1981 7.467C15.3521 7.82167 15.4291 8.216 15.4291 8.65C15.4291 9.02333 15.3731 9.36867 15.2611 9.686C15.1538 10.0033 15.0068 10.3067 14.8201 10.596C14.6381 10.8853 14.4234 11.1653 14.1761 11.436C13.9288 11.7067 13.6698 11.982 13.3991 12.262L11.1171 14.593C11.3364 14.5277 11.5534 14.4787 11.7681 14.446C11.9874 14.4087 12.1951 14.39 12.3911 14.39H14.9881ZM18.8252 5.598V11.555H19.1472C19.2639 11.555 19.3549 11.541 19.4202 11.513C19.4902 11.4803 19.5602 11.4173 19.6302 11.324L21.4152 9.119C21.4899 9.021 21.5715 8.94633 21.6602 8.895C21.7535 8.84367 21.8725 8.818 22.0172 8.818H23.5992L21.3662 11.485C21.2075 11.695 21.0349 11.856 20.8482 11.968C20.9462 12.038 21.0325 12.1197 21.1072 12.213C21.1865 12.3063 21.2612 12.4067 21.3312 12.514L23.7252 16H22.1642C22.0289 16 21.9122 15.979 21.8142 15.937C21.7162 15.8903 21.6345 15.8087 21.5692 15.692L19.7352 12.969C19.6699 12.8617 19.6022 12.7917 19.5322 12.759C19.4622 12.7263 19.3572 12.71 19.2172 12.71H18.8252V16H17.0962V5.598H18.8252Z" fill="#827A7A"/>
<path d="M7.245 61.3715V62.6665H1.645V61.3715H3.696V55.4705C3.696 55.2372 3.703 54.9968 3.717 54.7495L2.261 55.9675C2.177 56.0328 2.093 56.0748 2.009 56.0935C1.92967 56.1075 1.85267 56.1075 1.778 56.0935C1.708 56.0795 1.645 56.0562 1.589 56.0235C1.533 55.9862 1.491 55.9465 1.463 55.9045L0.917 55.1555L4.004 52.5305H5.425V61.3715H7.245ZM15.8911 57.6055C15.8911 58.4875 15.7954 59.2552 15.6041 59.9085C15.4174 60.5572 15.1561 61.0938 14.8201 61.5185C14.4888 61.9432 14.0944 62.2605 13.6371 62.4705C13.1844 62.6758 12.6944 62.7785 12.1671 62.7785C11.6398 62.7785 11.1498 62.6758 10.6971 62.4705C10.2491 62.2605 9.85943 61.9432 9.52809 61.5185C9.19676 61.0938 8.93776 60.5572 8.75109 59.9085C8.56443 59.2552 8.47109 58.4875 8.47109 57.6055C8.47109 56.7188 8.56443 55.9512 8.75109 55.3025C8.93776 54.6538 9.19676 54.1172 9.52809 53.6925C9.85943 53.2678 10.2491 52.9528 10.6971 52.7475C11.1498 52.5375 11.6398 52.4325 12.1671 52.4325C12.6944 52.4325 13.1844 52.5375 13.6371 52.7475C14.0944 52.9528 14.4888 53.2678 14.8201 53.6925C15.1561 54.1172 15.4174 54.6538 15.6041 55.3025C15.7954 55.9512 15.8911 56.7188 15.8911 57.6055ZM14.1061 57.6055C14.1061 56.8728 14.0524 56.2662 13.9451 55.7855C13.8378 55.3048 13.6931 54.9222 13.5111 54.6375C13.3338 54.3528 13.1284 54.1545 12.8951 54.0425C12.6618 53.9258 12.4191 53.8675 12.1671 53.8675C11.9198 53.8675 11.6794 53.9258 11.4461 54.0425C11.2174 54.1545 11.0144 54.3528 10.8371 54.6375C10.6598 54.9222 10.5174 55.3048 10.4101 55.7855C10.3074 56.2662 10.2561 56.8728 10.2561 57.6055C10.2561 58.3382 10.3074 58.9448 10.4101 59.4255C10.5174 59.9062 10.6598 60.2888 10.8371 60.5735C11.0144 60.8582 11.2174 61.0588 11.4461 61.1755C11.6794 61.2875 11.9198 61.3435 12.1671 61.3435C12.4191 61.3435 12.6618 61.2875 12.8951 61.1755C13.1284 61.0588 13.3338 60.8582 13.5111 60.5735C13.6931 60.2888 13.8378 59.9062 13.9451 59.4255C14.0524 58.9448 14.1061 58.3382 14.1061 57.6055ZM18.8252 52.2645V58.2215H19.1472C19.2639 58.2215 19.3549 58.2075 19.4202 58.1795C19.4902 58.1468 19.5602 58.0838 19.6302 57.9905L21.4152 55.7855C21.4899 55.6875 21.5715 55.6128 21.6602 55.5615C21.7535 55.5102 21.8725 55.4845 22.0172 55.4845H23.5992L21.3662 58.1515C21.2075 58.3615 21.0349 58.5225 20.8482 58.6345C20.9462 58.7045 21.0325 58.7862 21.1072 58.8795C21.1865 58.9728 21.2612 59.0732 21.3312 59.1805L23.7252 62.6665H22.1642C22.0289 62.6665 21.9122 62.6455 21.8142 62.6035C21.7162 62.5568 21.6345 62.4752 21.5692 62.3585L19.7352 59.6355C19.6699 59.5282 19.6022 59.4582 19.5322 59.4255C19.4622 59.3928 19.3572 59.3765 19.2172 59.3765H18.8252V62.6665H17.0962V52.2645H18.8252Z" fill="#827A7A"/>
<path d="M12.4604 108.094C12.7451 108.094 12.9947 108.055 13.2094 107.975C13.4241 107.891 13.6037 107.777 13.7484 107.632C13.8977 107.488 14.0097 107.315 14.0844 107.114C14.1591 106.914 14.1964 106.697 14.1964 106.463C14.1964 105.908 14.0424 105.488 13.7344 105.203C13.4264 104.919 13.0017 104.776 12.4604 104.776C11.9191 104.776 11.4944 104.919 11.1864 105.203C10.8784 105.488 10.7244 105.908 10.7244 106.463C10.7244 106.697 10.7617 106.914 10.8364 107.114C10.9111 107.315 11.0207 107.488 11.1654 107.632C11.3147 107.777 11.4967 107.891 11.7114 107.975C11.9261 108.055 12.1757 108.094 12.4604 108.094ZM12.4604 100.401C12.2037 100.401 11.9821 100.441 11.7954 100.52C11.6087 100.6 11.4524 100.707 11.3264 100.842C11.2051 100.973 11.1141 101.125 11.0534 101.297C10.9974 101.47 10.9694 101.652 10.9694 101.843C10.9694 102.044 10.9927 102.24 11.0394 102.431C11.0907 102.618 11.1747 102.786 11.2914 102.935C11.4081 103.08 11.5621 103.197 11.7534 103.285C11.9447 103.374 12.1804 103.418 12.4604 103.418C12.7404 103.418 12.9761 103.374 13.1674 103.285C13.3587 103.197 13.5127 103.08 13.6294 102.935C13.7461 102.786 13.8277 102.618 13.8744 102.431C13.9257 102.24 13.9514 102.044 13.9514 101.843C13.9514 101.652 13.9211 101.47 13.8604 101.297C13.7997 101.125 13.7087 100.973 13.5874 100.842C13.4661 100.707 13.3121 100.6 13.1254 100.52C12.9387 100.441 12.7171 100.401 12.4604 100.401ZM14.1684 104.055C14.7844 104.256 15.2394 104.564 15.5334 104.979C15.8274 105.39 15.9744 105.894 15.9744 106.491C15.9744 106.939 15.8881 107.345 15.7154 107.709C15.5474 108.073 15.3094 108.384 15.0014 108.64C14.6934 108.897 14.3224 109.095 13.8884 109.235C13.4591 109.375 12.9831 109.445 12.4604 109.445C11.9377 109.445 11.4594 109.375 11.0254 109.235C10.5961 109.095 10.2274 108.897 9.91939 108.64C9.61139 108.384 9.37106 108.073 9.19839 107.709C9.03039 107.345 8.94639 106.939 8.94639 106.491C8.94639 105.894 9.09339 105.39 9.38739 104.979C9.68139 104.564 10.1364 104.256 10.7524 104.055C10.2624 103.85 9.89372 103.558 9.64639 103.18C9.40372 102.802 9.28239 102.347 9.28239 101.815C9.28239 101.433 9.35939 101.076 9.51339 100.744C9.67206 100.413 9.89139 100.126 10.1714 99.8835C10.4514 99.6362 10.7851 99.4448 11.1724 99.3095C11.5644 99.1695 11.9937 99.0995 12.4604 99.0995C12.9271 99.0995 13.3541 99.1695 13.7414 99.3095C14.1334 99.4448 14.4694 99.6362 14.7494 99.8835C15.0294 100.126 15.2464 100.413 15.4004 100.744C15.5591 101.076 15.6384 101.433 15.6384 101.815C15.6384 102.347 15.5147 102.802 15.2674 103.18C15.0247 103.558 14.6584 103.85 14.1684 104.055ZM19.1045 98.9315V104.888H19.4265C19.5432 104.888 19.6342 104.874 19.6995 104.846C19.7695 104.814 19.8395 104.751 19.9095 104.657L21.6945 102.452C21.7692 102.354 21.8508 102.28 21.9395 102.228C22.0328 102.177 22.1518 102.151 22.2965 102.151H23.8785L21.6455 104.818C21.4868 105.028 21.3142 105.189 21.1275 105.301C21.2255 105.371 21.3118 105.453 21.3865 105.546C21.4658 105.64 21.5405 105.74 21.6105 105.847L24.0045 109.333H22.4435C22.3082 109.333 22.1915 109.312 22.0935 109.27C21.9955 109.224 21.9138 109.142 21.8485 109.025L20.0145 106.302C19.9492 106.195 19.8815 106.125 19.8115 106.092C19.7415 106.06 19.6365 106.043 19.4965 106.043H19.1045V109.333H17.3755V98.9315H19.1045Z" fill="#827A7A"/>
<path d="M12.0544 149.553L11.7044 149.987C11.9004 149.889 12.1104 149.814 12.3344 149.763C12.5631 149.707 12.8081 149.679 13.0694 149.679C13.4521 149.679 13.8231 149.742 14.1824 149.868C14.5464 149.994 14.8661 150.185 15.1414 150.442C15.4167 150.694 15.6384 151.009 15.8064 151.387C15.9744 151.765 16.0584 152.206 16.0584 152.71C16.0584 153.181 15.9721 153.625 15.7994 154.04C15.6267 154.451 15.3841 154.81 15.0714 155.118C14.7587 155.426 14.3807 155.669 13.9374 155.846C13.4987 156.023 13.0134 156.112 12.4814 156.112C11.9401 156.112 11.4547 156.026 11.0254 155.853C10.5961 155.68 10.2297 155.44 9.92639 155.132C9.62306 154.819 9.38972 154.446 9.22639 154.012C9.06772 153.573 8.98839 153.088 8.98839 152.556C8.98839 152.08 9.08406 151.592 9.27539 151.093C9.47139 150.589 9.77239 150.066 10.1784 149.525L12.5934 146.284C12.6774 146.172 12.7987 146.076 12.9574 145.997C13.1207 145.918 13.3074 145.878 13.5174 145.878H15.0574L12.0544 149.553ZM12.4464 154.698C12.7217 154.698 12.9737 154.651 13.2024 154.558C13.4357 154.465 13.6341 154.334 13.7974 154.166C13.9654 153.998 14.0961 153.802 14.1894 153.578C14.2827 153.349 14.3294 153.102 14.3294 152.836C14.3294 152.547 14.2851 152.288 14.1964 152.059C14.1077 151.826 13.9817 151.63 13.8184 151.471C13.6551 151.308 13.4591 151.184 13.2304 151.1C13.0017 151.016 12.7497 150.974 12.4744 150.974C12.1991 150.974 11.9494 151.021 11.7254 151.114C11.5014 151.207 11.3101 151.338 11.1514 151.506C10.9927 151.669 10.8691 151.865 10.7804 152.094C10.6917 152.318 10.6474 152.561 10.6474 152.822C10.6474 153.102 10.6847 153.359 10.7594 153.592C10.8387 153.821 10.9531 154.017 11.1024 154.18C11.2564 154.343 11.4454 154.472 11.6694 154.565C11.8934 154.654 12.1524 154.698 12.4464 154.698ZM19.1045 145.598V151.555H19.4265C19.5432 151.555 19.6342 151.541 19.6995 151.513C19.7695 151.48 19.8395 151.417 19.9095 151.324L21.6945 149.119C21.7692 149.021 21.8508 148.946 21.9395 148.895C22.0328 148.844 22.1518 148.818 22.2965 148.818H23.8785L21.6455 151.485C21.4868 151.695 21.3142 151.856 21.1275 151.968C21.2255 152.038 21.3118 152.12 21.3865 152.213C21.4658 152.306 21.5405 152.407 21.6105 152.514L24.0045 156H22.4435C22.3082 156 22.1915 155.979 22.0935 155.937C21.9955 155.89 21.9138 155.809 21.8485 155.692L20.0145 152.969C19.9492 152.862 19.8815 152.792 19.8115 152.759C19.7415 152.726 19.6365 152.71 19.4965 152.71H19.1045V156H17.3755V145.598H19.1045Z" fill="#827A7A"/>
<path d="M13.3844 198.852V195.541C13.3844 195.228 13.4054 194.883 13.4474 194.505L10.3044 198.852H13.3844ZM16.1634 198.852V199.853C16.1634 199.946 16.1331 200.028 16.0724 200.098C16.0117 200.163 15.9254 200.196 15.8134 200.196H14.8894V202.667H13.3844V200.196H9.11439C8.99772 200.196 8.89506 200.161 8.80639 200.091C8.71772 200.016 8.66172 199.925 8.63839 199.818L8.45639 198.943L13.2514 192.538H14.8894V198.852H16.1634ZM19.1045 192.265V198.222H19.4265C19.5432 198.222 19.6342 198.208 19.6995 198.18C19.7695 198.147 19.8395 198.084 19.9095 197.991L21.6945 195.786C21.7692 195.688 21.8508 195.613 21.9395 195.562C22.0328 195.51 22.1518 195.485 22.2965 195.485H23.8785L21.6455 198.152C21.4868 198.362 21.3142 198.523 21.1275 198.635C21.2255 198.705 21.3118 198.786 21.3865 198.88C21.4658 198.973 21.5405 199.073 21.6105 199.181L24.0045 202.667H22.4435C22.3082 202.667 22.1915 202.646 22.0935 202.604C21.9955 202.557 21.9138 202.475 21.8485 202.359L20.0145 199.636C19.9492 199.528 19.8815 199.458 19.8115 199.426C19.7415 199.393 19.6365 199.377 19.4965 199.377H19.1045V202.667H17.3755V192.265H19.1045Z" fill="#827A7A"/>
<path d="M15.2674 247.723C15.4541 247.723 15.6011 247.777 15.7084 247.884C15.8204 247.987 15.8764 248.125 15.8764 248.297V249.333H8.93239V248.759C8.93239 248.643 8.95572 248.521 9.00239 248.395C9.05372 248.265 9.13306 248.148 9.24039 248.045L12.3134 244.965C12.5701 244.704 12.7987 244.454 12.9994 244.216C13.2047 243.978 13.3751 243.743 13.5104 243.509C13.6457 243.276 13.7484 243.04 13.8184 242.802C13.8931 242.56 13.9304 242.305 13.9304 242.039C13.9304 241.797 13.8954 241.584 13.8254 241.402C13.7554 241.216 13.6551 241.059 13.5244 240.933C13.3984 240.807 13.2444 240.714 13.0624 240.653C12.8851 240.588 12.6844 240.555 12.4604 240.555C12.2551 240.555 12.0637 240.586 11.8864 240.646C11.7137 240.702 11.5597 240.784 11.4244 240.891C11.2891 240.994 11.1747 241.115 11.0814 241.255C10.9881 241.395 10.9181 241.549 10.8714 241.717C10.7921 241.932 10.6894 242.074 10.5634 242.144C10.4374 242.214 10.2554 242.231 10.0174 242.193L9.10739 242.032C9.17739 241.547 9.31272 241.122 9.51339 240.758C9.71406 240.39 9.96372 240.084 10.2624 239.841C10.5657 239.594 10.9111 239.41 11.2984 239.288C11.6904 239.162 12.1104 239.099 12.5584 239.099C13.0251 239.099 13.4521 239.169 13.8394 239.309C14.2267 239.445 14.5581 239.638 14.8334 239.89C15.1087 240.142 15.3234 240.446 15.4774 240.8C15.6314 241.155 15.7084 241.549 15.7084 241.983C15.7084 242.357 15.6524 242.702 15.5404 243.019C15.4331 243.337 15.2861 243.64 15.0994 243.929C14.9174 244.219 14.7027 244.499 14.4554 244.769C14.2081 245.04 13.9491 245.315 13.6784 245.595L11.3964 247.926C11.6157 247.861 11.8327 247.812 12.0474 247.779C12.2667 247.742 12.4744 247.723 12.6704 247.723H15.2674ZM19.1045 238.931V244.888H19.4265C19.5432 244.888 19.6342 244.874 19.6995 244.846C19.7695 244.814 19.8395 244.751 19.9095 244.657L21.6945 242.452C21.7692 242.354 21.8508 242.28 21.9395 242.228C22.0328 242.177 22.1518 242.151 22.2965 242.151H23.8785L21.6455 244.818C21.4868 245.028 21.3142 245.189 21.1275 245.301C21.2255 245.371 21.3118 245.453 21.3865 245.546C21.4658 245.64 21.5405 245.74 21.6105 245.847L24.0045 249.333H22.4435C22.3082 249.333 22.1915 249.312 22.0935 249.27C21.9955 249.224 21.9138 249.142 21.8485 249.025L20.0145 246.302C19.9492 246.195 19.8815 246.125 19.8115 246.092C19.7415 246.06 19.6365 246.043 19.4965 246.043H19.1045V249.333H17.3755V238.931H19.1045Z" fill="#827A7A"/>
<path d="M23.6489 290.939C23.6489 291.821 23.5532 292.589 23.3619 293.242C23.1752 293.891 22.9139 294.427 22.5779 294.852C22.2466 295.277 21.8522 295.594 21.3949 295.804C20.9422 296.009 20.4522 296.112 19.9249 296.112C19.3976 296.112 18.9076 296.009 18.4549 295.804C18.0069 295.594 17.6172 295.277 17.2859 294.852C16.9546 294.427 16.6956 293.891 16.5089 293.242C16.3222 292.589 16.2289 291.821 16.2289 290.939C16.2289 290.052 16.3222 289.285 16.5089 288.636C16.6956 287.987 16.9546 287.451 17.2859 287.026C17.6172 286.601 18.0069 286.286 18.4549 286.081C18.9076 285.871 19.3976 285.766 19.9249 285.766C20.4522 285.766 20.9422 285.871 21.3949 286.081C21.8522 286.286 22.2466 286.601 22.5779 287.026C22.9139 287.451 23.1752 287.987 23.3619 288.636C23.5532 289.285 23.6489 290.052 23.6489 290.939ZM21.8639 290.939C21.8639 290.206 21.8102 289.6 21.7029 289.119C21.5956 288.638 21.4509 288.256 21.2689 287.971C21.0916 287.686 20.8862 287.488 20.6529 287.376C20.4196 287.259 20.1769 287.201 19.9249 287.201C19.6776 287.201 19.4372 287.259 19.2039 287.376C18.9752 287.488 18.7722 287.686 18.5949 287.971C18.4176 288.256 18.2752 288.638 18.1679 289.119C18.0652 289.6 18.0139 290.206 18.0139 290.939C18.0139 291.672 18.0652 292.278 18.1679 292.759C18.2752 293.24 18.4176 293.622 18.5949 293.907C18.7722 294.192 18.9752 294.392 19.2039 294.509C19.4372 294.621 19.6776 294.677 19.9249 294.677C20.1769 294.677 20.4196 294.621 20.6529 294.509C20.8862 294.392 21.0916 294.192 21.2689 293.907C21.4509 293.622 21.5956 293.24 21.7029 292.759C21.8102 292.278 21.8639 291.672 21.8639 290.939Z" fill="#827A7A"/>
<rect width="21" height="45" transform="translate(47.5 62)" fill="#0E5855"/>
<rect width="21" height="165" transform="translate(47.5 107)" fill="#22DDD4"/>
<path d="M45.77 290.939C45.77 291.821 45.6743 292.589 45.483 293.242C45.2963 293.891 45.035 294.427 44.699 294.852C44.3677 295.277 43.9733 295.594 43.516 295.804C43.0633 296.009 42.5733 296.112 42.046 296.112C41.5187 296.112 41.0287 296.009 40.576 295.804C40.128 295.594 39.7383 295.277 39.407 294.852C39.0757 294.427 38.8167 293.891 38.63 293.242C38.4433 292.589 38.35 291.821 38.35 290.939C38.35 290.052 38.4433 289.285 38.63 288.636C38.8167 287.987 39.0757 287.451 39.407 287.026C39.7383 286.601 40.128 286.286 40.576 286.081C41.0287 285.871 41.5187 285.766 42.046 285.766C42.5733 285.766 43.0633 285.871 43.516 286.081C43.9733 286.286 44.3677 286.601 44.699 287.026C45.035 287.451 45.2963 287.987 45.483 288.636C45.6743 289.285 45.77 290.052 45.77 290.939ZM43.985 290.939C43.985 290.206 43.9313 289.6 43.824 289.119C43.7167 288.638 43.572 288.256 43.39 287.971C43.2127 287.686 43.0073 287.488 42.774 287.376C42.5407 287.259 42.298 287.201 42.046 287.201C41.7987 287.201 41.5583 287.259 41.325 287.376C41.0963 287.488 40.8933 287.686 40.716 287.971C40.5387 288.256 40.3963 288.638 40.289 289.119C40.1863 289.6 40.135 290.206 40.135 290.939C40.135 291.672 40.1863 292.278 40.289 292.759C40.3963 293.24 40.5387 293.622 40.716 293.907C40.8933 294.192 41.0963 294.392 41.325 294.509C41.5583 294.621 41.7987 294.677 42.046 294.677C42.298 294.677 42.5407 294.621 42.774 294.509C43.0073 294.392 43.2127 294.192 43.39 293.907C43.572 293.622 43.7167 293.24 43.824 292.759C43.9313 292.278 43.985 291.672 43.985 290.939ZM53.3661 294.705V296H47.7661V294.705H49.8171V288.804C49.8171 288.571 49.8241 288.33 49.8381 288.083L48.3821 289.301C48.2981 289.366 48.2141 289.408 48.1301 289.427C48.0508 289.441 47.9738 289.441 47.8991 289.427C47.8291 289.413 47.7661 289.39 47.7101 289.357C47.6541 289.32 47.6121 289.28 47.5841 289.238L47.0381 288.489L50.1251 285.864H51.5461V294.705H53.3661ZM56.3002 296.021C56.2209 296.236 56.0925 296.397 55.9152 296.504C55.7425 296.611 55.5652 296.665 55.3832 296.665H54.6482L58.7362 286.207C58.8109 286.011 58.9252 285.862 59.0792 285.759C59.2332 285.652 59.4129 285.598 59.6182 285.598H60.3602L56.3002 296.021ZM68.5337 290.939C68.5337 291.821 68.438 292.589 68.2467 293.242C68.06 293.891 67.7987 294.427 67.4627 294.852C67.1313 295.277 66.737 295.594 66.2797 295.804C65.827 296.009 65.337 296.112 64.8097 296.112C64.2823 296.112 63.7923 296.009 63.3397 295.804C62.8917 295.594 62.502 295.277 62.1707 294.852C61.8393 294.427 61.5803 293.891 61.3937 293.242C61.207 292.589 61.1137 291.821 61.1137 290.939C61.1137 290.052 61.207 289.285 61.3937 288.636C61.5803 287.987 61.8393 287.451 62.1707 287.026C62.502 286.601 62.8917 286.286 63.3397 286.081C63.7923 285.871 64.2823 285.766 64.8097 285.766C65.337 285.766 65.827 285.871 66.2797 286.081C66.737 286.286 67.1313 286.601 67.4627 287.026C67.7987 287.451 68.06 287.987 68.2467 288.636C68.438 289.285 68.5337 290.052 68.5337 290.939ZM66.7487 290.939C66.7487 290.206 66.695 289.6 66.5877 289.119C66.4803 288.638 66.3357 288.256 66.1537 287.971C65.9763 287.686 65.771 287.488 65.5377 287.376C65.3043 287.259 65.0617 287.201 64.8097 287.201C64.5623 287.201 64.322 287.259 64.0887 287.376C63.86 287.488 63.657 287.686 63.4797 287.971C63.3023 288.256 63.16 288.638 63.0527 289.119C62.95 289.6 62.8987 290.206 62.8987 290.939C62.8987 291.672 62.95 292.278 63.0527 292.759C63.16 293.24 63.3023 293.622 63.4797 293.907C63.657 294.192 63.86 294.392 64.0887 294.509C64.322 294.621 64.5623 294.677 64.8097 294.677C65.0617 294.677 65.3043 294.621 65.5377 294.509C65.771 294.392 65.9763 294.192 66.1537 293.907C66.3357 293.622 66.4803 293.24 66.5877 292.759C66.695 292.278 66.7487 291.672 66.7487 290.939ZM72.9448 294.761C73.2294 294.761 73.4791 294.721 73.6938 294.642C73.9084 294.558 74.0881 294.444 74.2328 294.299C74.3821 294.154 74.4941 293.982 74.5688 293.781C74.6434 293.58 74.6808 293.363 74.6808 293.13C74.6808 292.575 74.5268 292.155 74.2188 291.87C73.9108 291.585 73.4861 291.443 72.9448 291.443C72.4034 291.443 71.9788 291.585 71.6708 291.87C71.3628 292.155 71.2088 292.575 71.2088 293.13C71.2088 293.363 71.2461 293.58 71.3208 293.781C71.3954 293.982 71.5051 294.154 71.6498 294.299C71.7991 294.444 71.9811 294.558 72.1958 294.642C72.4104 294.721 72.6601 294.761 72.9448 294.761ZM72.9448 287.068C72.6881 287.068 72.4664 287.108 72.2798 287.187C72.0931 287.266 71.9368 287.374 71.8108 287.509C71.6894 287.64 71.5984 287.791 71.5378 287.964C71.4818 288.137 71.4538 288.319 71.4538 288.51C71.4538 288.711 71.4771 288.907 71.5238 289.098C71.5751 289.285 71.6591 289.453 71.7758 289.602C71.8924 289.747 72.0464 289.863 72.2378 289.952C72.4291 290.041 72.6648 290.085 72.9448 290.085C73.2248 290.085 73.4604 290.041 73.6518 289.952C73.8431 289.863 73.9971 289.747 74.1138 289.602C74.2304 289.453 74.3121 289.285 74.3588 289.098C74.4101 288.907 74.4358 288.711 74.4358 288.51C74.4358 288.319 74.4054 288.137 74.3448 287.964C74.2841 287.791 74.1931 287.64 74.0718 287.509C73.9504 287.374 73.7964 287.266 73.6098 287.187C73.4231 287.108 73.2014 287.068 72.9448 287.068ZM74.6528 290.722C75.2688 290.923 75.7238 291.231 76.0178 291.646C76.3118 292.057 76.4588 292.561 76.4588 293.158C76.4588 293.606 76.3724 294.012 76.1998 294.376C76.0318 294.74 75.7938 295.05 75.4858 295.307C75.1778 295.564 74.8068 295.762 74.3728 295.902C73.9434 296.042 73.4674 296.112 72.9448 296.112C72.4221 296.112 71.9438 296.042 71.5098 295.902C71.0804 295.762 70.7118 295.564 70.4038 295.307C70.0958 295.05 69.8554 294.74 69.6828 294.376C69.5148 294.012 69.4308 293.606 69.4308 293.158C69.4308 292.561 69.5778 292.057 69.8718 291.646C70.1658 291.231 70.6208 290.923 71.2368 290.722C70.7468 290.517 70.3781 290.225 70.1308 289.847C69.8881 289.469 69.7668 289.014 69.7668 288.482C69.7668 288.099 69.8438 287.742 69.9978 287.411C70.1564 287.08 70.3758 286.793 70.6558 286.55C70.9358 286.303 71.2694 286.111 71.6568 285.976C72.0488 285.836 72.4781 285.766 72.9448 285.766C73.4114 285.766 73.8384 285.836 74.2258 285.976C74.6178 286.111 74.9538 286.303 75.2338 286.55C75.5138 286.793 75.7308 287.08 75.8848 287.411C76.0434 287.742 76.1228 288.099 76.1228 288.482C76.1228 289.014 75.9991 289.469 75.7518 289.847C75.5091 290.225 75.1428 290.517 74.6528 290.722Z" fill="#666666"/>
<rect width="21" height="131" transform="translate(106.5 62)" fill="#0E5855"/>
<rect width="21" height="79" transform="translate(106.5 193)" fill="#22DDD4"/>
<path d="M101.77 290.939C101.77 291.821 101.674 292.589 101.483 293.242C101.296 293.891 101.035 294.427 100.699 294.852C100.368 295.277 99.9733 295.594 99.516 295.804C99.0633 296.009 98.5733 296.112 98.046 296.112C97.5187 296.112 97.0287 296.009 96.576 295.804C96.128 295.594 95.7383 295.277 95.407 294.852C95.0757 294.427 94.8167 293.891 94.63 293.242C94.4433 292.589 94.35 291.821 94.35 290.939C94.35 290.052 94.4433 289.285 94.63 288.636C94.8167 287.987 95.0757 287.451 95.407 287.026C95.7383 286.601 96.128 286.286 96.576 286.081C97.0287 285.871 97.5187 285.766 98.046 285.766C98.5733 285.766 99.0633 285.871 99.516 286.081C99.9733 286.286 100.368 286.601 100.699 287.026C101.035 287.451 101.296 287.987 101.483 288.636C101.674 289.285 101.77 290.052 101.77 290.939ZM99.985 290.939C99.985 290.206 99.9313 289.6 99.824 289.119C99.7167 288.638 99.572 288.256 99.39 287.971C99.2127 287.686 99.0073 287.488 98.774 287.376C98.5407 287.259 98.298 287.201 98.046 287.201C97.7987 287.201 97.5583 287.259 97.325 287.376C97.0963 287.488 96.8933 287.686 96.716 287.971C96.5387 288.256 96.3963 288.638 96.289 289.119C96.1863 289.6 96.135 290.206 96.135 290.939C96.135 291.672 96.1863 292.278 96.289 292.759C96.3963 293.24 96.5387 293.622 96.716 293.907C96.8933 294.192 97.0963 294.392 97.325 294.509C97.5583 294.621 97.7987 294.677 98.046 294.677C98.298 294.677 98.5407 294.621 98.774 294.509C99.0073 294.392 99.2127 294.192 99.39 293.907C99.572 293.622 99.7167 293.24 99.824 292.759C99.9313 292.278 99.985 291.672 99.985 290.939ZM108.988 294.39C109.175 294.39 109.322 294.444 109.429 294.551C109.541 294.654 109.597 294.791 109.597 294.964V296H102.653V295.426C102.653 295.309 102.676 295.188 102.723 295.062C102.774 294.931 102.854 294.815 102.961 294.712L106.034 291.632C106.291 291.371 106.519 291.121 106.72 290.883C106.925 290.645 107.096 290.409 107.231 290.176C107.366 289.943 107.469 289.707 107.539 289.469C107.614 289.226 107.651 288.972 107.651 288.706C107.651 288.463 107.616 288.251 107.546 288.069C107.476 287.882 107.376 287.726 107.245 287.6C107.119 287.474 106.965 287.381 106.783 287.32C106.606 287.255 106.405 287.222 106.181 287.222C105.976 287.222 105.784 287.252 105.607 287.313C105.434 287.369 105.28 287.451 105.145 287.558C105.01 287.661 104.895 287.782 104.802 287.922C104.709 288.062 104.639 288.216 104.592 288.384C104.513 288.599 104.41 288.741 104.284 288.811C104.158 288.881 103.976 288.897 103.738 288.86L102.828 288.699C102.898 288.214 103.033 287.789 103.234 287.425C103.435 287.056 103.684 286.751 103.983 286.508C104.286 286.261 104.632 286.076 105.019 285.955C105.411 285.829 105.831 285.766 106.279 285.766C106.746 285.766 107.173 285.836 107.56 285.976C107.947 286.111 108.279 286.305 108.554 286.557C108.829 286.809 109.044 287.112 109.198 287.467C109.352 287.822 109.429 288.216 109.429 288.65C109.429 289.023 109.373 289.369 109.261 289.686C109.154 290.003 109.007 290.307 108.82 290.596C108.638 290.885 108.423 291.165 108.176 291.436C107.929 291.707 107.67 291.982 107.399 292.262L105.117 294.593C105.336 294.528 105.553 294.479 105.768 294.446C105.987 294.409 106.195 294.39 106.391 294.39H108.988ZM112.3 296.021C112.221 296.236 112.093 296.397 111.915 296.504C111.743 296.611 111.565 296.665 111.383 296.665H110.648L114.736 286.207C114.811 286.011 114.925 285.862 115.079 285.759C115.233 285.652 115.413 285.598 115.618 285.598H116.36L112.3 296.021ZM124.534 290.939C124.534 291.821 124.438 292.589 124.247 293.242C124.06 293.891 123.799 294.427 123.463 294.852C123.131 295.277 122.737 295.594 122.28 295.804C121.827 296.009 121.337 296.112 120.81 296.112C120.282 296.112 119.792 296.009 119.34 295.804C118.892 295.594 118.502 295.277 118.171 294.852C117.839 294.427 117.58 293.891 117.394 293.242C117.207 292.589 117.114 291.821 117.114 290.939C117.114 290.052 117.207 289.285 117.394 288.636C117.58 287.987 117.839 287.451 118.171 287.026C118.502 286.601 118.892 286.286 119.34 286.081C119.792 285.871 120.282 285.766 120.81 285.766C121.337 285.766 121.827 285.871 122.28 286.081C122.737 286.286 123.131 286.601 123.463 287.026C123.799 287.451 124.06 287.987 124.247 288.636C124.438 289.285 124.534 290.052 124.534 290.939ZM122.749 290.939C122.749 290.206 122.695 289.6 122.588 289.119C122.48 288.638 122.336 288.256 122.154 287.971C121.976 287.686 121.771 287.488 121.538 287.376C121.304 287.259 121.062 287.201 120.81 287.201C120.562 287.201 120.322 287.259 120.089 287.376C119.86 287.488 119.657 287.686 119.48 287.971C119.302 288.256 119.16 288.638 119.053 289.119C118.95 289.6 118.899 290.206 118.899 290.939C118.899 291.672 118.95 292.278 119.053 292.759C119.16 293.24 119.302 293.622 119.48 293.907C119.657 294.192 119.86 294.392 120.089 294.509C120.322 294.621 120.562 294.677 120.81 294.677C121.062 294.677 121.304 294.621 121.538 294.509C121.771 294.392 121.976 294.192 122.154 293.907C122.336 293.622 122.48 293.24 122.588 292.759C122.695 292.278 122.749 291.672 122.749 290.939ZM128.945 294.761C129.229 294.761 129.479 294.721 129.694 294.642C129.908 294.558 130.088 294.444 130.233 294.299C130.382 294.154 130.494 293.982 130.569 293.781C130.643 293.58 130.681 293.363 130.681 293.13C130.681 292.575 130.527 292.155 130.219 291.87C129.911 291.585 129.486 291.443 128.945 291.443C128.403 291.443 127.979 291.585 127.671 291.87C127.363 292.155 127.209 292.575 127.209 293.13C127.209 293.363 127.246 293.58 127.321 293.781C127.395 293.982 127.505 294.154 127.65 294.299C127.799 294.444 127.981 294.558 128.196 294.642C128.41 294.721 128.66 294.761 128.945 294.761ZM128.945 287.068C128.688 287.068 128.466 287.108 128.28 287.187C128.093 287.266 127.937 287.374 127.811 287.509C127.689 287.64 127.598 287.791 127.538 287.964C127.482 288.137 127.454 288.319 127.454 288.51C127.454 288.711 127.477 288.907 127.524 289.098C127.575 289.285 127.659 289.453 127.776 289.602C127.892 289.747 128.046 289.863 128.238 289.952C128.429 290.041 128.665 290.085 128.945 290.085C129.225 290.085 129.46 290.041 129.652 289.952C129.843 289.863 129.997 289.747 130.114 289.602C130.23 289.453 130.312 289.285 130.359 289.098C130.41 288.907 130.436 288.711 130.436 288.51C130.436 288.319 130.405 288.137 130.345 287.964C130.284 287.791 130.193 287.64 130.072 287.509C129.95 287.374 129.796 287.266 129.61 287.187C129.423 287.108 129.201 287.068 128.945 287.068ZM130.653 290.722C131.269 290.923 131.724 291.231 132.018 291.646C132.312 292.057 132.459 292.561 132.459 293.158C132.459 293.606 132.372 294.012 132.2 294.376C132.032 294.74 131.794 295.05 131.486 295.307C131.178 295.564 130.807 295.762 130.373 295.902C129.943 296.042 129.467 296.112 128.945 296.112C128.422 296.112 127.944 296.042 127.51 295.902C127.08 295.762 126.712 295.564 126.404 295.307C126.096 295.05 125.855 294.74 125.683 294.376C125.515 294.012 125.431 293.606 125.431 293.158C125.431 292.561 125.578 292.057 125.872 291.646C126.166 291.231 126.621 290.923 127.237 290.722C126.747 290.517 126.378 290.225 126.131 289.847C125.888 289.469 125.767 289.014 125.767 288.482C125.767 288.099 125.844 287.742 125.998 287.411C126.156 287.08 126.376 286.793 126.656 286.55C126.936 286.303 127.269 286.111 127.657 285.976C128.049 285.836 128.478 285.766 128.945 285.766C129.411 285.766 129.838 285.836 130.226 285.976C130.618 286.111 130.954 286.303 131.234 286.55C131.514 286.793 131.731 287.08 131.885 287.411C132.043 287.742 132.123 288.099 132.123 288.482C132.123 289.014 131.999 289.469 131.752 289.847C131.509 290.225 131.143 290.517 130.653 290.722Z" fill="#666666"/>
<rect width="21" height="78" transform="translate(168.5 62)" fill="#0E5855"/>
<rect width="21" height="132" transform="translate(168.5 140)" fill="#22DDD4"/>
<path d="M166.77 290.939C166.77 291.821 166.674 292.589 166.483 293.242C166.296 293.891 166.035 294.427 165.699 294.852C165.368 295.277 164.973 295.594 164.516 295.804C164.063 296.009 163.573 296.112 163.046 296.112C162.519 296.112 162.029 296.009 161.576 295.804C161.128 295.594 160.738 295.277 160.407 294.852C160.076 294.427 159.817 293.891 159.63 293.242C159.443 292.589 159.35 291.821 159.35 290.939C159.35 290.052 159.443 289.285 159.63 288.636C159.817 287.987 160.076 287.451 160.407 287.026C160.738 286.601 161.128 286.286 161.576 286.081C162.029 285.871 162.519 285.766 163.046 285.766C163.573 285.766 164.063 285.871 164.516 286.081C164.973 286.286 165.368 286.601 165.699 287.026C166.035 287.451 166.296 287.987 166.483 288.636C166.674 289.285 166.77 290.052 166.77 290.939ZM164.985 290.939C164.985 290.206 164.931 289.6 164.824 289.119C164.717 288.638 164.572 288.256 164.39 287.971C164.213 287.686 164.007 287.488 163.774 287.376C163.541 287.259 163.298 287.201 163.046 287.201C162.799 287.201 162.558 287.259 162.325 287.376C162.096 287.488 161.893 287.686 161.716 287.971C161.539 288.256 161.396 288.638 161.289 289.119C161.186 289.6 161.135 290.206 161.135 290.939C161.135 291.672 161.186 292.278 161.289 292.759C161.396 293.24 161.539 293.622 161.716 293.907C161.893 294.192 162.096 294.392 162.325 294.509C162.558 294.621 162.799 294.677 163.046 294.677C163.298 294.677 163.541 294.621 163.774 294.509C164.007 294.392 164.213 294.192 164.39 293.907C164.572 293.622 164.717 293.24 164.824 292.759C164.931 292.278 164.985 291.672 164.985 290.939ZM167.877 288.699C167.947 288.214 168.082 287.789 168.283 287.425C168.484 287.056 168.733 286.751 169.032 286.508C169.335 286.261 169.681 286.076 170.068 285.955C170.46 285.829 170.88 285.766 171.328 285.766C171.795 285.766 172.215 285.834 172.588 285.969C172.966 286.1 173.288 286.284 173.554 286.522C173.82 286.755 174.023 287.031 174.163 287.348C174.308 287.665 174.38 288.008 174.38 288.377C174.38 288.699 174.343 288.984 174.268 289.231C174.198 289.474 174.095 289.686 173.96 289.868C173.825 290.05 173.657 290.204 173.456 290.33C173.255 290.456 173.029 290.561 172.777 290.645C173.384 290.836 173.836 291.128 174.135 291.52C174.434 291.912 174.583 292.404 174.583 292.997C174.583 293.501 174.49 293.947 174.303 294.334C174.116 294.721 173.864 295.048 173.547 295.314C173.23 295.575 172.861 295.774 172.441 295.909C172.026 296.044 171.585 296.112 171.118 296.112C170.609 296.112 170.166 296.054 169.788 295.937C169.41 295.82 169.081 295.648 168.801 295.419C168.521 295.19 168.283 294.91 168.087 294.579C167.891 294.248 167.723 293.865 167.583 293.431L168.346 293.116C168.547 293.032 168.733 293.011 168.906 293.053C169.083 293.09 169.212 293.184 169.291 293.333C169.375 293.496 169.466 293.657 169.564 293.816C169.667 293.975 169.788 294.117 169.928 294.243C170.068 294.364 170.231 294.465 170.418 294.544C170.609 294.619 170.836 294.656 171.097 294.656C171.391 294.656 171.648 294.609 171.867 294.516C172.086 294.418 172.268 294.292 172.413 294.138C172.562 293.984 172.672 293.814 172.742 293.627C172.817 293.436 172.854 293.244 172.854 293.053C172.854 292.81 172.828 292.591 172.777 292.395C172.726 292.194 172.618 292.024 172.455 291.884C172.292 291.744 172.056 291.634 171.748 291.555C171.445 291.476 171.036 291.436 170.523 291.436V290.204C170.948 290.199 171.3 290.16 171.58 290.085C171.86 290.01 172.082 289.908 172.245 289.777C172.413 289.642 172.53 289.481 172.595 289.294C172.66 289.107 172.693 288.902 172.693 288.678C172.693 288.202 172.56 287.84 172.294 287.593C172.028 287.346 171.673 287.222 171.23 287.222C171.025 287.222 170.836 287.252 170.663 287.313C170.49 287.369 170.334 287.451 170.194 287.558C170.059 287.661 169.944 287.782 169.851 287.922C169.758 288.062 169.688 288.216 169.641 288.384C169.562 288.599 169.457 288.741 169.326 288.811C169.2 288.881 169.02 288.897 168.787 288.86L167.877 288.699ZM177.3 296.021C177.221 296.236 177.093 296.397 176.915 296.504C176.743 296.611 176.565 296.665 176.383 296.665H175.648L179.736 286.207C179.811 286.011 179.925 285.862 180.079 285.759C180.233 285.652 180.413 285.598 180.618 285.598H181.36L177.3 296.021ZM189.534 290.939C189.534 291.821 189.438 292.589 189.247 293.242C189.06 293.891 188.799 294.427 188.463 294.852C188.131 295.277 187.737 295.594 187.28 295.804C186.827 296.009 186.337 296.112 185.81 296.112C185.282 296.112 184.792 296.009 184.34 295.804C183.892 295.594 183.502 295.277 183.171 294.852C182.839 294.427 182.58 293.891 182.394 293.242C182.207 292.589 182.114 291.821 182.114 290.939C182.114 290.052 182.207 289.285 182.394 288.636C182.58 287.987 182.839 287.451 183.171 287.026C183.502 286.601 183.892 286.286 184.34 286.081C184.792 285.871 185.282 285.766 185.81 285.766C186.337 285.766 186.827 285.871 187.28 286.081C187.737 286.286 188.131 286.601 188.463 287.026C188.799 287.451 189.06 287.987 189.247 288.636C189.438 289.285 189.534 290.052 189.534 290.939ZM187.749 290.939C187.749 290.206 187.695 289.6 187.588 289.119C187.48 288.638 187.336 288.256 187.154 287.971C186.976 287.686 186.771 287.488 186.538 287.376C186.304 287.259 186.062 287.201 185.81 287.201C185.562 287.201 185.322 287.259 185.089 287.376C184.86 287.488 184.657 287.686 184.48 287.971C184.302 288.256 184.16 288.638 184.053 289.119C183.95 289.6 183.899 290.206 183.899 290.939C183.899 291.672 183.95 292.278 184.053 292.759C184.16 293.24 184.302 293.622 184.48 293.907C184.657 294.192 184.86 294.392 185.089 294.509C185.322 294.621 185.562 294.677 185.81 294.677C186.062 294.677 186.304 294.621 186.538 294.509C186.771 294.392 186.976 294.192 187.154 293.907C187.336 293.622 187.48 293.24 187.588 292.759C187.695 292.278 187.749 291.672 187.749 290.939ZM193.945 294.761C194.229 294.761 194.479 294.721 194.694 294.642C194.908 294.558 195.088 294.444 195.233 294.299C195.382 294.154 195.494 293.982 195.569 293.781C195.643 293.58 195.681 293.363 195.681 293.13C195.681 292.575 195.527 292.155 195.219 291.87C194.911 291.585 194.486 291.443 193.945 291.443C193.403 291.443 192.979 291.585 192.671 291.87C192.363 292.155 192.209 292.575 192.209 293.13C192.209 293.363 192.246 293.58 192.321 293.781C192.395 293.982 192.505 294.154 192.65 294.299C192.799 294.444 192.981 294.558 193.196 294.642C193.41 294.721 193.66 294.761 193.945 294.761ZM193.945 287.068C193.688 287.068 193.466 287.108 193.28 287.187C193.093 287.266 192.937 287.374 192.811 287.509C192.689 287.64 192.598 287.791 192.538 287.964C192.482 288.137 192.454 288.319 192.454 288.51C192.454 288.711 192.477 288.907 192.524 289.098C192.575 289.285 192.659 289.453 192.776 289.602C192.892 289.747 193.046 289.863 193.238 289.952C193.429 290.041 193.665 290.085 193.945 290.085C194.225 290.085 194.46 290.041 194.652 289.952C194.843 289.863 194.997 289.747 195.114 289.602C195.23 289.453 195.312 289.285 195.359 289.098C195.41 288.907 195.436 288.711 195.436 288.51C195.436 288.319 195.405 288.137 195.345 287.964C195.284 287.791 195.193 287.64 195.072 287.509C194.95 287.374 194.796 287.266 194.61 287.187C194.423 287.108 194.201 287.068 193.945 287.068ZM195.653 290.722C196.269 290.923 196.724 291.231 197.018 291.646C197.312 292.057 197.459 292.561 197.459 293.158C197.459 293.606 197.372 294.012 197.2 294.376C197.032 294.74 196.794 295.05 196.486 295.307C196.178 295.564 195.807 295.762 195.373 295.902C194.943 296.042 194.467 296.112 193.945 296.112C193.422 296.112 192.944 296.042 192.51 295.902C192.08 295.762 191.712 295.564 191.404 295.307C191.096 295.05 190.855 294.74 190.683 294.376C190.515 294.012 190.431 293.606 190.431 293.158C190.431 292.561 190.578 292.057 190.872 291.646C191.166 291.231 191.621 290.923 192.237 290.722C191.747 290.517 191.378 290.225 191.131 289.847C190.888 289.469 190.767 289.014 190.767 288.482C190.767 288.099 190.844 287.742 190.998 287.411C191.156 287.08 191.376 286.793 191.656 286.55C191.936 286.303 192.269 286.111 192.657 285.976C193.049 285.836 193.478 285.766 193.945 285.766C194.411 285.766 194.838 285.836 195.226 285.976C195.618 286.111 195.954 286.303 196.234 286.55C196.514 286.793 196.731 287.08 196.885 287.411C197.043 287.742 197.123 288.099 197.123 288.482C197.123 289.014 196.999 289.469 196.752 289.847C196.509 290.225 196.143 290.517 195.653 290.722Z" fill="#666666"/>
<rect width="21" height="108" transform="translate(230.5 62)" fill="#0E5855"/>
<rect width="21" height="102" transform="translate(230.5 170)" fill="#22DDD4"/>
<path d="M228.77 290.939C228.77 291.821 228.674 292.589 228.483 293.242C228.296 293.891 228.035 294.427 227.699 294.852C227.368 295.277 226.973 295.594 226.516 295.804C226.063 296.009 225.573 296.112 225.046 296.112C224.519 296.112 224.029 296.009 223.576 295.804C223.128 295.594 222.738 295.277 222.407 294.852C222.076 294.427 221.817 293.891 221.63 293.242C221.443 292.589 221.35 291.821 221.35 290.939C221.35 290.052 221.443 289.285 221.63 288.636C221.817 287.987 222.076 287.451 222.407 287.026C222.738 286.601 223.128 286.286 223.576 286.081C224.029 285.871 224.519 285.766 225.046 285.766C225.573 285.766 226.063 285.871 226.516 286.081C226.973 286.286 227.368 286.601 227.699 287.026C228.035 287.451 228.296 287.987 228.483 288.636C228.674 289.285 228.77 290.052 228.77 290.939ZM226.985 290.939C226.985 290.206 226.931 289.6 226.824 289.119C226.717 288.638 226.572 288.256 226.39 287.971C226.213 287.686 226.007 287.488 225.774 287.376C225.541 287.259 225.298 287.201 225.046 287.201C224.799 287.201 224.558 287.259 224.325 287.376C224.096 287.488 223.893 287.686 223.716 287.971C223.539 288.256 223.396 288.638 223.289 289.119C223.186 289.6 223.135 290.206 223.135 290.939C223.135 291.672 223.186 292.278 223.289 292.759C223.396 293.24 223.539 293.622 223.716 293.907C223.893 294.192 224.096 294.392 224.325 294.509C224.558 294.621 224.799 294.677 225.046 294.677C225.298 294.677 225.541 294.621 225.774 294.509C226.007 294.392 226.213 294.192 226.39 293.907C226.572 293.622 226.717 293.24 226.824 292.759C226.931 292.278 226.985 291.672 226.985 290.939ZM234.105 292.185V288.874C234.105 288.561 234.126 288.216 234.168 287.838L231.025 292.185H234.105ZM236.884 292.185V293.186C236.884 293.279 236.854 293.361 236.793 293.431C236.732 293.496 236.646 293.529 236.534 293.529H235.61V296H234.105V293.529H229.835C229.718 293.529 229.616 293.494 229.527 293.424C229.438 293.349 229.382 293.258 229.359 293.151L229.177 292.276L233.972 285.871H235.61V292.185H236.884ZM239.3 296.021C239.221 296.236 239.093 296.397 238.915 296.504C238.743 296.611 238.565 296.665 238.383 296.665H237.648L241.736 286.207C241.811 286.011 241.925 285.862 242.079 285.759C242.233 285.652 242.413 285.598 242.618 285.598H243.36L239.3 296.021ZM251.534 290.939C251.534 291.821 251.438 292.589 251.247 293.242C251.06 293.891 250.799 294.427 250.463 294.852C250.131 295.277 249.737 295.594 249.28 295.804C248.827 296.009 248.337 296.112 247.81 296.112C247.282 296.112 246.792 296.009 246.34 295.804C245.892 295.594 245.502 295.277 245.171 294.852C244.839 294.427 244.58 293.891 244.394 293.242C244.207 292.589 244.114 291.821 244.114 290.939C244.114 290.052 244.207 289.285 244.394 288.636C244.58 287.987 244.839 287.451 245.171 287.026C245.502 286.601 245.892 286.286 246.34 286.081C246.792 285.871 247.282 285.766 247.81 285.766C248.337 285.766 248.827 285.871 249.28 286.081C249.737 286.286 250.131 286.601 250.463 287.026C250.799 287.451 251.06 287.987 251.247 288.636C251.438 289.285 251.534 290.052 251.534 290.939ZM249.749 290.939C249.749 290.206 249.695 289.6 249.588 289.119C249.48 288.638 249.336 288.256 249.154 287.971C248.976 287.686 248.771 287.488 248.538 287.376C248.304 287.259 248.062 287.201 247.81 287.201C247.562 287.201 247.322 287.259 247.089 287.376C246.86 287.488 246.657 287.686 246.48 287.971C246.302 288.256 246.16 288.638 246.053 289.119C245.95 289.6 245.899 290.206 245.899 290.939C245.899 291.672 245.95 292.278 246.053 292.759C246.16 293.24 246.302 293.622 246.48 293.907C246.657 294.192 246.86 294.392 247.089 294.509C247.322 294.621 247.562 294.677 247.81 294.677C248.062 294.677 248.304 294.621 248.538 294.509C248.771 294.392 248.976 294.192 249.154 293.907C249.336 293.622 249.48 293.24 249.588 292.759C249.695 292.278 249.749 291.672 249.749 290.939ZM255.945 294.761C256.229 294.761 256.479 294.721 256.694 294.642C256.908 294.558 257.088 294.444 257.233 294.299C257.382 294.154 257.494 293.982 257.569 293.781C257.643 293.58 257.681 293.363 257.681 293.13C257.681 292.575 257.527 292.155 257.219 291.87C256.911 291.585 256.486 291.443 255.945 291.443C255.403 291.443 254.979 291.585 254.671 291.87C254.363 292.155 254.209 292.575 254.209 293.13C254.209 293.363 254.246 293.58 254.321 293.781C254.395 293.982 254.505 294.154 254.65 294.299C254.799 294.444 254.981 294.558 255.196 294.642C255.41 294.721 255.66 294.761 255.945 294.761ZM255.945 287.068C255.688 287.068 255.466 287.108 255.28 287.187C255.093 287.266 254.937 287.374 254.811 287.509C254.689 287.64 254.598 287.791 254.538 287.964C254.482 288.137 254.454 288.319 254.454 288.51C254.454 288.711 254.477 288.907 254.524 289.098C254.575 289.285 254.659 289.453 254.776 289.602C254.892 289.747 255.046 289.863 255.238 289.952C255.429 290.041 255.665 290.085 255.945 290.085C256.225 290.085 256.46 290.041 256.652 289.952C256.843 289.863 256.997 289.747 257.114 289.602C257.23 289.453 257.312 289.285 257.359 289.098C257.41 288.907 257.436 288.711 257.436 288.51C257.436 288.319 257.405 288.137 257.345 287.964C257.284 287.791 257.193 287.64 257.072 287.509C256.95 287.374 256.796 287.266 256.61 287.187C256.423 287.108 256.201 287.068 255.945 287.068ZM257.653 290.722C258.269 290.923 258.724 291.231 259.018 291.646C259.312 292.057 259.459 292.561 259.459 293.158C259.459 293.606 259.372 294.012 259.2 294.376C259.032 294.74 258.794 295.05 258.486 295.307C258.178 295.564 257.807 295.762 257.373 295.902C256.943 296.042 256.467 296.112 255.945 296.112C255.422 296.112 254.944 296.042 254.51 295.902C254.08 295.762 253.712 295.564 253.404 295.307C253.096 295.05 252.855 294.74 252.683 294.376C252.515 294.012 252.431 293.606 252.431 293.158C252.431 292.561 252.578 292.057 252.872 291.646C253.166 291.231 253.621 290.923 254.237 290.722C253.747 290.517 253.378 290.225 253.131 289.847C252.888 289.469 252.767 289.014 252.767 288.482C252.767 288.099 252.844 287.742 252.998 287.411C253.156 287.08 253.376 286.793 253.656 286.55C253.936 286.303 254.269 286.111 254.657 285.976C255.049 285.836 255.478 285.766 255.945 285.766C256.411 285.766 256.838 285.836 257.226 285.976C257.618 286.111 257.954 286.303 258.234 286.55C258.514 286.793 258.731 287.08 258.885 287.411C259.043 287.742 259.123 288.099 259.123 288.482C259.123 289.014 258.999 289.469 258.752 289.847C258.509 290.225 258.143 290.517 257.653 290.722Z" fill="#666666"/>
<rect width="21" height="195" transform="translate(292.5 62)" fill="#0E5855"/>
<rect width="21" height="15" transform="translate(292.5 257)" fill="#22DDD4"/>
<path d="M287.77 290.939C287.77 291.821 287.674 292.589 287.483 293.242C287.296 293.891 287.035 294.427 286.699 294.852C286.368 295.277 285.973 295.594 285.516 295.804C285.063 296.009 284.573 296.112 284.046 296.112C283.519 296.112 283.029 296.009 282.576 295.804C282.128 295.594 281.738 295.277 281.407 294.852C281.076 294.427 280.817 293.891 280.63 293.242C280.443 292.589 280.35 291.821 280.35 290.939C280.35 290.052 280.443 289.285 280.63 288.636C280.817 287.987 281.076 287.451 281.407 287.026C281.738 286.601 282.128 286.286 282.576 286.081C283.029 285.871 283.519 285.766 284.046 285.766C284.573 285.766 285.063 285.871 285.516 286.081C285.973 286.286 286.368 286.601 286.699 287.026C287.035 287.451 287.296 287.987 287.483 288.636C287.674 289.285 287.77 290.052 287.77 290.939ZM285.985 290.939C285.985 290.206 285.931 289.6 285.824 289.119C285.717 288.638 285.572 288.256 285.39 287.971C285.213 287.686 285.007 287.488 284.774 287.376C284.541 287.259 284.298 287.201 284.046 287.201C283.799 287.201 283.558 287.259 283.325 287.376C283.096 287.488 282.893 287.686 282.716 287.971C282.539 288.256 282.396 288.638 282.289 289.119C282.186 289.6 282.135 290.206 282.135 290.939C282.135 291.672 282.186 292.278 282.289 292.759C282.396 293.24 282.539 293.622 282.716 293.907C282.893 294.192 283.096 294.392 283.325 294.509C283.558 294.621 283.799 294.677 284.046 294.677C284.298 294.677 284.541 294.621 284.774 294.509C285.007 294.392 285.213 294.192 285.39 293.907C285.572 293.622 285.717 293.24 285.824 292.759C285.931 292.278 285.985 291.672 285.985 290.939ZM290.963 289.553C291.187 289.506 291.402 289.474 291.607 289.455C291.812 289.432 292.011 289.42 292.202 289.42C292.734 289.42 293.203 289.499 293.609 289.658C294.015 289.817 294.356 290.036 294.631 290.316C294.906 290.596 295.114 290.925 295.254 291.303C295.394 291.676 295.464 292.08 295.464 292.514C295.464 293.051 295.368 293.541 295.177 293.984C294.99 294.427 294.729 294.808 294.393 295.125C294.057 295.438 293.658 295.68 293.196 295.853C292.739 296.026 292.239 296.112 291.698 296.112C291.381 296.112 291.08 296.079 290.795 296.014C290.51 295.949 290.242 295.862 289.99 295.755C289.743 295.643 289.512 295.517 289.297 295.377C289.087 295.232 288.898 295.081 288.73 294.922L289.262 294.187C289.374 294.028 289.521 293.949 289.703 293.949C289.82 293.949 289.939 293.986 290.06 294.061C290.181 294.136 290.319 294.217 290.473 294.306C290.632 294.395 290.816 294.476 291.026 294.551C291.241 294.626 291.497 294.663 291.796 294.663C292.113 294.663 292.393 294.612 292.636 294.509C292.879 294.406 293.079 294.264 293.238 294.082C293.401 293.895 293.523 293.676 293.602 293.424C293.686 293.167 293.728 292.89 293.728 292.591C293.728 292.04 293.567 291.611 293.245 291.303C292.928 290.99 292.456 290.834 291.831 290.834C291.35 290.834 290.858 290.923 290.354 291.1L289.276 290.792L290.116 285.878H295.114V286.613C295.114 286.86 295.037 287.061 294.883 287.215C294.729 287.369 294.468 287.446 294.099 287.446H291.32L290.963 289.553ZM298.3 296.021C298.221 296.236 298.093 296.397 297.915 296.504C297.743 296.611 297.565 296.665 297.383 296.665H296.648L300.736 286.207C300.811 286.011 300.925 285.862 301.079 285.759C301.233 285.652 301.413 285.598 301.618 285.598H302.36L298.3 296.021ZM310.534 290.939C310.534 291.821 310.438 292.589 310.247 293.242C310.06 293.891 309.799 294.427 309.463 294.852C309.131 295.277 308.737 295.594 308.28 295.804C307.827 296.009 307.337 296.112 306.81 296.112C306.282 296.112 305.792 296.009 305.34 295.804C304.892 295.594 304.502 295.277 304.171 294.852C303.839 294.427 303.58 293.891 303.394 293.242C303.207 292.589 303.114 291.821 303.114 290.939C303.114 290.052 303.207 289.285 303.394 288.636C303.58 287.987 303.839 287.451 304.171 287.026C304.502 286.601 304.892 286.286 305.34 286.081C305.792 285.871 306.282 285.766 306.81 285.766C307.337 285.766 307.827 285.871 308.28 286.081C308.737 286.286 309.131 286.601 309.463 287.026C309.799 287.451 310.06 287.987 310.247 288.636C310.438 289.285 310.534 290.052 310.534 290.939ZM308.749 290.939C308.749 290.206 308.695 289.6 308.588 289.119C308.48 288.638 308.336 288.256 308.154 287.971C307.976 287.686 307.771 287.488 307.538 287.376C307.304 287.259 307.062 287.201 306.81 287.201C306.562 287.201 306.322 287.259 306.089 287.376C305.86 287.488 305.657 287.686 305.48 287.971C305.302 288.256 305.16 288.638 305.053 289.119C304.95 289.6 304.899 290.206 304.899 290.939C304.899 291.672 304.95 292.278 305.053 292.759C305.16 293.24 305.302 293.622 305.48 293.907C305.657 294.192 305.86 294.392 306.089 294.509C306.322 294.621 306.562 294.677 306.81 294.677C307.062 294.677 307.304 294.621 307.538 294.509C307.771 294.392 307.976 294.192 308.154 293.907C308.336 293.622 308.48 293.24 308.588 292.759C308.695 292.278 308.749 291.672 308.749 290.939ZM314.945 294.761C315.229 294.761 315.479 294.721 315.694 294.642C315.908 294.558 316.088 294.444 316.233 294.299C316.382 294.154 316.494 293.982 316.569 293.781C316.643 293.58 316.681 293.363 316.681 293.13C316.681 292.575 316.527 292.155 316.219 291.87C315.911 291.585 315.486 291.443 314.945 291.443C314.403 291.443 313.979 291.585 313.671 291.87C313.363 292.155 313.209 292.575 313.209 293.13C313.209 293.363 313.246 293.58 313.321 293.781C313.395 293.982 313.505 294.154 313.65 294.299C313.799 294.444 313.981 294.558 314.196 294.642C314.41 294.721 314.66 294.761 314.945 294.761ZM314.945 287.068C314.688 287.068 314.466 287.108 314.28 287.187C314.093 287.266 313.937 287.374 313.811 287.509C313.689 287.64 313.598 287.791 313.538 287.964C313.482 288.137 313.454 288.319 313.454 288.51C313.454 288.711 313.477 288.907 313.524 289.098C313.575 289.285 313.659 289.453 313.776 289.602C313.892 289.747 314.046 289.863 314.238 289.952C314.429 290.041 314.665 290.085 314.945 290.085C315.225 290.085 315.46 290.041 315.652 289.952C315.843 289.863 315.997 289.747 316.114 289.602C316.23 289.453 316.312 289.285 316.359 289.098C316.41 288.907 316.436 288.711 316.436 288.51C316.436 288.319 316.405 288.137 316.345 287.964C316.284 287.791 316.193 287.64 316.072 287.509C315.95 287.374 315.796 287.266 315.61 287.187C315.423 287.108 315.201 287.068 314.945 287.068ZM316.653 290.722C317.269 290.923 317.724 291.231 318.018 291.646C318.312 292.057 318.459 292.561 318.459 293.158C318.459 293.606 318.372 294.012 318.2 294.376C318.032 294.74 317.794 295.05 317.486 295.307C317.178 295.564 316.807 295.762 316.373 295.902C315.943 296.042 315.467 296.112 314.945 296.112C314.422 296.112 313.944 296.042 313.51 295.902C313.08 295.762 312.712 295.564 312.404 295.307C312.096 295.05 311.855 294.74 311.683 294.376C311.515 294.012 311.431 293.606 311.431 293.158C311.431 292.561 311.578 292.057 311.872 291.646C312.166 291.231 312.621 290.923 313.237 290.722C312.747 290.517 312.378 290.225 312.131 289.847C311.888 289.469 311.767 289.014 311.767 288.482C311.767 288.099 311.844 287.742 311.998 287.411C312.156 287.08 312.376 286.793 312.656 286.55C312.936 286.303 313.269 286.111 313.657 285.976C314.049 285.836 314.478 285.766 314.945 285.766C315.411 285.766 315.838 285.836 316.226 285.976C316.618 286.111 316.954 286.303 317.234 286.55C317.514 286.793 317.731 287.08 317.885 287.411C318.043 287.742 318.123 288.099 318.123 288.482C318.123 289.014 317.999 289.469 317.752 289.847C317.509 290.225 317.143 290.517 316.653 290.722Z" fill="#666666"/>
<rect width="21" height="15" transform="translate(354.5 62)" fill="#0E5855"/>
<rect width="21" height="195" transform="translate(354.5 77)" fill="#22DDD4"/>
<path d="M349.77 290.939C349.77 291.821 349.674 292.589 349.483 293.242C349.296 293.891 349.035 294.427 348.699 294.852C348.368 295.277 347.973 295.594 347.516 295.804C347.063 296.009 346.573 296.112 346.046 296.112C345.519 296.112 345.029 296.009 344.576 295.804C344.128 295.594 343.738 295.277 343.407 294.852C343.076 294.427 342.817 293.891 342.63 293.242C342.443 292.589 342.35 291.821 342.35 290.939C342.35 290.052 342.443 289.285 342.63 288.636C342.817 287.987 343.076 287.451 343.407 287.026C343.738 286.601 344.128 286.286 344.576 286.081C345.029 285.871 345.519 285.766 346.046 285.766C346.573 285.766 347.063 285.871 347.516 286.081C347.973 286.286 348.368 286.601 348.699 287.026C349.035 287.451 349.296 287.987 349.483 288.636C349.674 289.285 349.77 290.052 349.77 290.939ZM347.985 290.939C347.985 290.206 347.931 289.6 347.824 289.119C347.717 288.638 347.572 288.256 347.39 287.971C347.213 287.686 347.007 287.488 346.774 287.376C346.541 287.259 346.298 287.201 346.046 287.201C345.799 287.201 345.558 287.259 345.325 287.376C345.096 287.488 344.893 287.686 344.716 287.971C344.539 288.256 344.396 288.638 344.289 289.119C344.186 289.6 344.135 290.206 344.135 290.939C344.135 291.672 344.186 292.278 344.289 292.759C344.396 293.24 344.539 293.622 344.716 293.907C344.893 294.192 345.096 294.392 345.325 294.509C345.558 294.621 345.799 294.677 346.046 294.677C346.298 294.677 346.541 294.621 346.774 294.509C347.007 294.392 347.213 294.192 347.39 293.907C347.572 293.622 347.717 293.24 347.824 292.759C347.931 292.278 347.985 291.672 347.985 290.939ZM353.775 289.553L353.425 289.987C353.621 289.889 353.831 289.814 354.055 289.763C354.284 289.707 354.529 289.679 354.79 289.679C355.173 289.679 355.544 289.742 355.903 289.868C356.267 289.994 356.587 290.185 356.862 290.442C357.137 290.694 357.359 291.009 357.527 291.387C357.695 291.765 357.779 292.206 357.779 292.71C357.779 293.181 357.693 293.625 357.52 294.04C357.347 294.451 357.105 294.81 356.792 295.118C356.479 295.426 356.101 295.669 355.658 295.846C355.219 296.023 354.734 296.112 354.202 296.112C353.661 296.112 353.175 296.026 352.746 295.853C352.317 295.68 351.95 295.44 351.647 295.132C351.344 294.819 351.11 294.446 350.947 294.012C350.788 293.573 350.709 293.088 350.709 292.556C350.709 292.08 350.805 291.592 350.996 291.093C351.192 290.589 351.493 290.066 351.899 289.525L354.314 286.284C354.398 286.172 354.519 286.076 354.678 285.997C354.841 285.918 355.028 285.878 355.238 285.878H356.778L353.775 289.553ZM354.167 294.698C354.442 294.698 354.694 294.651 354.923 294.558C355.156 294.465 355.355 294.334 355.518 294.166C355.686 293.998 355.817 293.802 355.91 293.578C356.003 293.349 356.05 293.102 356.05 292.836C356.05 292.547 356.006 292.288 355.917 292.059C355.828 291.826 355.702 291.63 355.539 291.471C355.376 291.308 355.18 291.184 354.951 291.1C354.722 291.016 354.47 290.974 354.195 290.974C353.92 290.974 353.67 291.021 353.446 291.114C353.222 291.207 353.031 291.338 352.872 291.506C352.713 291.669 352.59 291.865 352.501 292.094C352.412 292.318 352.368 292.561 352.368 292.822C352.368 293.102 352.405 293.359 352.48 293.592C352.559 293.821 352.674 294.017 352.823 294.18C352.977 294.343 353.166 294.472 353.39 294.565C353.614 294.654 353.873 294.698 354.167 294.698ZM360.3 296.021C360.221 296.236 360.093 296.397 359.915 296.504C359.743 296.611 359.565 296.665 359.383 296.665H358.648L362.736 286.207C362.811 286.011 362.925 285.862 363.079 285.759C363.233 285.652 363.413 285.598 363.618 285.598H364.36L360.3 296.021ZM372.534 290.939C372.534 291.821 372.438 292.589 372.247 293.242C372.06 293.891 371.799 294.427 371.463 294.852C371.131 295.277 370.737 295.594 370.28 295.804C369.827 296.009 369.337 296.112 368.81 296.112C368.282 296.112 367.792 296.009 367.34 295.804C366.892 295.594 366.502 295.277 366.171 294.852C365.839 294.427 365.58 293.891 365.394 293.242C365.207 292.589 365.114 291.821 365.114 290.939C365.114 290.052 365.207 289.285 365.394 288.636C365.58 287.987 365.839 287.451 366.171 287.026C366.502 286.601 366.892 286.286 367.34 286.081C367.792 285.871 368.282 285.766 368.81 285.766C369.337 285.766 369.827 285.871 370.28 286.081C370.737 286.286 371.131 286.601 371.463 287.026C371.799 287.451 372.06 287.987 372.247 288.636C372.438 289.285 372.534 290.052 372.534 290.939ZM370.749 290.939C370.749 290.206 370.695 289.6 370.588 289.119C370.48 288.638 370.336 288.256 370.154 287.971C369.976 287.686 369.771 287.488 369.538 287.376C369.304 287.259 369.062 287.201 368.81 287.201C368.562 287.201 368.322 287.259 368.089 287.376C367.86 287.488 367.657 287.686 367.48 287.971C367.302 288.256 367.16 288.638 367.053 289.119C366.95 289.6 366.899 290.206 366.899 290.939C366.899 291.672 366.95 292.278 367.053 292.759C367.16 293.24 367.302 293.622 367.48 293.907C367.657 294.192 367.86 294.392 368.089 294.509C368.322 294.621 368.562 294.677 368.81 294.677C369.062 294.677 369.304 294.621 369.538 294.509C369.771 294.392 369.976 294.192 370.154 293.907C370.336 293.622 370.48 293.24 370.588 292.759C370.695 292.278 370.749 291.672 370.749 290.939ZM376.945 294.761C377.229 294.761 377.479 294.721 377.694 294.642C377.908 294.558 378.088 294.444 378.233 294.299C378.382 294.154 378.494 293.982 378.569 293.781C378.643 293.58 378.681 293.363 378.681 293.13C378.681 292.575 378.527 292.155 378.219 291.87C377.911 291.585 377.486 291.443 376.945 291.443C376.403 291.443 375.979 291.585 375.671 291.87C375.363 292.155 375.209 292.575 375.209 293.13C375.209 293.363 375.246 293.58 375.321 293.781C375.395 293.982 375.505 294.154 375.65 294.299C375.799 294.444 375.981 294.558 376.196 294.642C376.41 294.721 376.66 294.761 376.945 294.761ZM376.945 287.068C376.688 287.068 376.466 287.108 376.28 287.187C376.093 287.266 375.937 287.374 375.811 287.509C375.689 287.64 375.598 287.791 375.538 287.964C375.482 288.137 375.454 288.319 375.454 288.51C375.454 288.711 375.477 288.907 375.524 289.098C375.575 289.285 375.659 289.453 375.776 289.602C375.892 289.747 376.046 289.863 376.238 289.952C376.429 290.041 376.665 290.085 376.945 290.085C377.225 290.085 377.46 290.041 377.652 289.952C377.843 289.863 377.997 289.747 378.114 289.602C378.23 289.453 378.312 289.285 378.359 289.098C378.41 288.907 378.436 288.711 378.436 288.51C378.436 288.319 378.405 288.137 378.345 287.964C378.284 287.791 378.193 287.64 378.072 287.509C377.95 287.374 377.796 287.266 377.61 287.187C377.423 287.108 377.201 287.068 376.945 287.068ZM378.653 290.722C379.269 290.923 379.724 291.231 380.018 291.646C380.312 292.057 380.459 292.561 380.459 293.158C380.459 293.606 380.372 294.012 380.2 294.376C380.032 294.74 379.794 295.05 379.486 295.307C379.178 295.564 378.807 295.762 378.373 295.902C377.943 296.042 377.467 296.112 376.945 296.112C376.422 296.112 375.944 296.042 375.51 295.902C375.08 295.762 374.712 295.564 374.404 295.307C374.096 295.05 373.855 294.74 373.683 294.376C373.515 294.012 373.431 293.606 373.431 293.158C373.431 292.561 373.578 292.057 373.872 291.646C374.166 291.231 374.621 290.923 375.237 290.722C374.747 290.517 374.378 290.225 374.131 289.847C373.888 289.469 373.767 289.014 373.767 288.482C373.767 288.099 373.844 287.742 373.998 287.411C374.156 287.08 374.376 286.793 374.656 286.55C374.936 286.303 375.269 286.111 375.657 285.976C376.049 285.836 376.478 285.766 376.945 285.766C377.411 285.766 377.838 285.836 378.226 285.976C378.618 286.111 378.954 286.303 379.234 286.55C379.514 286.793 379.731 287.08 379.885 287.411C380.043 287.742 380.123 288.099 380.123 288.482C380.123 289.014 379.999 289.469 379.752 289.847C379.509 290.225 379.143 290.517 378.653 290.722Z" fill="#666666"/>
<rect width="21" height="188" transform="translate(416.5 62)" fill="#0E5855"/>
<rect width="21" height="22" transform="translate(416.5 250)" fill="#22DDD4"/>
<path d="M414.77 290.939C414.77 291.821 414.674 292.589 414.483 293.242C414.296 293.891 414.035 294.427 413.699 294.852C413.368 295.277 412.973 295.594 412.516 295.804C412.063 296.009 411.573 296.112 411.046 296.112C410.519 296.112 410.029 296.009 409.576 295.804C409.128 295.594 408.738 295.277 408.407 294.852C408.076 294.427 407.817 293.891 407.63 293.242C407.443 292.589 407.35 291.821 407.35 290.939C407.35 290.052 407.443 289.285 407.63 288.636C407.817 287.987 408.076 287.451 408.407 287.026C408.738 286.601 409.128 286.286 409.576 286.081C410.029 285.871 410.519 285.766 411.046 285.766C411.573 285.766 412.063 285.871 412.516 286.081C412.973 286.286 413.368 286.601 413.699 287.026C414.035 287.451 414.296 287.987 414.483 288.636C414.674 289.285 414.77 290.052 414.77 290.939ZM412.985 290.939C412.985 290.206 412.931 289.6 412.824 289.119C412.717 288.638 412.572 288.256 412.39 287.971C412.213 287.686 412.007 287.488 411.774 287.376C411.541 287.259 411.298 287.201 411.046 287.201C410.799 287.201 410.558 287.259 410.325 287.376C410.096 287.488 409.893 287.686 409.716 287.971C409.539 288.256 409.396 288.638 409.289 289.119C409.186 289.6 409.135 290.206 409.135 290.939C409.135 291.672 409.186 292.278 409.289 292.759C409.396 293.24 409.539 293.622 409.716 293.907C409.893 294.192 410.096 294.392 410.325 294.509C410.558 294.621 410.799 294.677 411.046 294.677C411.298 294.677 411.541 294.621 411.774 294.509C412.007 294.392 412.213 294.192 412.39 293.907C412.572 293.622 412.717 293.24 412.824 292.759C412.931 292.278 412.985 291.672 412.985 290.939ZM422.765 285.878V286.627C422.765 286.851 422.742 287.033 422.695 287.173C422.648 287.308 422.602 287.423 422.555 287.516L418.719 295.412C418.64 295.575 418.528 295.715 418.383 295.832C418.238 295.944 418.045 296 417.802 296H416.549L420.462 288.265C420.551 288.106 420.637 287.962 420.721 287.831C420.81 287.696 420.908 287.567 421.015 287.446H416.171C416.064 287.446 415.97 287.406 415.891 287.327C415.812 287.248 415.772 287.154 415.772 287.047V285.878H422.765ZM425.3 296.021C425.221 296.236 425.093 296.397 424.915 296.504C424.743 296.611 424.565 296.665 424.383 296.665H423.648L427.736 286.207C427.811 286.011 427.925 285.862 428.079 285.759C428.233 285.652 428.413 285.598 428.618 285.598H429.36L425.3 296.021ZM437.534 290.939C437.534 291.821 437.438 292.589 437.247 293.242C437.06 293.891 436.799 294.427 436.463 294.852C436.131 295.277 435.737 295.594 435.28 295.804C434.827 296.009 434.337 296.112 433.81 296.112C433.282 296.112 432.792 296.009 432.34 295.804C431.892 295.594 431.502 295.277 431.171 294.852C430.839 294.427 430.58 293.891 430.394 293.242C430.207 292.589 430.114 291.821 430.114 290.939C430.114 290.052 430.207 289.285 430.394 288.636C430.58 287.987 430.839 287.451 431.171 287.026C431.502 286.601 431.892 286.286 432.34 286.081C432.792 285.871 433.282 285.766 433.81 285.766C434.337 285.766 434.827 285.871 435.28 286.081C435.737 286.286 436.131 286.601 436.463 287.026C436.799 287.451 437.06 287.987 437.247 288.636C437.438 289.285 437.534 290.052 437.534 290.939ZM435.749 290.939C435.749 290.206 435.695 289.6 435.588 289.119C435.48 288.638 435.336 288.256 435.154 287.971C434.976 287.686 434.771 287.488 434.538 287.376C434.304 287.259 434.062 287.201 433.81 287.201C433.562 287.201 433.322 287.259 433.089 287.376C432.86 287.488 432.657 287.686 432.48 287.971C432.302 288.256 432.16 288.638 432.053 289.119C431.95 289.6 431.899 290.206 431.899 290.939C431.899 291.672 431.95 292.278 432.053 292.759C432.16 293.24 432.302 293.622 432.48 293.907C432.657 294.192 432.86 294.392 433.089 294.509C433.322 294.621 433.562 294.677 433.81 294.677C434.062 294.677 434.304 294.621 434.538 294.509C434.771 294.392 434.976 294.192 435.154 293.907C435.336 293.622 435.48 293.24 435.588 292.759C435.695 292.278 435.749 291.672 435.749 290.939ZM441.945 294.761C442.229 294.761 442.479 294.721 442.694 294.642C442.908 294.558 443.088 294.444 443.233 294.299C443.382 294.154 443.494 293.982 443.569 293.781C443.643 293.58 443.681 293.363 443.681 293.13C443.681 292.575 443.527 292.155 443.219 291.87C442.911 291.585 442.486 291.443 441.945 291.443C441.403 291.443 440.979 291.585 440.671 291.87C440.363 292.155 440.209 292.575 440.209 293.13C440.209 293.363 440.246 293.58 440.321 293.781C440.395 293.982 440.505 294.154 440.65 294.299C440.799 294.444 440.981 294.558 441.196 294.642C441.41 294.721 441.66 294.761 441.945 294.761ZM441.945 287.068C441.688 287.068 441.466 287.108 441.28 287.187C441.093 287.266 440.937 287.374 440.811 287.509C440.689 287.64 440.598 287.791 440.538 287.964C440.482 288.137 440.454 288.319 440.454 288.51C440.454 288.711 440.477 288.907 440.524 289.098C440.575 289.285 440.659 289.453 440.776 289.602C440.892 289.747 441.046 289.863 441.238 289.952C441.429 290.041 441.665 290.085 441.945 290.085C442.225 290.085 442.46 290.041 442.652 289.952C442.843 289.863 442.997 289.747 443.114 289.602C443.23 289.453 443.312 289.285 443.359 289.098C443.41 288.907 443.436 288.711 443.436 288.51C443.436 288.319 443.405 288.137 443.345 287.964C443.284 287.791 443.193 287.64 443.072 287.509C442.95 287.374 442.796 287.266 442.61 287.187C442.423 287.108 442.201 287.068 441.945 287.068ZM443.653 290.722C444.269 290.923 444.724 291.231 445.018 291.646C445.312 292.057 445.459 292.561 445.459 293.158C445.459 293.606 445.372 294.012 445.2 294.376C445.032 294.74 444.794 295.05 444.486 295.307C444.178 295.564 443.807 295.762 443.373 295.902C442.943 296.042 442.467 296.112 441.945 296.112C441.422 296.112 440.944 296.042 440.51 295.902C440.08 295.762 439.712 295.564 439.404 295.307C439.096 295.05 438.855 294.74 438.683 294.376C438.515 294.012 438.431 293.606 438.431 293.158C438.431 292.561 438.578 292.057 438.872 291.646C439.166 291.231 439.621 290.923 440.237 290.722C439.747 290.517 439.378 290.225 439.131 289.847C438.888 289.469 438.767 289.014 438.767 288.482C438.767 288.099 438.844 287.742 438.998 287.411C439.156 287.08 439.376 286.793 439.656 286.55C439.936 286.303 440.269 286.111 440.657 285.976C441.049 285.836 441.478 285.766 441.945 285.766C442.411 285.766 442.838 285.836 443.226 285.976C443.618 286.111 443.954 286.303 444.234 286.55C444.514 286.793 444.731 287.08 444.885 287.411C445.043 287.742 445.123 288.099 445.123 288.482C445.123 289.014 444.999 289.469 444.752 289.847C444.509 290.225 444.143 290.517 443.653 290.722Z" fill="#666666"/>
</svg>
