<svg width="24" height="25" viewBox="0 0 24 25" fill="none" xmlns="http://www.w3.org/2000/svg">
<g id="star">
<path id="Vector" d="M13.7276 4.09457L15.4874 7.64327C15.7274 8.13726 16.3673 8.61109 16.9073 8.70182L20.0969 9.23614C22.1367 9.57892 22.6167 11.071 21.1468 12.5429L18.6671 15.0431C18.2471 15.4665 18.0172 16.2831 18.1471 16.8679L18.8571 19.9629C19.417 22.4127 18.1271 23.3604 15.9774 22.08L12.9877 20.2956C12.4478 19.973 11.5579 19.973 11.0079 20.2956L8.01827 22.08C5.8785 23.3604 4.57865 22.4026 5.13859 19.9629L5.84851 16.8679C5.97849 16.2831 5.74852 15.4665 5.32856 15.0431L2.84884 12.5429C1.389 11.071 1.85895 9.57892 3.89872 9.23614L7.08837 8.70182C7.61831 8.61109 8.25824 8.13726 8.49821 7.64327L10.258 4.09457C11.2179 2.169 12.7777 2.169 13.7276 4.09457Z" stroke="#141B34" stroke-width="1.5" stroke-linecap="round" stroke-linejoin="round"/>
</g>
</svg>
