<svg width="160" height="68" viewBox="0 0 160 68" fill="none" xmlns="http://www.w3.org/2000/svg">
<path d="M80.9097 24.1665L75.8056 43.7473H70.0324L66.9091 30.8627L63.6747 43.7473H57.9015L52.9375 24.1665H58.0416L60.8582 38.4184L64.3438 24.1665H69.5881L72.9362 38.4184L75.7818 24.1665H80.915H80.9097Z" fill="#00153A"/>
<path d="M87.9656 24C87.9656 24.7246 87.7011 25.3355 87.1695 25.8274C86.6406 26.3193 85.9662 26.5653 85.1464 26.5653C84.3266 26.5653 83.6257 26.3193 83.0968 25.8274C82.5679 25.3355 82.3008 24.7246 82.3008 24M87.516 28.1838V43.7474H82.7477V28.1838H87.516Z" fill="#00153A"/>
<path d="M97.2799 28.7551C98.1156 28.2632 99.0465 28.0146 100.07 28.0146V33.0633H98.7582C97.5682 33.0633 96.6743 33.3198 96.0819 33.8302C95.4868 34.3406 95.1906 35.2398 95.1906 36.5224V43.7475H90.4224V28.1839H95.1906V30.7783C95.7487 29.9241 96.4468 29.2497 97.2825 28.7578L97.2799 28.7551Z" fill="#00153A"/>
<path d="M116.387 37.1094H105.595C105.669 38.0773 105.981 38.8152 106.528 39.3256C107.076 39.836 107.75 40.0925 108.551 40.0925C109.741 40.0925 110.569 39.5901 111.035 38.5851H116.11C115.85 39.6086 115.38 40.5289 114.7 41.3461C114.02 42.1659 113.171 42.8059 112.148 43.2714C111.124 43.7368 109.982 43.9696 108.718 43.9696C107.192 43.9696 105.835 43.6443 104.645 42.9937C103.455 42.3431 102.524 41.4122 101.855 40.2036C101.186 38.995 100.85 37.5828 100.85 35.9643C100.85 34.3458 101.181 32.9335 101.839 31.7249C102.5 30.5163 103.423 29.5881 104.613 28.9349C105.803 28.2843 107.171 27.959 108.713 27.959C110.254 27.959 111.558 28.2763 112.73 28.9084C113.901 29.5405 114.816 30.4423 115.478 31.6139C116.139 32.7854 116.467 34.1527 116.467 35.713C116.467 36.16 116.44 36.6254 116.382 37.1068L116.387 37.1094ZM111.59 34.4595C111.59 33.6423 111.312 32.9917 110.754 32.5077C110.196 32.0238 109.498 31.7831 108.662 31.7831C107.827 31.7831 107.189 32.0158 106.639 32.4813C106.092 32.9468 105.751 33.6079 105.621 34.4621H111.59V34.4595Z" fill="#00153A"/>
<path d="M142.897 29.7731C144.04 30.9447 144.613 32.5711 144.613 34.6551V43.7473H139.872V35.2951C139.872 34.2901 139.607 33.5153 139.076 32.9652C138.547 32.4177 137.817 32.1427 136.886 32.1427C135.955 32.1427 135.228 32.4177 134.696 32.9652C134.167 33.5126 133.9 34.2901 133.9 35.2951V43.7473H129.158V35.2951C129.158 34.2901 128.894 33.5153 128.362 32.9652C127.833 32.4177 127.103 32.1427 126.173 32.1427C125.242 32.1427 124.512 32.4177 123.983 32.9652C123.454 33.5126 123.187 34.2901 123.187 35.2951V43.7473H118.418V28.1837H123.187V30.1354C123.671 29.4849 124.303 28.9692 125.083 28.5883C125.863 28.2075 126.746 28.0171 127.733 28.0171C128.904 28.0171 129.949 28.2683 130.869 28.7708C131.79 29.2733 132.509 29.99 133.03 30.9182C133.57 30.064 134.302 29.3658 135.233 28.8263C136.161 28.2868 137.177 28.0171 138.274 28.0171C140.208 28.0171 141.747 28.6016 142.889 29.7731H142.897Z" fill="#00153A"/>
<path d="M152.616 24C152.616 24.7246 152.352 25.3355 151.82 25.8274C151.291 26.3193 150.617 26.5653 149.797 26.5653C148.977 26.5653 148.276 26.3193 147.747 25.8274C147.218 25.3355 146.951 24.7246 146.951 24M152.166 28.1838V43.7474H147.398V28.1838H152.166Z" fill="#00153A"/>
<path d="M27.5647 34.4695L34.766 22.0027H46.2701C47.6109 22.0027 48.4466 23.4546 47.7749 24.6156L36.4585 44.1673C35.726 45.4341 33.8959 45.4314 33.1633 44.1673L27.562 34.4721L27.5647 34.4695Z" fill="#2A94F4"/>
<path d="M8.86195 22.0026H20.3661L27.5674 34.4694L21.9687 44.1646C21.2362 45.4314 19.4087 45.4341 18.6735 44.1646L7.35716 24.6129C6.68542 23.4519 7.52113 22 8.86195 22V22.0026Z" fill="#105CE2"/>
</svg>
