<svg width="24" height="25" viewBox="0 0 24 25" fill="none" xmlns="http://www.w3.org/2000/svg">
<g id="shellfish">
<path id="Vector" d="M14.5457 5.60392C14.6207 5.91308 14.6405 6.24216 14.5947 6.57911L13.7727 12.6234M14.5457 5.60392C13.9137 2.99661 10.0863 2.99661 9.45425 5.60392M14.5457 5.60392C16.113 3.99548 18.9261 5.59676 19 7.60759M9.45425 5.60392C9.37931 5.91308 9.35952 6.24216 9.40534 6.57911L10.2273 12.6234M9.45425 5.60392C7.88696 3.99548 5.07389 5.59676 5 7.60759M19 7.60759C20 7.77535 22 8.71254 22 11.1192C22 13.2927 19.3928 15.5884 16.8169 17.4131C16.2348 17.8255 15.9437 18.0317 15.7575 18.181C15.1829 18.6419 14.8201 19.0156 14.3765 19.6036C14.2328 19.7941 14.0838 20.0181 13.786 20.4661L13.5536 20.8157C13.2078 21.3358 12.6246 21.6484 12 21.6484C11.3754 21.6484 10.7922 21.3358 10.4464 20.8157L10.214 20.4661C9.91617 20.0181 9.76725 19.7941 9.62352 19.6036C9.1799 19.0156 8.81709 18.6419 8.2425 18.181C8.05634 18.0317 7.76522 17.8255 7.18308 17.4131C4.60719 15.5884 2 13.2927 2 11.1192C2 8.71254 4 7.77535 5 7.60759M19 7.60759C19.0676 9.44725 17.8104 11.9168 16.6976 13.6261M5 7.60759C4.93239 9.44725 6.18965 11.9168 7.30238 13.6261" stroke="#C5C5C5" stroke-width="1.5" stroke-linecap="round" stroke-linejoin="round"/>
<path id="Vector_2" d="M18 16.6484L17.2412 20.4426C17.1009 21.1437 16.4853 21.6484 15.7703 21.6484H8.22971C7.51468 21.6484 6.89906 21.1437 6.75883 20.4426L6 16.6484" stroke="#C5C5C5" stroke-width="1.5" stroke-linecap="round" stroke-linejoin="round"/>
</g>
</svg>
