<svg width="24" height="25" viewBox="0 0 24 25" fill="none" xmlns="http://www.w3.org/2000/svg">
<g id="star">
<path id="Vector" d="M13.7276 4.09262L15.4874 7.64131C15.7274 8.1353 16.3673 8.60913 16.9073 8.69986L20.0969 9.23418C22.1367 9.57696 22.6167 11.069 21.1468 12.5409L18.6671 15.0411C18.2471 15.4645 18.0172 16.2811 18.1471 16.8659L18.8571 19.9609C19.417 22.4107 18.1271 23.3584 15.9774 22.078L12.9877 20.2936C12.4478 19.971 11.5579 19.971 11.0079 20.2936L8.01827 22.078C5.8785 23.3584 4.57865 22.4006 5.13859 19.9609L5.84851 16.8659C5.97849 16.2811 5.74852 15.4645 5.32856 15.0411L2.84884 12.5409C1.389 11.069 1.85895 9.57696 3.89872 9.23418L7.08837 8.69986C7.61831 8.60913 8.25824 8.1353 8.49821 7.64131L10.258 4.09262C11.2179 2.16704 12.7777 2.16704 13.7276 4.09262Z" stroke="#C5C5C5" stroke-width="1.5" stroke-linecap="round" stroke-linejoin="round"/>
</g>
</svg>
